<svg width="10" height="10" viewBox="0 0 10 10" fill="none" xmlns="http://www.w3.org/2000/svg">
<path d="M5 0C2.24274 0 0 2.24382 0 5C0 7.75728 2.24274 10 5 10C7.75727 10 10 7.75728 10 5C10 2.24382 7.75727 0 5 0ZM5 9.28355C2.63786 9.28355 0.717541 7.36215 0.717541 5.00109C0.717541 2.63895 2.63895 0.718626 5 0.718626C7.36105 0.718626 9.28246 2.64004 9.28246 5.00109C9.28246 7.36214 7.36106 9.28355 5 9.28355Z" fill="#454545"/>
<path d="M5.00011 2.12109C4.13493 2.12109 3.43042 2.8191 3.43042 3.67776C3.43042 3.87533 3.59108 4.03707 3.78865 4.03707C3.98622 4.03707 4.14796 3.87642 4.14796 3.67776C4.14796 3.20772 4.52247 2.83863 5.00012 2.83863C5.47014 2.83863 5.85225 3.224 5.85225 3.69839C5.85225 3.8775 5.59607 4.13368 5.37028 4.35947C5.02833 4.70034 4.64079 5.08787 4.64079 5.60676V6.11914C4.64079 6.31779 4.80145 6.47845 5.00011 6.47845C5.19768 6.47845 5.35942 6.31779 5.35942 6.11914V5.60567C5.35942 5.38422 5.6232 5.12044 5.87831 4.86642C6.20289 4.54185 6.57089 4.17385 6.57089 3.69838C6.5698 2.82886 5.86528 2.12109 5.00011 2.12109ZM4.46168 7.71272C4.46168 8.01015 4.70266 8.25114 5.00011 8.25114C5.29755 8.25114 5.53853 8.01015 5.53853 7.71272C5.53853 7.41528 5.29755 7.17428 5.00011 7.17428C4.70266 7.17428 4.46168 7.41527 4.46168 7.71271V7.71272Z" fill="#454545"/>
</svg>
