<svg width="46" height="46" viewBox="0 0 46 46" fill="none" xmlns="http://www.w3.org/2000/svg">
<g clip-path="url(#clip0)">
<path d="M18.7945 33.7606C18.952 33.9648 19.1543 34.1302 19.3858 34.244C19.6174 34.3578 19.8719 34.417 20.1298 34.417C20.3878 34.417 20.6423 34.3578 20.8738 34.244C21.1053 34.1302 21.3077 33.9648 21.4652 33.7606L34.8984 17.1866C35.1394 16.8875 35.3092 16.5374 35.3949 16.163C35.4805 15.7885 35.4799 15.3995 35.393 15.0253C35.3269 14.6683 35.169 14.3346 34.9349 14.0571C34.7008 13.7796 34.3984 13.5678 34.0576 13.4426C33.7313 13.3445 33.3829 13.3472 33.0581 13.4505C32.7333 13.5537 32.4473 13.7527 32.2375 14.0213L20.12 29.0273L13.7743 21.0841C13.5645 20.8155 13.2785 20.6166 12.9537 20.5133C12.629 20.4101 12.2806 20.4073 11.9542 20.5054C11.6134 20.6307 11.3111 20.8425 11.0769 21.12C10.8428 21.3975 10.6849 21.7311 10.6188 22.0881C10.5319 22.4623 10.5312 22.8513 10.6169 23.2258C10.7026 23.6003 10.8724 23.9503 11.1134 24.2495L18.7945 33.7606ZM10.8809 5.97419C11.1069 5.97201 11.3279 5.90693 11.519 5.78624C11.7058 5.6593 11.8512 5.48027 11.9371 5.27138C12.023 5.0625 12.0457 4.83297 12.0022 4.61132C11.9588 4.38967 11.8511 4.18568 11.6927 4.02469C11.5343 3.8637 11.332 3.75282 11.1111 3.70581C10.8902 3.65881 10.6603 3.67776 10.4501 3.76032C10.2399 3.84287 10.0585 3.98538 9.9286 4.17014C9.79868 4.3549 9.72592 4.57377 9.71936 4.79954C9.7128 5.02531 9.77273 5.24803 9.8917 5.44002C9.9977 5.59478 10.1403 5.72091 10.3069 5.80721C10.4734 5.8935 10.6587 5.93727 10.8463 5.93461L10.8809 5.97419ZM7.54732 8.69448C7.81279 8.6946 8.07009 8.60266 8.27538 8.43433C8.48066 8.266 8.62123 8.0317 8.67312 7.77135C8.72502 7.511 8.68504 7.24071 8.55999 7.00654C8.43494 6.77236 8.23256 6.58879 7.98733 6.48711C7.7421 6.38542 7.4692 6.37192 7.21514 6.44889C6.96107 6.52586 6.74155 6.68855 6.59398 6.90923C6.44642 7.12991 6.37994 7.39493 6.40587 7.65913C6.43181 7.92334 6.54855 8.17037 6.73621 8.35815C6.95129 8.57337 7.24305 8.69434 7.54732 8.69448ZM14.63 3.95625C14.7807 3.95619 14.9301 3.92766 15.0702 3.87216C15.3368 3.76457 15.5538 3.56163 15.6789 3.30285C15.8041 3.04407 15.8285 2.74797 15.7473 2.4722C15.6662 2.19643 15.4853 1.96072 15.2399 1.81098C14.9946 1.66123 14.7022 1.60816 14.4199 1.66209C14.1375 1.71603 13.8854 1.87311 13.7124 2.10276C13.5395 2.33241 13.4583 2.61818 13.4845 2.90445C13.5107 3.19071 13.6425 3.45698 13.8543 3.6514C14.066 3.84583 14.3425 3.9545 14.63 3.95625ZM4.18905 11.8055C4.37715 11.9332 4.59973 12.0005 4.82707 11.9984C5.07415 12.0026 5.31588 11.9263 5.51573 11.781C5.71557 11.6357 5.86266 11.4292 5.93474 11.1928C6.00682 10.9565 5.99998 10.7031 5.91525 10.4709C5.83051 10.2388 5.6725 10.0406 5.4651 9.90625C5.34045 9.82013 5.19995 9.7596 5.05174 9.72816C4.90353 9.69671 4.75056 9.69498 4.60168 9.72307C4.4528 9.75115 4.31097 9.80849 4.1844 9.89176C4.05783 9.97503 3.94904 10.0826 3.86432 10.2082C3.7796 10.3338 3.72064 10.475 3.69086 10.6235C3.66107 10.7721 3.66105 10.925 3.69079 11.0736C3.72053 11.2222 3.77945 11.3633 3.86412 11.489C3.9488 11.6146 4.05756 11.7222 4.18411 11.8055L4.18905 11.8055ZM2.3689 15.6881C2.57663 15.7838 2.80824 15.8153 3.034 15.7785C3.25976 15.7417 3.46935 15.6382 3.63589 15.4814C3.80242 15.3246 3.91828 15.1216 3.9686 14.8984C4.01892 14.6753 4.00141 14.4422 3.9183 14.2291C3.83519 14.016 3.69029 13.8326 3.50219 13.7024C3.31409 13.5723 3.09138 13.5013 2.86266 13.4986C2.63394 13.496 2.40963 13.5617 2.21855 13.6875C2.02747 13.8132 1.87832 13.9932 1.79027 14.2043C1.67593 14.4784 1.67234 14.7862 1.78025 15.0629C1.88816 15.3396 2.09917 15.5637 2.3689 15.6881ZM18.7252 2.70985C18.7977 2.71428 18.8703 2.71428 18.9428 2.70985C19.1644 2.66532 19.3677 2.5561 19.5271 2.396C19.6866 2.2359 19.795 2.03212 19.8386 1.81042C19.8823 1.58873 19.8592 1.35906 19.7723 1.15048C19.6854 0.941895 19.5387 0.763756 19.3505 0.638586C19.1624 0.513416 18.9414 0.446837 18.7155 0.447268C18.4895 0.447698 18.2688 0.515118 18.0811 0.641004C17.8935 0.766889 17.7474 0.945586 17.6613 1.1545C17.5752 1.36341 17.553 1.59316 17.5975 1.81469C17.6537 2.07258 17.7959 2.30369 18.0009 2.46999C18.2058 2.63629 18.4613 2.72788 18.7252 2.72971V2.70985ZM1.33521 19.8575C1.63317 19.9116 1.94049 19.8473 2.19175 19.6783C2.44302 19.5092 2.61839 19.2488 2.68053 18.9524C2.72306 18.7308 2.69904 18.5016 2.61148 18.2937C2.52393 18.0857 2.37677 17.9084 2.18856 17.7839C2.00035 17.6595 1.77951 17.5936 1.55389 17.5945C1.32827 17.5954 1.10797 17.6631 0.920773 17.7891C0.733574 17.915 0.587855 18.0936 0.501989 18.3022C0.416124 18.5108 0.393956 18.7402 0.438281 18.9615C0.482607 19.1827 0.591441 19.3858 0.75106 19.5453C0.91068 19.7048 1.11394 19.8134 1.33521 19.8575Z" fill="#02AD8F"/>
<path d="M39.261 6.73648C37.1305 4.59401 34.5961 2.89546 31.8047 1.73914C29.0132 0.582831 26.0201 -0.00826171 22.9987 8.72236e-05C22.7079 0.0191095 22.4353 0.148015 22.2361 0.36065C22.037 0.573286 21.9261 0.853727 21.9261 1.14508C21.9261 1.43643 22.037 1.71687 22.2361 1.92951C22.4353 2.14214 22.7079 2.27105 22.9987 2.29007C27.0945 2.29006 31.0983 3.5046 34.5038 5.7801C37.9093 8.05559 40.5636 11.2898 42.131 15.0739C43.6984 18.8579 44.1086 23.0217 43.3095 27.0388C42.5105 31.0559 40.5382 34.7459 37.642 37.642C34.7458 40.5382 31.0559 42.5105 27.0388 43.3096C23.0217 44.1086 18.8579 43.6985 15.0738 42.1311C11.2898 40.5638 8.05554 37.9095 5.78003 34.5039C3.50453 31.0984 2.28998 27.0946 2.28998 22.9988C2.27096 22.7081 2.14206 22.4354 1.92942 22.2363C1.71678 22.0371 1.43634 21.9263 1.14499 21.9263C0.85364 21.9263 0.573198 22.0371 0.360563 22.2363C0.147927 22.4354 0.0190223 22.7081 2.75074e-09 22.9988C-5.84872e-05 26.781 0.932654 30.5048 2.71552 33.8404C4.49838 37.176 7.07637 40.0204 10.2211 42.1217C13.3659 44.223 16.9803 45.5163 20.7443 45.887C24.5082 46.2578 28.3055 45.6945 31.7998 44.2472C35.2941 42.7998 38.3775 40.513 40.7769 37.5893C43.1762 34.6657 44.8176 31.1954 45.5554 27.4859C46.2933 23.7764 46.1049 19.9422 45.0069 16.3228C43.909 12.7035 41.9354 9.41086 39.261 6.73648Z" fill="#02AD8F"/>
</g>
<defs>
<clipPath id="clip0">
<rect width="46" height="46" fill="white"/>
</clipPath>
</defs>
</svg>
