<svg width="14" height="14" viewBox="0 0 14 14" fill="none" xmlns="http://www.w3.org/2000/svg">
<path d="M6.99824 0C3.13727 0 1.94494e-08 3.14078 0 6.99824C0 10.8592 3.14078 14 6.99824 14C10.8592 14 14 10.8592 14 6.99824C13.9965 3.14078 10.8557 0 6.99824 0ZM6.99824 12.946C3.72045 12.946 1.05395 10.2795 1.05395 6.99824C1.05395 3.72045 3.72045 1.05395 6.99824 1.05395C10.276 1.05395 12.946 3.72045 12.946 6.99824C12.9425 10.2795 10.276 12.946 6.99824 12.946Z" fill="#02AD8F"/>
<path d="M3.40426 6.42984H10.6625C10.8803 6.42984 11.077 6.29282 11.1543 6.08906C11.2316 5.88529 11.1719 5.64991 11.0068 5.50587L8.85671 3.62281C8.75044 3.53821 8.61568 3.49779 8.4804 3.50993C8.34511 3.52207 8.2197 3.58584 8.13019 3.688C8.04069 3.79017 7.99396 3.92288 7.99972 4.05859C8.00547 4.19429 8.06327 4.32257 8.1611 4.41679L9.25721 5.37588H3.40426C3.11267 5.37588 2.87729 5.61127 2.87729 5.90286C2.87729 6.19445 3.11618 6.42984 3.40426 6.42984ZM10.796 7.66647H3.54128C3.32346 7.66647 3.12672 7.80349 3.04943 8.00725C2.97214 8.21102 3.03187 8.4464 3.19699 8.59044L5.34705 10.4735C5.45248 10.5654 5.59003 10.6118 5.7296 10.6026C5.86917 10.5934 5.99941 10.5293 6.09184 10.4243C6.28507 10.2065 6.26048 9.87275 6.04266 9.67952L4.94655 8.72043H10.803C11.0946 8.72043 11.33 8.48504 11.33 8.19345C11.33 7.90186 11.0876 7.66647 10.796 7.66647Z" fill="#02AD8F"/>
</svg>
