<svg width="63" height="51" viewBox="0 0 63 51" fill="none" xmlns="http://www.w3.org/2000/svg">
<rect x="54.5651" y="2.5918" width="2" height="8" transform="rotate(-31.2358 54.5651 2.5918)" fill="#FF9C1A"/>
<rect x="60.396" y="2.56445" width="2" height="8" transform="rotate(58.7642 60.396 2.56445)" fill="#FF9C1A"/>
<rect x="2.56506" y="42.5918" width="2" height="8" transform="rotate(-31.2358 2.56506 42.5918)" fill="#FF9C1A"/>
<rect x="8.396" y="42.5645" width="2" height="8" transform="rotate(58.7642 8.396 42.5645)" fill="#FF9C1A"/>
<path d="M12 16.1948V10.7315C12 9.22293 13.2229 8 14.7315 8H52.9732C54.4818 8 55.7047 9.22293 55.7047 10.7315V16.1948H12ZM12 18.9262V40.7786C12 42.2872 13.2229 43.5101 14.7317 43.5101H45.7996C44.0328 42.2339 42.8829 40.1567 42.8829 37.8106C42.8829 33.9303 46.0286 30.7844 49.9092 30.7844C52.3154 30.7844 54.4386 31.9943 55.7049 33.8384V18.9262H12ZM27.0235 38.0471H16.0973C15.343 38.0471 14.7314 37.4356 14.7314 36.6812C14.7314 35.9267 15.343 35.3154 16.0973 35.3154H27.0235C27.7778 35.3154 28.3893 35.9267 28.3893 36.6812C28.3893 37.4356 27.7778 38.0471 27.0235 38.0471V38.0471ZM29.7549 32.5839H16.0973C15.343 32.5839 14.7314 31.9724 14.7314 31.2181C14.7314 30.4638 15.343 29.8525 16.0973 29.8525H29.7549C30.5093 29.8525 31.1208 30.4638 31.1208 31.2181C31.1208 31.9724 30.5093 32.5839 29.7549 32.5839ZM37.9497 32.5839H35.2182C34.4637 32.5839 33.8524 31.9724 33.8524 31.2181C33.8524 30.4638 34.4637 29.8525 35.2182 29.8525H37.9497C38.704 29.8525 39.3156 30.4638 39.3156 31.2181C39.3156 31.9724 38.704 32.5839 37.9497 32.5839ZM50.0059 43.8859C46.6952 43.8859 44.0115 41.202 44.0115 37.8912C44.0115 34.581 46.6951 31.897 50.0059 31.897C53.3163 31.897 56 34.5809 56 37.8912C56 41.2019 53.3163 43.8859 50.0059 43.8859ZM51.723 37.9722V38.5244H50.3738V39.2859H51.723V39.8453H50.3738V40.9536H49.6798V39.8453H48.2813V39.2859H49.6798V38.5245H48.2813V37.9723H49.4746L48.0191 35.4729H48.8016C49.4816 36.7144 49.8946 37.5017 50.041 37.8341H50.0555C50.105 37.6973 50.2405 37.421 50.4622 37.0055L51.2944 35.4728H52.0344L50.5655 37.9723H51.723V37.9722ZM50.0059 32.9715C47.293 32.9715 45.0859 35.1788 45.0859 37.8912C45.0859 40.6041 47.293 42.8113 50.0059 42.8113C52.7188 42.8113 54.9256 40.6041 54.9256 37.8913C54.9256 35.1787 52.7187 32.9715 50.0059 32.9715Z" fill="#02AD8F"/>
</svg>
