<svg width="68" height="68" viewBox="0 0 68 68" fill="none" xmlns="http://www.w3.org/2000/svg">
<path d="M16.0342 63.5568C15.427 63.5291 14.8241 63.4412 14.2343 63.2944L13.7934 65.0603C14.4968 65.2356 15.2182 65.3408 15.9503 65.3748L16.0353 63.5568H16.0342ZM19.5957 63.0181C19.0241 63.2253 18.4333 63.3747 17.832 63.4644L18.1008 65.2643C18.8224 65.1567 19.5314 64.9773 20.2173 64.7288L19.5957 63.0181ZM12.495 62.6686C11.9465 62.4056 11.4254 62.0889 10.9395 61.7229L9.84515 63.1775C10.4274 63.6152 11.0511 63.9956 11.7088 64.3101L12.495 62.6686ZM22.7248 61.1014C22.2799 61.5158 21.7952 61.8852 21.2776 62.2043L22.2318 63.7544C22.8523 63.3719 23.4324 62.9289 23.9647 62.4327L22.7248 61.1014ZM9.58908 60.4777C9.1851 60.0233 8.82706 59.53 8.52021 59.0051L6.94877 59.922C7.3164 60.551 7.74565 61.1418 8.22802 61.6858L9.58802 60.4777H9.58908ZM24.8466 58.1444C24.5967 58.6988 24.2924 59.227 23.9381 59.7212L25.4171 60.7816C25.8421 60.1898 26.2055 59.5565 26.5051 58.8914L24.8455 58.1444H24.8466ZM7.76902 57.3688C7.57121 56.7938 7.43133 56.2005 7.35146 55.5976L5.54733 55.8356C5.64402 56.5624 5.81296 57.2732 6.04883 57.9606L7.77008 57.3678L7.76902 57.3688ZM25.6488 54.5893C25.6354 55.1979 25.5617 55.8037 25.4288 56.3977L27.2043 56.7951C27.3636 56.0885 27.4518 55.3649 27.4678 54.6318L25.6488 54.5893ZM7.5969 51.9426L5.84271 51.4613C5.6502 52.1643 5.52812 52.8847 5.47827 53.6118L7.29302 53.7372C7.33552 53.1209 7.43858 52.5196 7.5969 51.9416V51.9426ZM25.0272 51.0416C25.2461 51.6016 25.4097 52.1891 25.516 52.7948L27.3095 52.4845C27.1849 51.7658 26.9888 51.0614 26.724 50.3818L25.0272 51.0406V51.0416ZM9.24908 48.6808L7.82002 47.5524C7.36828 48.1236 6.97429 48.7383 6.64383 49.3873L8.26521 50.2139C8.54146 49.6689 8.87083 49.1568 9.24696 48.6808H9.24908ZM23.0361 47.9561C23.4611 48.3896 23.8415 48.8656 24.173 49.3767L25.6998 48.3854C25.3029 47.7749 24.8466 47.2051 24.3376 46.6843L23.0361 47.9561ZM12.0222 46.3273L11.1425 44.7346C10.505 45.0874 9.90358 45.5018 9.34896 45.9724L10.5251 47.3611C10.9892 46.9679 11.491 46.6216 12.0233 46.3273H12.0222ZM20.0292 45.9044C20.5895 46.1411 21.1248 46.433 21.6272 46.7757L22.6515 45.2712C22.0494 44.8608 21.4081 44.5113 20.7368 44.2278L20.0292 45.9044ZM15.4562 45.2404L15.2596 43.432C14.5318 43.5106 13.8168 43.6615 13.1251 43.8814L13.6755 45.6165C14.2551 45.4322 14.8516 45.3062 15.4562 45.2404ZM16.4613 45.1873C17.0696 45.1866 17.6764 45.246 18.2729 45.3647L18.6299 43.5797C17.9162 43.4377 17.1901 43.3665 16.4624 43.3672V45.1862L16.4613 45.1873Z" fill="#FF9C1A"/>
<path d="M56.6271 32.0241V54.7733C56.6272 55.3094 56.4248 55.8258 56.0602 56.2189C55.6957 56.612 55.196 56.8528 54.6614 56.893L54.5021 56.8983H15.7314C15.1955 56.8982 14.6794 56.6956 14.2865 56.3311C13.8937 55.9666 13.653 55.4671 13.6128 54.9327L13.6075 54.7733L13.6064 32.0241H56.6271ZM54.5021 20.123C55.0382 20.1229 55.5545 20.3254 55.9477 20.6899C56.3408 21.0544 56.5816 21.5541 56.6218 22.0887L56.6271 22.248V28.8366H13.6064V22.248C13.6063 21.7116 13.8091 21.1949 14.1741 20.8018C14.539 20.4086 15.0392 20.1681 15.5742 20.1284L15.7336 20.123H54.5042H54.5021Z" fill="#02AD8F"/>
<path d="M1.54272 30.4313C1.54272 31.6148 2.01288 32.7498 2.84976 33.5867C3.68664 34.4236 4.8217 34.8937 6.00522 34.8937C7.18875 34.8937 8.32381 34.4236 9.16069 33.5867C9.99757 32.7498 10.4677 31.6148 10.4677 30.4313C10.4677 29.2477 9.99757 28.1127 9.16069 27.2758C8.32381 26.4389 7.18875 25.9688 6.00522 25.9688C4.8217 25.9688 3.68664 26.4389 2.84976 27.2758C2.01288 28.1127 1.54272 29.2477 1.54272 30.4313Z" fill="#FF9C1A"/>
<path d="M6.98698 30.3201C7.21755 30.2032 7.36311 29.9939 7.32911 29.6454C7.28555 29.1694 6.89348 29.01 6.37605 28.9654V28.3066H5.97336V28.9473C5.86923 28.9473 5.76086 28.9495 5.65461 28.9526V28.3066H5.25086V28.9654C5.10317 28.9696 4.93105 28.9675 4.44336 28.9654V29.3946C4.76211 29.3893 4.92786 29.3681 4.96611 29.5721V31.3773C4.94167 31.5388 4.81311 31.5154 4.52411 31.5111L4.44336 31.9893C5.17755 31.9893 5.25086 31.9925 5.25086 31.9925V32.5556H5.65461V31.9999C5.76405 32.002 5.87136 32.002 5.97336 32.002V32.5566H6.37711V31.9925C7.05073 31.9553 7.5023 31.7853 7.56286 31.1499C7.60961 30.6399 7.36842 30.4125 6.98698 30.3211V30.3201ZM5.66205 29.4233C5.88942 29.4233 6.6013 29.3532 6.6013 29.8271C6.6013 30.2786 5.88942 30.2266 5.66205 30.2266V29.4233ZM5.66205 31.5133V30.6293C5.93405 30.6293 6.76705 30.5538 6.76705 31.0713C6.76705 31.5706 5.93405 31.5133 5.66205 31.5133ZM23.7862 50.3068V48.934C22.8915 48.8905 22.0245 48.6153 21.5177 48.3125L21.9183 46.621C22.4782 46.9535 23.2655 47.2563 24.1325 47.2563C24.906 47.2563 25.4267 46.9248 25.4267 46.3606C25.4267 45.8113 24.9995 45.4639 23.9997 45.1026C22.5717 44.582 21.5985 43.8595 21.5985 42.457C21.5985 41.1714 22.4251 40.1726 23.852 39.8847V38.5109H25.16V39.7838C25.8366 39.7947 26.5022 39.9574 27.1075 40.2598L26.708 41.8939C26.3744 41.7207 25.7465 41.3881 24.786 41.3881C23.919 41.3881 23.6385 41.8068 23.6385 42.2116C23.6385 42.6748 24.106 42.9925 25.2535 43.4409C26.8409 44.0476 27.4677 44.8434 27.4677 46.1577C27.4677 47.4444 26.6411 48.543 25.1069 48.8182V50.3068H23.7862ZM50.729 45.8379V49.0254H42.7497V45.8379H50.729Z" fill="white"/>
<path d="M58.5757 29.2294V26.3213C56.6823 26.2299 54.8463 25.6488 53.7721 25.0049L54.6189 21.4242C55.8057 22.1276 57.4728 22.7704 59.3088 22.7704C60.9472 22.7704 62.05 22.0671 62.05 20.8728C62.05 19.7094 61.1458 18.9741 59.0262 18.2091C56.0033 17.1073 53.9421 15.5763 53.9421 12.6076C53.9421 9.88231 55.6931 7.77112 58.7159 7.15912V4.25H61.4848V6.9445C63.3495 7.00506 64.6202 7.46513 65.6094 7.95388L64.7626 11.4134C64.056 11.0457 62.7279 10.3424 60.6932 10.3424C58.8572 10.3424 58.2633 11.2296 58.2633 12.087C58.2633 13.0666 59.2525 13.7392 61.6824 14.6891C65.0452 15.9747 66.3723 17.6587 66.3723 20.4436C66.3723 23.1689 64.6202 25.4947 61.3722 26.0769V29.2294H58.5746H58.5757Z" fill="#FF9C1A"/>
</svg>
