<svg width="60" height="60" viewBox="0 0 60 60" fill="none" xmlns="http://www.w3.org/2000/svg">
<path d="M30 50C18.9547 50 10 41.0453 10 30C10 18.9547 18.9547 10 30 10C41.0453 10 50 18.9547 50 30C50 41.0453 41.0453 50 30 50ZM34.0987 20.8027C35.016 21.5493 35.5813 22.68 35.7947 24.1947H38.3547C38.0347 21.9547 37.2347 20.2907 35.9547 19.2027C34.8027 18.2427 33.288 17.6987 31.4107 17.5707V14.9467H29.8107V17.5707C27.9973 17.6347 26.4827 18.1253 25.2667 19.0427C23.752 20.1093 22.9947 21.6987 22.9947 23.8107C22.9947 26.0507 24.136 27.7467 26.4187 28.8987C27.4427 29.2613 28.5733 29.6773 29.8107 30.1467V39.0107C28.488 38.8827 27.4747 38.4453 26.7707 37.6987C25.9387 36.824 25.4267 35.4373 25.2347 33.5387H22.6427C22.856 36.0773 23.6027 37.9867 24.8827 39.2667C26.056 40.4613 27.6987 41.1227 29.8107 41.2507V44.0667H31.4107V41.2507C33.4373 41.1653 35.0907 40.6853 36.3707 39.8107C37.9493 38.68 38.7387 36.9947 38.7387 34.7547C38.7387 32.536 37.608 30.8293 35.3467 29.6347C34.8987 29.4427 33.5867 28.952 31.4107 28.1627V19.7787C32.52 19.9067 33.416 20.248 34.0987 20.8027ZM25.6187 23.8107C25.6187 22.3813 26.0987 21.336 27.0587 20.6747C27.7627 20.1413 28.68 19.8427 29.8107 19.7787V27.5867L29.0107 27.2987C26.7493 26.4027 25.6187 25.24 25.6187 23.8107ZM36.1147 34.8187C36.1147 36.1413 35.6453 37.176 34.7067 37.9227C33.896 38.5413 32.7973 38.904 31.4107 39.0107V30.7227C31.688 30.808 32.1253 30.9573 32.7227 31.1707C34.984 32.0453 36.1147 33.2613 36.1147 34.8187Z" fill="#02AD8F"/>
<circle cx="30" cy="30" r="17.5" stroke="white"/>
<circle cx="30" cy="30" r="29.5" stroke="#FF9C1A" stroke-dasharray="2 2"/>
</svg>
