<svg width="42" height="42" viewBox="0 0 42 42" fill="none" xmlns="http://www.w3.org/2000/svg">
<path d="M1.05 42.0001C0.771523 42.0001 0.504451 41.8895 0.307538 41.6925C0.110625 41.4956 0 41.2286 0 40.9501C0 40.6716 0.110625 40.4045 0.307538 40.2076C0.504451 40.0107 0.771523 39.9001 1.05 39.9001H40.95C41.2285 39.9001 41.4956 40.0107 41.6925 40.2076C41.8894 40.4045 42 40.6716 42 40.9501C42 41.2286 41.8894 41.4956 41.6925 41.6925C41.4956 41.8895 41.2285 42.0001 40.95 42.0001H1.05ZM11.8768 24.5701C11.2325 24.5701 10.71 24.0997 10.71 23.5201C10.71 22.9405 11.2325 22.4701 11.8768 22.4701H30.5433C31.1875 22.4701 31.71 22.9405 31.71 23.5201C31.71 24.0997 31.1875 24.5701 30.5433 24.5701H11.8768ZM7.875 34.2301C7.59653 34.2301 7.32945 34.1194 7.13254 33.9225C6.93563 33.7256 6.825 33.4586 6.825 33.1801C6.825 32.9016 6.93563 32.6345 7.13254 32.4376C7.32945 32.2407 7.59653 32.1301 7.875 32.1301H34.125C34.4035 32.1301 34.6706 32.2407 34.8675 32.4376C35.0644 32.6345 35.175 32.9016 35.175 33.1801C35.175 33.4586 35.0644 33.7256 34.8675 33.9225C34.6706 34.1194 34.4035 34.2301 34.125 34.2301H7.875ZM21 17.8501C20.1302 17.8501 19.425 13.9949 19.425 13.1251C19.425 12.9182 19.4657 12.7134 19.5448 12.5223C19.624 12.3311 19.74 12.1575 19.8862 12.0112C20.0325 11.8649 20.2061 11.7489 20.3972 11.6697C20.5883 11.5906 20.7932 11.5498 21 11.5498C21.2069 11.5498 21.4117 11.5906 21.6028 11.6697C21.7939 11.7489 21.9675 11.8649 22.1138 12.0112C22.26 12.1575 22.3761 12.3311 22.4552 12.5223C22.5343 12.7134 22.575 12.9182 22.575 13.1251C22.575 13.9949 21.8698 17.8501 21 17.8501ZM22.1235 2.41423C20.895 1.80439 19.4053 2.28193 18.766 3.47557L5.7624 40.7153C5.7176 40.8506 5.64632 40.9756 5.55272 41.0831C5.45911 41.1906 5.34505 41.2783 5.21718 41.3413C5.08931 41.4042 4.95019 41.4411 4.80793 41.4497C4.66567 41.4583 4.52312 41.4386 4.38858 41.3915C4.25404 41.3445 4.1302 41.2712 4.02429 41.1758C3.91837 41.0805 3.8325 40.965 3.77167 40.8361C3.71085 40.7072 3.67629 40.5675 3.67 40.4251C3.66371 40.2827 3.68583 40.1405 3.73506 40.0068L16.7635 2.69521C16.7786 2.65111 16.7971 2.60785 16.8181 2.56627C17.9722 0.273066 20.7745 -0.654294 23.0786 0.490206C23.9813 0.937982 24.7145 1.66644 25.1681 2.56627C25.1891 2.60827 25.2076 2.65111 25.2227 2.69521L38.2645 40.0462C38.35 40.313 38.3279 40.6025 38.203 40.8532C38.078 41.1038 37.8602 41.2958 37.5958 41.3882C37.3314 41.4806 37.0414 41.4661 36.7875 41.3478C36.5337 41.2294 36.336 41.0167 36.2368 40.7548L23.2205 3.47557C22.9739 3.01649 22.5905 2.64556 22.1235 2.41423Z" fill="#9C9C9C"/>
</svg>
