<svg width="12" height="12" viewBox="0 0 12 12" fill="none" xmlns="http://www.w3.org/2000/svg">
<path d="M2.19996 1.83431C2.04375 1.67808 1.79041 1.67808 1.63437 1.83431C1.47808 1.99048 1.47808 2.24373 1.63437 2.40003L2.19996 2.96563C2.3562 3.12186 2.60935 3.12186 2.76563 2.96563C2.9218 2.80946 2.9218 2.55626 2.76563 2.40003L2.19996 1.83431ZM9.79998 1.83431L9.23431 2.40003C9.07814 2.55626 9.07814 2.80946 9.23431 2.96563C9.39036 3.12186 9.64367 3.12186 9.79998 2.96563L10.3655 2.40003C10.5218 2.24373 10.5218 1.99054 10.3655 1.83431C10.2094 1.67814 9.9562 1.67814 9.79996 1.83431H9.79998ZM1.2 4.99999H0.400046C0.179134 4.99999 0 5.17908 0 5.39991C0 5.62087 0.179087 5.79997 0.400046 5.79997H1.20001C1.42091 5.79997 1.6 5.62087 1.6 5.39991C1.6 5.17908 1.42092 4.99999 1.20001 4.99999H1.2ZM11.5999 4.99999H10.7999C10.579 4.99999 10.3999 5.17908 10.3999 5.39991C10.3999 5.62087 10.579 5.79997 10.7999 5.79997H11.5999C11.8208 5.79997 12 5.62087 12 5.39991C12 5.17908 11.8208 4.99999 11.5999 4.99999H11.5999ZM5.59996 0.399987V1.19996C5.59996 1.42092 5.77905 1.59993 5.99995 1.59993C6.22078 1.59993 6.39999 1.42092 6.39999 1.19996V0.399987C6.39999 0.179087 6.22078 0 5.99995 0C5.77905 0 5.59996 0.179087 5.59996 0.399987ZM3.19999 5.99995C3.19999 4.45359 4.45352 3.19999 5.99995 3.19999C7.54636 3.19999 8.79996 4.45359 8.79996 5.99995C8.79996 7.54636 7.54636 8.80001 5.99995 8.80001C4.45352 8.80001 3.19999 7.54635 3.19999 5.99995ZM2.40003 5.99995C2.40003 7.98835 4.01166 9.60011 5.99994 9.60011C7.98821 9.60011 9.59993 7.98835 9.59993 5.99995C9.59993 4.01167 7.98822 2.40004 5.99995 2.40004C4.01167 2.40004 2.40003 4.01167 2.40003 5.99995ZM5.19997 11.6C5.19997 11.8208 5.37906 12.0001 5.59996 12.0001H6.39999C6.62089 12.0001 6.79998 11.8208 6.79998 11.6C6.79998 11.379 6.62089 11.2 6.39999 11.2H5.59995C5.37906 11.2 5.19997 11.379 5.19997 11.6V11.6ZM4.40001 10.4001C4.40001 10.6208 4.57909 10.8001 4.79994 10.8001H7.19996C7.42086 10.8001 7.59994 10.6208 7.59994 10.4001C7.59994 10.179 7.42084 9.99996 7.19996 9.99996H4.79994C4.57903 9.99997 4.40001 10.179 4.40001 10.4001Z" fill="black"/>
</svg>
