<svg width="60" height="52" viewBox="0 0 60 52" fill="none" xmlns="http://www.w3.org/2000/svg">
<circle cx="25" cy="26" r="25" fill="#02AD8F"/>
<path d="M41.5125 29.871C41.8645 30.4488 42.0327 31.1199 41.9948 31.7955C41.9568 32.471 41.7146 33.1191 41.3001 33.6538L41.1768 33.8145L28.5031 41.2338C28.1846 41.4206 27.8084 41.4833 27.4465 41.4099L17.3604 39.3176H14.392C13.7174 39.3176 13.1704 38.7486 13.1704 38.0497V30.243C13.1704 29.6134 13.6227 29.073 14.2237 28.9883L18.3774 28.3907C18.7484 28.3375 19.1269 28.383 19.4747 28.5227L29.3066 32.2979L29.5102 32.441C29.7424 32.606 29.9428 32.8042 30.1046 33.0298L30.1893 33.1498L38.0125 28.4446L38.1424 28.4138C38.3812 28.3587 38.6234 28.329 38.8622 28.329C39.9408 28.329 40.9314 28.9057 41.5125 29.8699V29.871ZM40.0311 32.376C40.4658 31.6738 40.1378 31.0178 40.0267 30.8329C39.9298 30.6722 39.56 30.1451 38.871 30.1451C38.8094 30.1451 38.7456 30.1495 38.6806 30.1583L38.6498 30.1616L30.4722 35.0791L30.4535 35.1452C30.4264 35.2392 30.3944 35.3318 30.3577 35.4225C29.9813 36.3526 29.158 36.9304 28.2115 36.9304C28.0442 36.9304 27.8769 36.9128 27.7118 36.8787L27.648 36.8655L22.1603 34.8051L22.7535 33.0958L28.1113 35.1067L28.13 35.1089C28.1542 35.1116 28.1784 35.1131 28.2027 35.1133C28.4448 35.1133 28.6418 34.9702 28.742 34.7192C28.8045 34.5848 28.8166 34.4325 28.7762 34.2898C28.7358 34.1472 28.6456 34.0239 28.5219 33.9422L28.4954 33.9235L18.8408 30.2166C18.7708 30.1879 18.6944 30.1784 18.6195 30.1891L14.9214 30.7207V37.5005H17.5332L27.7107 39.6115L40.0102 32.4123L40.0322 32.376H40.0311ZM10.465 29.0059C10.7578 29.0059 10.9955 29.2513 10.9955 29.5551V39.1471C10.9979 39.2902 10.9433 39.4284 10.8439 39.5314C10.7444 39.6344 10.6082 39.6937 10.465 39.6963H9.52949C9.38635 39.6934 9.25021 39.6338 9.15095 39.5306C9.0517 39.4274 8.99744 39.2891 9.00009 39.146V29.5551C9.00009 29.2513 9.23783 29.0048 9.53059 29.0048H10.4661L10.465 29.0059ZM15.0755 14H37.4809C38.2404 14 38.8567 14.6163 38.8567 15.3758V25.5731C38.8567 26.3325 38.2404 26.9488 37.4809 26.9488H15.0755C14.3161 26.9488 13.6998 26.3325 13.6998 25.5731V15.3758C13.6998 14.6163 14.3161 14 15.0755 14ZM15.8713 15.4385C15.6661 15.4385 15.4693 15.52 15.3242 15.6651C15.1791 15.8102 15.0975 16.007 15.0975 16.2123V24.7355C15.0975 25.1636 15.4431 25.5103 15.8713 25.5103H36.6841C36.7859 25.5105 36.8867 25.4905 36.9808 25.4516C37.0748 25.4127 37.1603 25.3557 37.2323 25.2837C37.3043 25.2117 37.3614 25.1262 37.4002 25.0322C37.4391 24.9381 37.4591 24.8373 37.4589 24.7355V16.2123C37.4589 16.007 37.3774 15.8102 37.2323 15.6651C37.0872 15.52 36.8904 15.4385 36.6852 15.4385H15.8713ZM20.6238 16.8935C21.4426 16.8935 22.1371 17.1192 22.6753 17.5704C23.197 18.0041 23.514 18.605 23.623 19.3435L23.6813 19.7387H22.0106L21.9445 19.4767C21.8587 19.1278 21.7101 18.8934 21.4911 18.7415C21.2776 18.5907 20.9892 18.5148 20.6062 18.5148C20.0493 18.5148 19.664 18.6942 19.3955 19.0728C19.1368 19.4217 19.0048 19.9291 19.0048 20.6092C19.0048 21.3037 19.1368 21.8232 19.3845 22.1611C19.6431 22.5067 20.0526 22.685 20.6326 22.685C21.0024 22.685 21.3007 22.5937 21.5153 22.4275C21.7519 22.2349 21.9269 21.9278 22.0337 21.503L22.0997 21.2443H23.7837L23.7088 21.6504C23.5547 22.4902 23.1871 23.1517 22.6038 23.6294C22.0568 24.0806 21.3975 24.3062 20.6414 24.3062C19.4967 24.3062 18.6074 23.921 18.0274 23.1583C17.5288 22.5144 17.2867 21.6625 17.2867 20.6092C17.2867 19.5703 17.5398 18.7096 18.0527 18.0525C18.6471 17.2777 19.5133 16.8935 20.6238 16.8935ZM28.9005 22.5585V24.1797H23.8299V23.8352C23.8299 23.0868 24.0643 22.4374 24.5354 21.8926C24.7885 21.591 25.2926 21.1772 26.0433 20.6467C26.4065 20.3858 26.6816 20.1525 26.8445 19.9764C27.0679 19.7177 27.1747 19.4514 27.1747 19.1773C27.1747 18.9154 27.1131 18.7393 27.0118 18.6402C26.9006 18.5368 26.7124 18.4784 26.4285 18.4784C26.1467 18.4784 25.9618 18.5654 25.8297 18.7514C25.6867 18.9385 25.5986 19.2599 25.5821 19.7056L25.5711 20.0369H23.8607L23.8651 19.6891C23.875 18.8824 24.1073 18.2209 24.5662 17.7168C25.0472 17.1698 25.6889 16.8935 26.4626 16.8935C27.1538 16.8935 27.7393 17.1049 28.2038 17.5297C28.6638 17.96 28.8939 18.5148 28.8939 19.1861C28.8939 19.8278 28.655 20.4155 28.1884 20.9482C27.9286 21.2344 27.4895 21.5833 26.8236 22.0445C26.59 22.1992 26.3682 22.371 26.1599 22.5585H28.9027H28.9005ZM32.352 16.8935C33.1709 16.8935 33.8654 17.1192 34.4036 17.5704C34.9253 18.0041 35.2423 18.605 35.3512 19.3435L35.4096 19.7387H33.7388L33.6728 19.4767C33.5869 19.1278 33.4383 18.8934 33.2193 18.7415C33.0058 18.5907 32.7174 18.5148 32.3344 18.5148C31.7775 18.5148 31.3923 18.6942 31.1237 19.0728C30.8651 19.4217 30.733 19.9291 30.733 20.6092C30.733 21.3037 30.8651 21.8232 31.1127 22.1611C31.3714 22.5067 31.7808 22.685 32.3608 22.685C32.7306 22.685 33.0289 22.5937 33.2435 22.4275C33.4802 22.2349 33.6552 21.9278 33.7619 21.503L33.828 21.2443H35.5119L35.4371 21.6504C35.283 22.4902 34.9154 23.1517 34.3321 23.6294C33.785 24.0806 33.1258 24.3062 32.3696 24.3062C31.225 24.3062 30.3357 23.921 29.7557 23.1583C29.2571 22.5144 29.0149 21.6625 29.0149 20.6092C29.0149 19.5703 29.2681 18.7096 29.781 18.0525C30.3753 17.2777 31.2415 16.8935 32.352 16.8935Z" fill="white"/>
<circle cx="12" cy="3" r="3" fill="#FF9C1A"/>
<circle cx="49" cy="41" r="11" fill="#02AD8F" fill-opacity="0.2"/>
</svg>
