<svg width="36" height="36" viewBox="0 0 36 36" fill="none" xmlns="http://www.w3.org/2000/svg">
<path d="M13.5914 8.04375L22.1941 17.0789L24.4934 14.6637L13.5914 8.04375ZM27.8859 16.7168L25.5867 15.3211L23.0555 17.9824L25.5867 20.6438L27.907 19.2375C28.2621 18.9387 28.4836 18.5133 28.4836 17.9824C28.4836 17.448 28.2305 17.0016 27.8859 16.7168ZM24.4934 21.3012L22.1941 18.8859L13.5914 27.9211L24.4934 21.3012ZM10.5012 27.0281C10.5012 27.6574 10.8457 28.1988 11.352 28.466L21.3328 17.9859L11.352 7.49883C10.8457 7.75547 10.5012 8.30742 10.5012 8.93672V27.0281ZM18 36C8.05781 36 0 27.9422 0 18C0 8.05781 8.05781 0 18 0C27.9422 0 36 8.05781 36 18C36 27.9422 27.9422 36 18 36Z" fill="#F24845"/>
</svg>
