<svg width="32" height="32" viewBox="0 0 32 32" fill="none" xmlns="http://www.w3.org/2000/svg">
<circle cx="16" cy="16" r="16" fill="#E6F4F2"/>
<mask id="mask0" mask-type="alpha" maskUnits="userSpaceOnUse" x="0" y="0" width="32" height="32">
<circle cx="16" cy="16" r="16" fill="#02AD8F"/>
</mask>
<g mask="url(#mask0)">
<path d="M16.5 23.0609C19.9787 23.0609 22.7984 20.1793 22.7984 16.6242C22.7984 13.0691 19.9787 10.1875 16.5 10.1875C13.0213 10.1875 10.2016 13.0691 10.2016 16.6242C10.2016 20.1793 13.0213 23.0609 16.5 23.0609ZM16.5 26.0647C10.7012 26.0647 6 27.9577 6 30.2906C6 32.6236 10.7012 34.5193 16.5 34.5193C22.2988 34.5193 27 32.6263 27 30.2933C27 27.9604 22.2988 26.0647 16.5 26.0647Z" fill="#02AD8F"/>
</g>
</svg>
