<svg width="26" height="26" viewBox="0 0 26 26" fill="none" xmlns="http://www.w3.org/2000/svg">
<path d="M0 13C0 16.4478 1.36964 19.7544 3.80761 22.1924C6.24558 24.6304 9.55219 26 13 26C16.4478 26 19.7544 24.6304 22.1924 22.1924C24.6304 19.7544 26 16.4478 26 13C26 9.55219 24.6304 6.24558 22.1924 3.80761C19.7544 1.36964 16.4478 0 13 0C9.55219 0 6.24558 1.36964 3.80761 3.80761C1.36964 6.24558 0 9.55219 0 13Z" fill="#CACACA"/>
<path d="M3.33691 12.9989C3.33691 15.5617 4.35497 18.0195 6.16713 19.8316C7.97928 21.6438 10.4371 22.6618 12.9999 22.6618C15.5626 22.6618 18.0204 21.6438 19.8326 19.8316C21.6448 18.0195 22.6628 15.5617 22.6628 12.9989C22.6628 10.4361 21.6448 7.9783 19.8326 6.16615C18.0204 4.354 15.5626 3.33594 12.9999 3.33594C10.4371 3.33594 7.97928 4.354 6.16713 6.16615C4.35497 7.9783 3.33691 10.4361 3.33691 12.9989Z" fill="#5E5E5E"/>
<path d="M22.4016 10.7616H13.0753V14.7109H18.1912C17.4744 16.8902 15.42 18.4658 12.9999 18.4658C9.982 18.4658 7.5358 16.0196 7.5358 13.0018C7.5358 9.98393 9.982 7.53482 12.9999 7.53482C14.2679 7.53482 15.4345 7.96719 16.3601 8.68973L19.4592 5.81116C17.7472 4.27321 15.4838 3.33594 12.9999 3.33594C7.66348 3.33594 3.33691 7.6625 3.33691 12.9989C3.33691 18.3353 7.66348 22.6618 12.9999 22.6618C18.3362 22.6618 22.6628 18.3353 22.6628 12.9989C22.6628 12.227 22.5729 11.4783 22.4016 10.7616Z" fill="#8D8D8D"/>
<path d="M12.1092 5.64085C12.1092 5.75784 12.1322 5.87368 12.177 5.98176C12.2218 6.08984 12.2874 6.18805 12.3701 6.27077C12.4529 6.3535 12.5511 6.41912 12.6591 6.46388C12.7672 6.50865 12.8831 6.5317 13.0001 6.5317C13.117 6.5317 13.2329 6.50865 13.341 6.46388C13.449 6.41912 13.5473 6.3535 13.63 6.27077C13.7127 6.18805 13.7783 6.08984 13.8231 5.98176C13.8679 5.87368 13.8909 5.75784 13.8909 5.64085C13.8909 5.52386 13.8679 5.40802 13.8231 5.29994C13.7783 5.19185 13.7127 5.09365 13.63 5.01092C13.5473 4.9282 13.449 4.86258 13.341 4.81781C13.2329 4.77304 13.117 4.75 13.0001 4.75C12.8831 4.75 12.7672 4.77304 12.6591 4.81781C12.5511 4.86258 12.4529 4.9282 12.3701 5.01092C12.2874 5.09365 12.2218 5.19185 12.177 5.29994C12.1322 5.40802 12.1092 5.52386 12.1092 5.64085ZM6.93242 7.77366C6.93242 8.00993 7.02628 8.23652 7.19335 8.40359C7.36041 8.57065 7.587 8.66451 7.82327 8.66451C8.05954 8.66451 8.28613 8.57065 8.45319 8.40359C8.62026 8.23652 8.71412 8.00993 8.71412 7.77366C8.71412 7.53739 8.62026 7.3108 8.45319 7.14374C8.28613 6.97667 8.05954 6.88281 7.82327 6.88281C7.587 6.88281 7.36041 6.97667 7.19335 7.14374C7.02628 7.3108 6.93242 7.53739 6.93242 7.77366ZM4.7793 12.9998C4.7793 13.1168 4.80234 13.2326 4.84711 13.3407C4.89188 13.4488 4.9575 13.547 5.04022 13.6297C5.12294 13.7124 5.22115 13.778 5.32923 13.8228C5.43731 13.8676 5.55316 13.8906 5.67014 13.8906C5.78713 13.8906 5.90298 13.8676 6.01106 13.8228C6.11914 13.778 6.21735 13.7124 6.30007 13.6297C6.38279 13.547 6.44841 13.4488 6.49318 13.3407C6.53795 13.2326 6.56099 13.1168 6.56099 12.9998C6.56099 12.7635 6.46714 12.5369 6.30007 12.3699C6.133 12.2028 5.90641 12.1089 5.67014 12.1089C5.43388 12.1089 5.20729 12.2028 5.04022 12.3699C4.87315 12.5369 4.7793 12.7635 4.7793 12.9998ZM6.93242 18.2114C6.93242 18.4476 7.02628 18.6742 7.19335 18.8413C7.36041 19.0084 7.587 19.1022 7.82327 19.1022C8.05954 19.1022 8.28613 19.0084 8.45319 18.8413C8.62026 18.6742 8.71412 18.4476 8.71412 18.2114C8.71412 17.9751 8.62026 17.7485 8.45319 17.5815C8.28613 17.4144 8.05954 17.3205 7.82327 17.3205C7.587 17.3205 7.36041 17.4144 7.19335 17.5815C7.02628 17.7485 6.93242 17.9751 6.93242 18.2114ZM12.1092 20.379C12.1092 20.496 12.1322 20.6118 12.177 20.7199C12.2218 20.828 12.2874 20.9262 12.3701 21.0089C12.4529 21.0917 12.5511 21.1573 12.6591 21.2021C12.7672 21.2468 12.8831 21.2699 13.0001 21.2699C13.117 21.2699 13.2329 21.2468 13.341 21.2021C13.449 21.1573 13.5473 21.0917 13.63 21.0089C13.7127 20.9262 13.7783 20.828 13.8231 20.7199C13.8679 20.6118 13.8909 20.496 13.8909 20.379C13.8909 20.262 13.8679 20.1462 13.8231 20.0381C13.7783 19.93 13.7127 19.8318 13.63 19.7491C13.5473 19.6664 13.449 19.6007 13.341 19.556C13.2329 19.5112 13.117 19.4882 13.0001 19.4882C12.8831 19.4882 12.7672 19.5112 12.6591 19.556C12.5511 19.6007 12.4529 19.6664 12.3701 19.7491C12.2874 19.8318 12.2218 19.93 12.177 20.0381C12.1322 20.1462 12.1092 20.262 12.1092 20.379ZM17.3324 18.2114C17.3324 18.4476 17.4263 18.6742 17.5933 18.8413C17.7604 19.0084 17.987 19.1022 18.2233 19.1022C18.4595 19.1022 18.6861 19.0084 18.8532 18.8413C19.0203 18.6742 19.1141 18.4476 19.1141 18.2114C19.1141 17.9751 19.0203 17.7485 18.8532 17.5815C18.6861 17.4144 18.4595 17.3205 18.2233 17.3205C17.987 17.3205 17.7604 17.4144 17.5933 17.5815C17.4263 17.7485 17.3324 17.9751 17.3324 18.2114ZM19.5204 12.9998C19.5204 13.236 19.6142 13.4626 19.7813 13.6297C19.9484 13.7968 20.1749 13.8906 20.4112 13.8906C20.6475 13.8906 20.8741 13.7968 21.0411 13.6297C21.2082 13.4626 21.3021 13.236 21.3021 12.9998C21.3021 12.7635 21.2082 12.5369 21.0411 12.3699C20.8741 12.2028 20.6475 12.1089 20.4112 12.1089C20.1749 12.1089 19.9484 12.2028 19.7813 12.3699C19.6142 12.5369 19.5204 12.7635 19.5204 12.9998Z" fill="#CACACA"/>
</svg>
