<svg width="73" height="73" viewBox="0 0 73 73" fill="none" xmlns="http://www.w3.org/2000/svg">
<path d="M48.9342 18.305C48.9342 16.8465 47.7674 15.6797 46.3088 15.6797H20.2739C18.8153 15.6797 17.6484 16.8465 17.6484 18.305C17.6484 19.7636 18.8153 20.9304 20.2739 20.9304H46.3817C47.7674 20.9304 48.9342 19.7636 48.9342 18.305Z" fill="black"/>
<path d="M7.21972 62.5707V10.5738C7.21972 7.65664 9.55337 5.32299 12.4704 5.32299H54.1847C57.1018 5.32299 59.4355 7.65671 59.4355 10.5009V26.2531H64.6863V10.5009C64.6863 4.73963 60.019 0.0722656 54.1847 0.0722656H12.4705C6.70929 0.0722656 1.96899 4.73956 1.96899 10.5738V62.5707C1.96892 68.332 6.63622 72.9993 12.4705 72.9993H22.6802V67.8215H12.4704C9.55337 67.8215 7.21972 65.4878 7.21972 62.5707Z" fill="black"/>
<path d="M67.3118 46.0171L71.031 42.2978L67.3118 38.6514L63.5925 34.9322L59.8732 31.2129L56.1539 34.9322L30.046 61.0401L29.4626 65.8532C28.9521 70.156 32.015 73.146 36.3178 72.6355L41.1309 72.052L67.3118 46.0172V46.0171ZM38.7243 67.166L35.6613 67.5306C34.7133 67.6765 34.4945 67.4577 34.6403 66.5096L35.005 63.4467L59.946 38.6515L63.6653 42.3708L38.7243 67.166ZM25.4516 46.9651H20.2009C18.7423 46.9651 17.5754 48.132 17.5754 49.5905C17.5754 51.049 18.7423 52.2159 20.2009 52.2159H25.4516C26.9102 52.2159 28.077 51.0491 28.077 49.5905C28.077 48.1319 26.9102 46.9651 25.4516 46.9651ZM20.2738 31.3587C18.8152 31.3587 17.6484 32.5256 17.6484 33.9841C17.6484 35.4426 18.8152 36.6095 20.2738 36.6095H41.1309C42.5895 36.6095 43.7563 35.4427 43.7563 33.9841C43.7563 32.5255 42.5896 31.3587 41.131 31.3587H20.2738Z" fill="#02AD8F"/>
</svg>
