<svg width="13" height="13" viewBox="0 0 13 13" fill="none" xmlns="http://www.w3.org/2000/svg">
<path d="M2.98769 1.78516H9.99297C10.4855 1.78516 10.9286 2.0835 11.1152 2.53926L12.0077 4.72158C12.1842 5.15195 12.0978 5.64453 11.7881 5.98984L7.46787 10.8115C6.99433 11.3396 6.17168 11.3511 5.68418 10.8356L1.11767 6.01523C0.778709 5.65723 0.689842 5.1291 0.892967 4.68096L1.8832 2.49736C2.07998 2.06318 2.51162 1.78516 2.98769 1.78516Z" fill="#FAB001"/>
<path d="M10.931 4.42705L10.0385 2.24473C9.96359 2.06318 9.84807 1.9083 9.70461 1.78516H2.98752C2.51144 1.78516 2.0798 2.06318 1.88303 2.49736L0.892791 4.68096C0.689666 5.13037 0.777264 5.65723 1.1175 6.01523L5.684 10.8356C5.70305 10.856 5.72336 10.8737 5.74367 10.8928C5.98488 10.8407 6.21213 10.715 6.38986 10.517L10.7113 5.69404C11.0211 5.34873 11.1074 4.85615 10.931 4.42705Z" fill="#F9E48A"/>
<path d="M10.2563 2.78125H3.835C3.35893 2.78125 2.92729 3.05928 2.73051 3.49346L1.74028 5.67705C1.59428 6.00078 1.60063 6.36387 1.74155 6.6749L5.68344 10.8364C5.70249 10.8567 5.7228 10.8745 5.74311 10.8936C5.98432 10.8415 6.21157 10.7158 6.3893 10.5178L10.7108 5.69482C11.0206 5.34824 11.1056 4.85566 10.9304 4.42656L10.2563 2.78125Z" fill="#FECE0A"/>
<path d="M8.50049 5.57432H4.27549C4.23867 5.57432 4.20947 5.54512 4.20947 5.5083V4.37461C4.20947 4.33779 4.23867 4.30859 4.27549 4.30859H8.49922C8.53604 4.30859 8.56523 4.33779 8.56523 4.37461V5.5083C8.5665 5.54512 8.5373 5.57432 8.50049 5.57432Z" fill="white"/>
</svg>
