<svg width="10" height="13" viewBox="0 0 10 13" fill="none" xmlns="http://www.w3.org/2000/svg">
<path d="M10 1.7467L9.5018 1.7407C9.4898 1.7407 8.37935 1.71669 7.23289 1.2485C6.05642 0.768307 5.30012 0.222089 5.29412 0.216086L5 0L4.69988 0.216086C4.69388 0.222089 3.93157 0.768307 2.7611 1.2485C1.61465 1.71669 0.504202 1.7407 0.498199 1.7407L0 1.7467V6.79472C0 9.32773 3.2533 12.0048 5 12.0048C6.7527 12.0048 10 9.32773 10 6.79472V1.7467ZM9.17767 6.82473C9.17767 8.87755 6.21248 11.2245 5 11.2245C3.78751 11.2245 0.816326 8.87755 0.816326 6.82473V2.55102C1.33854 2.497 2.17887 2.35294 3.04922 1.9988C3.72749 1.72269 4.37575 1.39256 4.994 1.0024C5.61224 1.39256 6.2605 1.72269 6.93878 1.9988C7.65306 2.28091 8.40936 2.46699 9.17167 2.55102V6.82473H9.17767Z" fill="#454545"/>
<path d="M6.75262 5.00064C6.75262 4.03425 5.96631 3.24794 4.99992 3.25394C4.22561 3.25394 3.54734 3.76414 3.32525 4.50244C3.04914 5.42681 3.57735 6.4052 4.50172 6.68131C4.49572 6.70532 4.49572 6.72933 4.49572 6.75334V8.25394C4.49572 8.53005 4.71781 8.75214 4.99392 8.75214C5.27003 8.75214 5.49212 8.53005 5.49212 8.25394V6.75334C5.49212 6.72933 5.49212 6.70532 5.48612 6.68131C6.24242 6.46522 6.75262 5.78095 6.75262 5.00064ZM4.99992 6.00304C4.4477 6.00304 3.99752 5.55286 3.99752 5.00064C3.99752 4.44842 4.4477 3.99824 4.99992 3.99824C5.55214 3.99824 6.00232 4.44842 6.00232 5.00064C6.00232 5.55286 5.55214 6.00304 4.99992 6.00304Z" fill="#02AD8F"/>
</svg>
