<svg xmlns="http://www.w3.org/2000/svg" fill="none" viewBox="0 0 80 80" class="design-iconfont">
  <path fill="#F0F0F0" d="M40 0A40 40 0 1 0 40 80A40 40 0 1 0 40 0Z"/>
  <path d="M29.0001 23.5H57.0001L53.9998 26L54 46C53.5002 51 55.5 61.5 48.9998 62C42.5687 62.4947 41.9997 56.3333 42.4998 53H24.0003C23.9998 46.5 24.0001 34.5 24 30C23.9999 25.5279 27.5001 23.8333 29.0001 23.5Z" fill="#fff"/>
  <path d="M56.6792 23.9023C56.9721 23.8646 57.2678 23.8542 57.5626 23.8712C60.7885 23.8336 61.121 27.154 61.121 27.154V33.9706H53.6025V27.3484C53.7282 24.7052 55.545 24.0468 56.6792 23.9023ZM48.1082 61.7601H21.5991C16.0296 59.9304 16.94 53.6149 16.94 53.6149H42.4993C42.4382 58.8578 43.7915 61.7395 48.1082 61.7583V61.7601Z" fill="#DFDFDF"/>
  <path d="M48.1102 62.6293H21.4614L21.3298 62.5847C16.3741 60.9559 15.7298 55.9244 16.0793 53.4874L16.1862 52.742H43.3842L43.3718 53.6189C43.3343 56.745 43.8106 58.7004 44.8691 59.7776C45.5957 60.5171 46.6547 60.8737 48.1085 60.8801C48.3211 60.8801 48.5472 60.8737 48.7804 60.8613C52.8028 60.6046 52.74 55.9931 52.7335 55.7987V27.3496C52.8903 23.8781 55.4666 23.1833 56.5679 23.0452C56.9086 23.003 57.2522 22.99 57.5952 23.0077H57.6205C60.753 23.0077 61.8496 25.6579 61.9935 27.0741L62 27.164V34.8516H54.4804V55.7905C54.5368 58.0084 53.4407 62.3251 48.9108 62.6135C48.6283 62.6229 48.3652 62.6293 48.1102 62.6293ZM21.7451 60.8872H43.524C42.3087 59.5714 41.7008 57.5162 41.6385 54.4841H17.7462C17.721 56.0507 18.0722 59.6026 21.7434 60.8872H21.7451ZM54.4721 33.1065H60.2549V27.2104C60.205 26.828 59.829 24.7463 57.6117 24.7463H57.53L57.4854 24.7398C57.2534 24.7263 57.0208 24.7345 56.7899 24.7651C55.3303 24.9531 54.5467 25.8365 54.478 27.3842L54.4721 33.1065Z" fill="#9C9C9C"/>
  <path d="M24.7754 53.4375H23.0332V29.7233C23.1836 27.6116 24.6561 23.4959 29.186 23.0319L29.2759 23.0254H57.5576V24.7728H29.324C25.2641 25.2175 24.8065 29.4032 24.7754 29.8231V53.4375Z" fill="#9C9C9C"/>
  <rect x="29.1426" y="34.8281" width="19.7143" height="1.70857" rx=".854286" fill="#9C9C9C"/>
  <rect x="29.1426" y="38.7715" width="19.7143" height="1.70857" rx=".854286" fill="#9C9C9C"/>
  <rect x="29.1426" y="42.7148" width="12.4857" height="1.70857" rx=".854286" fill="#9C9C9C"/>
</svg>
