<svg width="36" height="36" viewBox="0 0 36 36" fill="none" xmlns="http://www.w3.org/2000/svg">
<path d="M17.9997 36C27.9408 36 36 27.9408 36 17.9997C36 8.05856 27.9408 0 17.9991 0C8.05734 0 0 8.05856 0 17.9997C0 27.9408 8.05856 36 17.9997 36ZM12.2936 25.7628L11.5648 26.9767C11.3216 27.463 10.715 27.8272 10.1077 27.8272C9.86455 27.8272 9.50043 27.7056 9.25789 27.584C8.40808 27.0983 8.16494 26.1269 8.65063 25.2771L9.25789 24.1842C9.37946 23.941 9.62261 23.8195 9.86515 23.6979C10.3508 23.5769 10.8365 23.5769 11.4438 23.8195C11.9295 24.0626 12.172 24.3058 12.2936 24.6699C12.5368 25.1556 12.4152 25.5197 12.2936 25.7628ZM21.6433 23.3338C21.5217 23.4553 21.4001 23.4553 21.2792 23.4553H8.52905C7.67925 23.4553 6.95041 22.8481 6.82944 22.1199C6.70787 21.0269 7.4361 20.1771 8.52905 20.1771H11.8079L16.7864 11.5556L15.5719 9.36974C14.9652 8.51993 15.3287 7.54855 16.0582 7.06286C16.3007 6.94129 16.6648 6.81972 16.908 6.81972C17.5146 6.81972 18.0003 7.06286 18.365 7.67013L18.6082 8.15582L18.8507 7.66952C19.2154 7.18444 19.7005 6.81972 20.3078 6.81972C20.7935 6.81972 21.2792 7.06286 21.6433 7.54855C22.008 8.15582 22.008 8.88405 21.6433 9.49131L20.7935 10.8268L20.4288 11.4347L18.6076 14.8339L18.3644 15.3202L15.5719 20.1771H19.3364C20.0646 20.1771 20.7935 20.4202 21.4007 20.9053C22.3721 21.7557 22.129 22.7271 21.6439 23.3338H21.6433ZM28.8077 23.4553H27.4722L28.5645 25.2771C29.0508 26.1269 28.8077 27.0983 27.9579 27.584C27.7147 27.7056 27.35 27.8272 27.1074 27.8272C26.5008 27.8272 26.0151 27.584 25.6504 26.9767L23.8292 23.8201L23.586 23.4553L21.6433 20.1771L21.1576 19.3267L20.1862 17.7486C19.5789 16.7773 19.3364 15.5627 19.7005 14.4698C19.8221 13.8625 20.1868 13.2559 20.7935 12.7696C20.915 12.648 21.0366 12.7696 21.1582 12.8911L25.4072 20.2987H28.5645C29.4149 20.2987 30.1432 20.9053 30.2647 21.6342C30.6295 22.6055 29.9 23.4553 28.8077 23.4553Z" fill="#02AD8F"/>
</svg>
