<svg width="22" height="22" viewBox="0 0 22 22" fill="none" xmlns="http://www.w3.org/2000/svg">
<path d="M18.698 18.85C16.6455 20.8706 13.8802 22.0022 11 22C4.925 22 0 17.075 0 11C0 4.925 4.925 0 11 0C17.075 0 22 4.925 22 11C22.0012 12.4626 21.7097 13.9106 21.1426 15.2588C20.5755 16.607 19.7443 17.828 18.698 18.85ZM11 20.43C13.233 20.43 15.282 19.65 16.898 18.351C16.038 15.908 13.738 14.143 11 14.143C8.262 14.143 5.963 15.908 5.102 18.351C6.77242 19.698 8.8541 20.4318 11 20.43ZM11 1.573C5.793 1.573 1.571 5.795 1.571 11.001C1.571 13.355 2.439 15.501 3.864 17.153C4.49029 15.7865 5.4956 14.6285 6.76052 13.8165C8.02545 13.0045 9.49686 12.5725 11 12.572C12.503 12.5726 13.9743 13.0044 15.2392 13.8163C16.5041 14.6281 17.5095 15.7858 18.136 17.152C19.6163 15.4444 20.4305 13.2599 20.429 11C20.429 5.794 16.207 1.572 11 1.572V1.573ZM11 11.787C9.95809 11.787 8.95887 11.3731 8.22213 10.6364C7.48539 9.89963 7.0715 8.9004 7.0715 7.8585C7.0715 6.8166 7.48539 5.81737 8.22213 5.08063C8.95887 4.34389 9.95809 3.93 11 3.93C12.0419 3.93 13.0411 4.34389 13.7779 5.08063C14.5146 5.81737 14.9285 6.8166 14.9285 7.8585C14.9285 8.9004 14.5146 9.89963 13.7779 10.6364C13.0411 11.3731 12.0419 11.787 11 11.787ZM11 5.502C10.6865 5.49554 10.3748 5.55172 10.0832 5.66724C9.79165 5.78276 9.52608 5.95531 9.30205 6.17477C9.07803 6.39423 8.90005 6.6562 8.77854 6.94531C8.65704 7.23443 8.59445 7.54489 8.59445 7.8585C8.59445 8.17211 8.65704 8.48257 8.77854 8.77168C8.90005 9.0608 9.07803 9.32276 9.30205 9.54222C9.52608 9.76169 9.79165 9.93423 10.0832 10.0498C10.3748 10.1653 10.6865 10.2215 11 10.215C11.6166 10.2023 12.2036 9.94844 12.6352 9.5079C13.0667 9.06735 13.3085 8.47521 13.3085 7.8585C13.3085 7.24179 13.0667 6.64965 12.6352 6.2091C12.2036 5.76856 11.6166 5.5147 11 5.502Z" fill="#464646"/>
</svg>
