<svg width="22" height="26" viewBox="0 0 22 26" fill="none" xmlns="http://www.w3.org/2000/svg">
<path d="M20.9905 5.46154C20.9296 5.43361 20.8534 5.4006 20.4751 5.4006H16.8239V3.05958C16.8239 1.36094 15.4604 0 13.777 0H3.04689C1.37618 0 0 1.36856 0 3.05958V22.9405C0 24.6391 1.36348 26.0001 3.04689 26.0001H13.777C15.4477 26.0001 16.8239 24.6315 16.8239 22.9405V14.6479H20.4751C20.8534 14.6479 20.9296 14.6124 20.9905 14.587C21.3028 14.4473 21.3282 14.1198 21.3282 13.7948V6.25373C21.3282 5.93127 21.3028 5.60119 20.9905 5.46154ZM8.41194 24.5198C7.51565 24.5198 6.78948 23.8089 6.78948 22.9304C6.78948 22.0518 7.51565 21.3409 8.41194 21.3409C9.30824 21.3409 10.0344 22.0518 10.0344 22.9304C10.0344 23.8089 9.30824 24.5198 8.41194 24.5198ZM2.35626 19.853V3.07228H14.5133V5.40314H9.08987C8.71155 5.40314 8.63538 5.43615 8.57444 5.46408C8.26214 5.60373 8.23675 5.93127 8.23675 6.25627V13.7973C8.23675 14.1756 8.26975 14.2518 8.29768 14.3127C8.43733 14.6251 8.76487 14.6504 9.08987 14.6504H10.1639L10.0217 15.5213C9.98871 15.7295 10.0369 15.9276 10.1639 16.0774C10.2832 16.217 10.4584 16.2983 10.6463 16.2983C10.7327 16.2983 10.8215 16.2831 10.9078 16.2501L14.5159 14.8866V19.8581H2.35626V19.853ZM20.3176 13.6374H15.3106C15.0999 13.6374 14.8053 13.6907 14.6098 13.7643L11.1186 15.0821L11.2151 14.4879C11.2506 14.2721 11.1922 14.0538 11.0526 13.8913C10.9155 13.7288 10.7098 13.6348 10.4889 13.6348H9.2473V6.41116H20.3151V13.6374H20.3176Z" fill="#5E5E5E"/>
<path d="M13.2871 12.0178C13.2896 12.0203 13.2896 12.0228 13.2922 12.0254L13.6324 12.4646C13.7238 12.5814 13.8939 12.6043 14.0107 12.5129L18.4744 9.04704C18.5912 8.95564 18.6141 8.78552 18.5226 8.66872L18.1824 8.22946C18.091 8.11266 17.9209 8.08981 17.8041 8.18122L13.9929 11.1418L12.6701 9.43806C12.5787 9.32126 12.4086 9.29841 12.2918 9.38982L11.8525 9.73005C11.7357 9.82146 11.7129 9.99158 11.8043 10.1084L13.2871 12.0178Z" fill="#5E5E5E"/>
</svg>
