<svg width="21" height="16" viewBox="0 0 21 16" fill="none" xmlns="http://www.w3.org/2000/svg">
<path d="M1.1232 10.2099V2.02868L5.80084 6.06298L1.1232 10.2099ZM16.1671 1.06487L10.1773 6.28647C9.65438 6.7443 9.26743 6.97253 9.01851 6.97253C8.76959 6.97253 8.38264 6.74565 7.85868 6.28647L1.86997 1.06487H16.1671ZM10.624 10.9621H1.90931L6.6039 6.86265L7.37305 7.52701C7.81968 7.91125 8.37145 8.10794 9.01851 8.10794C9.6693 8.10794 10.216 7.91125 10.6653 7.52701L11.4345 6.86265L12.1239 7.46461C12.3843 7.1893 12.6723 6.94145 12.9833 6.72497L12.2372 6.06298L16.9159 2.02868V5.80083C17.3038 5.85306 17.6789 5.93988 18.0374 6.06671V1.48539C18.037 0.665375 17.3635 0 16.5282 0H1.50913C0.676227 0 0 0.665375 0 1.48539V10.5405C0 11.3599 0.676227 12.0252 1.50879 12.0252H10.6738C10.6372 11.7689 10.5945 11.5125 10.5945 11.2452C10.5945 11.1486 10.6189 11.0587 10.624 10.9621ZM16.0263 13.513C15.9166 13.6204 15.7692 13.6806 15.6156 13.6806C15.4621 13.6806 15.3147 13.6204 15.2049 13.513L13.3546 11.7004C13.3007 11.648 13.2579 11.5854 13.2286 11.5162C13.1994 11.447 13.1843 11.3726 13.1843 11.2975C13.1843 11.2223 13.1994 11.148 13.2286 11.0788C13.2579 11.0096 13.3007 10.9469 13.3546 10.8946C13.4644 10.7872 13.6118 10.727 13.7653 10.727C13.9189 10.727 14.0663 10.7872 14.176 10.8946L15.6139 12.3047L18.3897 9.58486C18.4994 9.47734 18.6469 9.41712 18.8006 9.41712C18.9542 9.41712 19.1017 9.47734 19.2114 9.58486C19.4387 9.80834 19.4387 10.1671 19.2114 10.3906L16.0267 13.513H16.0263ZM16.045 6.56625C13.666 6.56625 11.738 8.47047 11.738 10.8274C11.738 13.1847 13.6683 15.0964 16.045 15.0964C18.4216 15.0964 20.3479 13.1861 20.3479 10.8312C20.3479 8.47658 18.4216 6.56625 16.045 6.56625Z" fill="#5E5E5E"/>
</svg>
