<svg width="14" height="15" viewBox="0 0 14 15" fill="none" xmlns="http://www.w3.org/2000/svg">
<path d="M6.63002 15C6.63002 15 0 10.2919 0 6.63002C0 2.96818 2.96818 0 6.63002 0C10.2919 0 13.26 2.96818 13.26 6.63002C13.26 10.2919 6.63002 15 6.63002 15ZM7.14757 13.5605C7.91888 12.9442 8.65839 12.2892 9.36324 11.598C10.5281 10.4489 11.4248 9.33341 11.9444 8.31901C12.2676 7.68792 12.4313 7.11981 12.4313 6.63002C12.4313 3.42606 9.83397 0.828752 6.63002 0.828752C3.42606 0.828752 0.828752 3.42606 0.828752 6.63002C0.828752 7.11981 0.992431 7.68792 1.31564 8.31901C1.83527 9.33341 2.73198 10.4489 3.89721 11.598C4.60192 12.2892 5.3413 12.9442 6.11246 13.5605C6.29479 13.7067 6.468 13.8422 6.63002 13.9665C6.79162 13.8422 6.96525 13.7067 7.14757 13.5605ZM6.63002 8.28752C5.97062 8.28752 5.33823 8.02558 4.87197 7.55931C4.4057 7.09305 4.14376 6.46066 4.14376 5.80127C4.14376 5.14187 4.4057 4.50948 4.87197 4.04322C5.33823 3.57695 5.97062 3.31501 6.63002 3.31501C7.28941 3.31501 7.9218 3.57695 8.38807 4.04322C8.85433 4.50948 9.11627 5.14187 9.11627 5.80127C9.11627 6.46066 8.85433 7.09305 8.38807 7.55931C7.9218 8.02558 7.28941 8.28752 6.63002 8.28752ZM6.63002 7.45877C6.8477 7.45879 7.06325 7.41593 7.26437 7.33264C7.46548 7.24936 7.64822 7.12727 7.80215 6.97335C7.95608 6.81944 8.07819 6.63671 8.16149 6.4356C8.2448 6.23449 8.28768 6.01895 8.28768 5.80127C8.28768 5.58359 8.2448 5.36804 8.16149 5.16693C8.07819 4.96582 7.95608 4.78309 7.80215 4.62918C7.64822 4.47526 7.46548 4.35317 7.26437 4.26989C7.06325 4.1866 6.8477 4.14374 6.63002 4.14376C6.19045 4.1438 5.7689 4.31845 5.45809 4.62929C5.14728 4.94013 4.97267 5.3617 4.97267 5.80127C4.97267 6.24084 5.14728 6.6624 5.45809 6.97324C5.7689 7.28408 6.19045 7.45873 6.63002 7.45877Z" fill="#464646"/>
</svg>
