<svg width="14" height="14" viewBox="0 0 14 14" fill="none" xmlns="http://www.w3.org/2000/svg">
<path d="M3.96611 3.97656C3.65311 3.97656 3.33911 4.18456 3.33911 4.49956C3.33911 4.81056 3.65311 5.01956 3.96611 5.01956C4.27811 5.01956 4.48511 4.81056 4.48511 4.49956C4.48511 4.18456 4.27711 3.97656 3.96611 3.97656ZM8.23111 6.99856C8.02411 6.99856 7.81511 7.20756 7.81511 7.41256C7.81511 7.62456 8.02411 7.82956 8.23111 7.82956C8.54611 7.82956 8.75211 7.62556 8.75211 7.41256C8.75311 7.20756 8.54711 6.99856 8.23111 6.99856Z" fill="#61BA46"/>
<path d="M14 2.131C14 1.85107 13.9448 1.57388 13.8377 1.31527C13.7305 1.05666 13.5735 0.821697 13.3755 0.623802C13.1775 0.425907 12.9425 0.26896 12.6838 0.161926C12.4251 0.0548919 12.1479 -0.000131127 11.868 2.34653e-07H2.132C1.56673 1.72473e-07 1.0246 0.224484 0.624802 0.624095C0.225003 1.02371 0.000265135 1.56573 0 2.131V11.867C0 13.047 0.955 14 2.132 14H11.868C12.1481 14.0003 12.4256 13.9453 12.6844 13.8382C12.9433 13.731 13.1785 13.5739 13.3765 13.3758C13.5745 13.1777 13.7315 12.9424 13.8385 12.6835C13.9455 12.4246 14.0004 12.1471 14 11.867V2.131ZM5.317 9.29C4.797 9.29 4.38 9.184 3.859 9.081L2.405 9.811L2.821 8.559C1.779 7.83 1.156 6.894 1.156 5.749C1.156 3.77 3.029 2.21 5.317 2.21C7.364 2.21 9.157 3.456 9.517 5.134C9.38316 5.11928 9.24864 5.1116 9.114 5.111C7.138 5.111 5.578 6.584 5.578 8.402C5.578 8.706 5.624 8.998 5.706 9.274C5.57656 9.28389 5.44681 9.28922 5.317 9.29ZM11.457 10.75L11.77 11.788L10.626 11.165C10.211 11.268 9.792 11.37 9.379 11.37C7.399 11.37 5.839 10.016 5.839 8.352C5.839 6.688 7.399 5.331 9.379 5.331C11.248 5.331 12.913 6.689 12.913 8.352C12.914 9.29 12.292 10.123 11.457 10.75Z" fill="#61BA46"/>
<path d="M10.5192 6.99856C10.3152 6.99856 10.1072 7.20756 10.1072 7.41256C10.1072 7.62456 10.3152 7.82956 10.5192 7.82956C10.8322 7.82956 11.0412 7.62556 11.0412 7.41256C11.0422 7.20756 10.8332 6.99856 10.5192 6.99856ZM6.87817 5.01956C7.19117 5.01956 7.40017 4.81056 7.40017 4.49956C7.40017 4.18456 7.19217 3.97656 6.87817 3.97656C6.56617 3.97656 6.25317 4.18456 6.25317 4.49956C6.25317 4.81056 6.56617 5.01956 6.87817 5.01956Z" fill="#61BA46"/>
</svg>
