<svg width="10" height="10" viewBox="0 0 10 10" fill="none" xmlns="http://www.w3.org/2000/svg">
<path d="M9.83832 5.57373V8.20382C9.83729 8.63956 9.66396 9.0572 9.35615 9.36561C9.04835 9.67403 8.63106 9.84819 8.19533 9.85009H1.64496C1.20906 9.84888 0.79136 9.67519 0.483132 9.36696C0.174905 9.05873 0.00120915 8.64103 0 8.20513V1.64756C0.00103481 1.21178 0.174474 0.794109 0.482438 0.485778C0.790401 0.177446 1.20786 0.00350828 1.64365 0.00195312H4.91916C5.02133 0.00195313 5.11931 0.0425386 5.19155 0.114781C5.26379 0.187024 5.30438 0.285006 5.30438 0.387173C5.30438 0.489339 5.26379 0.587321 5.19155 0.659564C5.11931 0.731807 5.02133 0.772392 4.91916 0.772392H1.64561C1.16384 0.772392 0.771748 1.16514 0.771748 1.64822V8.20317C0.771748 8.6869 1.16384 9.079 1.64561 9.079H8.19336C8.67644 9.079 9.06853 8.68625 9.06853 8.20317V5.57373C9.06853 5.47165 9.10909 5.37375 9.18127 5.30157C9.25345 5.22939 9.35135 5.18884 9.45343 5.18884C9.55551 5.18884 9.65341 5.22939 9.72559 5.30157C9.79777 5.37375 9.83832 5.47165 9.83832 5.57373ZM9.76566 1.82365C9.77875 1.84656 9.7853 1.86685 9.79184 1.8891C9.7853 1.86947 9.77875 1.84656 9.76566 1.82365Z" fill="#838383"/>
<path d="M9.76562 1.82227C9.77872 1.84518 9.78526 1.86547 9.79181 1.88772C9.78526 1.86809 9.77872 1.84518 9.76562 1.82227Z" fill="#838383"/>
<path d="M9.8368 1.86633C9.83672 1.8554 9.83606 1.84447 9.83484 1.8336V1.82837L9.83353 1.82051L9.83287 1.81397L9.83025 1.80087L9.82894 1.79695L9.82567 1.78386C9.82567 1.78255 9.82567 1.78124 9.82436 1.77993L9.82109 1.76618V1.76356C9.81978 1.75898 9.81716 1.7544 9.81585 1.74851C9.81389 1.74196 9.81258 1.73738 9.80996 1.7328L9.80211 1.71316C9.79438 1.69686 9.78518 1.68131 9.77461 1.66669L9.76872 1.65687L9.75825 1.64312C9.75505 1.63853 9.75155 1.63416 9.74778 1.63003L9.74123 1.62348L8.4648 0.134971C8.43192 0.096504 8.39179 0.0648895 8.34669 0.0419329C8.30159 0.0189763 8.25241 0.00512719 8.20196 0.00117628C8.15151 -0.00277463 8.10078 0.00325003 8.05266 0.0189063C8.00454 0.0345625 7.95997 0.0595438 7.9215 0.0924237C7.84381 0.158828 7.79569 0.253373 7.78771 0.355262C7.77973 0.45715 7.81255 0.558036 7.87895 0.635724L8.63696 1.52137C6.74522 1.64312 5.30646 2.23879 4.35601 3.292C2.97027 4.82699 3.15813 6.76127 3.16599 6.84244C3.18628 7.03881 3.35058 7.18609 3.54761 7.18609H3.54892C3.5607 7.18609 3.5751 7.18609 3.58884 7.18478C3.69009 7.17357 3.78282 7.12287 3.84691 7.0437C3.911 6.96454 3.94129 6.86329 3.93119 6.76193C3.92988 6.74556 3.77802 5.07508 4.93269 3.80258C5.7411 2.90973 6.99462 2.40309 8.66641 2.29181L7.86324 3.3627C7.82021 3.41992 7.79396 3.488 7.78744 3.55931C7.78092 3.63061 7.79438 3.70232 7.82632 3.7664C7.85826 3.83049 7.90742 3.88441 7.96828 3.92213C8.02913 3.95985 8.0993 3.97988 8.1709 3.97997H8.17155C8.23118 3.97954 8.28991 3.96546 8.34324 3.93879C8.39658 3.91212 8.44309 3.87359 8.4792 3.82614L9.75956 2.11704L9.76087 2.11442C9.76278 2.11118 9.76497 2.10811 9.76741 2.10525L9.77396 2.09674L9.78051 2.08627L9.78509 2.07972C9.7864 2.07645 9.78901 2.07449 9.79032 2.07056L9.79098 2.0686L9.79752 2.05812L9.80407 2.04241L9.81127 2.02605L9.8152 2.01623L9.82174 1.99659C9.82404 1.99088 9.82579 1.98496 9.82698 1.97892L9.83025 1.96583C9.83156 1.96125 9.83287 1.95732 9.83287 1.95274L9.83484 1.93964C9.83614 1.93506 9.83614 1.93048 9.83614 1.92655L9.83745 1.91608L9.83876 1.89644C9.83876 1.88401 9.83876 1.87615 9.83745 1.86633H9.8368ZM9.7661 1.82248C9.7792 1.84539 9.78574 1.86568 9.79229 1.88793C9.78574 1.8683 9.7792 1.84539 9.7661 1.82248Z" fill="#838383"/>
<path d="M9.7793 1.82227C9.80548 1.86809 9.81857 1.90802 9.83166 1.95318C9.81857 1.9126 9.80548 1.86809 9.7793 1.82227ZM9.97371 1.84518C9.9868 1.88772 9.99989 1.92962 9.99989 1.97609C9.99751 1.93142 9.98869 1.88733 9.97371 1.84518Z" fill="#838383"/>
</svg>
