<svg width="36" height="36" viewBox="0 0 36 36" fill="none" xmlns="http://www.w3.org/2000/svg">
<circle cx="18" cy="18" r="18" fill="white"/>
<path d="M23.6147 12.0117H19.0123L20.082 10.9419C20.1845 10.8384 20.2418 10.6986 20.2414 10.5529C20.241 10.4073 20.1829 10.2677 20.0799 10.1648C19.9768 10.0619 19.8372 10.0039 19.6916 10.0037C19.546 10.0034 19.4062 10.0608 19.3028 10.1634L18 11.4673L16.6958 10.1634C16.6448 10.1118 16.5841 10.0708 16.5171 10.0428C16.4502 10.0147 16.3784 10.0002 16.3059 10C16.2333 9.9998 16.1615 10.0139 16.0944 10.0416C16.0273 10.0693 15.9664 10.1099 15.9151 10.1612C15.8638 10.2125 15.8231 10.2735 15.7955 10.3405C15.7678 10.4076 15.7536 10.4795 15.7538 10.552C15.754 10.6246 15.7686 10.6964 15.7966 10.7633C15.8247 10.8302 15.8657 10.8909 15.9172 10.9419L16.987 12.0117H12.3853C11.7529 12.0124 11.1466 12.2639 10.6994 12.7111C10.2523 13.1583 10.0007 13.7646 10 14.397V15.7806C10.0004 16.1698 10.1552 16.5429 10.4304 16.8181C10.7056 17.0933 11.0787 17.2481 11.4679 17.2485H24.5321C24.9213 17.2481 25.2944 17.0933 25.5696 16.8181C25.8448 16.5429 25.9996 16.1698 26 15.7806V14.397C25.9993 13.7646 25.7477 13.1583 25.3006 12.7111C24.8534 12.2639 24.2471 12.0124 23.6147 12.0117V12.0117ZM24.8991 15.7806C24.8978 15.8776 24.8587 15.9702 24.7902 16.0387C24.7216 16.1073 24.629 16.1463 24.5321 16.1476H11.4679C11.3706 16.1476 11.2772 16.109 11.2084 16.0401C11.1396 15.9713 11.1009 15.878 11.1009 15.7806V14.397C11.1013 14.0565 11.2368 13.73 11.4775 13.4892C11.7183 13.2484 12.0448 13.113 12.3853 13.1126H23.6147C23.9552 13.113 24.2817 13.2484 24.5225 13.4892C24.7632 13.73 24.8987 14.0565 24.8991 14.397V15.7806ZM24.5473 17.5928C24.4751 17.5928 24.4035 17.607 24.3367 17.6347C24.2699 17.6623 24.2092 17.7029 24.1581 17.754C24.107 17.8051 24.0664 17.8658 24.0388 17.9326C24.0111 17.9994 23.9969 18.0709 23.9969 18.1432V23.772C23.9962 24.1636 23.8404 24.5389 23.5635 24.8156C23.2865 25.0924 22.9112 25.2481 22.5196 25.2485H13.4798C13.0882 25.2481 12.7127 25.0923 12.4357 24.8154C12.1588 24.5384 12.003 24.1629 12.0026 23.7713V18.1432C12.0026 17.9972 11.9446 17.8572 11.8413 17.754C11.7381 17.6508 11.5981 17.5928 11.4521 17.5928C11.3061 17.5928 11.1661 17.6508 11.0629 17.754C10.9596 17.8572 10.9017 17.9972 10.9017 18.1432V23.772C10.9017 25.1937 12.0576 26.3502 13.4798 26.3502H22.5196C23.9413 26.3502 25.0978 25.1942 25.0978 23.772V18.1432C25.0978 18.0709 25.0836 17.9994 25.0559 17.9326C25.0282 17.8658 24.9877 17.8051 24.9366 17.754C24.8855 17.7029 24.8248 17.6623 24.758 17.6347C24.6912 17.607 24.6196 17.5928 24.5473 17.5928V17.5928Z" fill="#222E4B"/>
<path d="M18.4498 23.8689V18.7555C18.4498 18.6095 18.3918 18.4695 18.2886 18.3663C18.1853 18.2631 18.0453 18.2051 17.8993 18.2051C17.7533 18.2051 17.6133 18.2631 17.5101 18.3663C17.4069 18.4695 17.3489 18.6095 17.3489 18.7555V23.8689C17.3489 24.0149 17.4069 24.1549 17.5101 24.2582C17.6133 24.3614 17.7533 24.4194 17.8993 24.4194C18.0453 24.4194 18.1853 24.3614 18.2886 24.2582C18.3918 24.1549 18.4498 24.0149 18.4498 23.8689Z" fill="#222E4B"/>
</svg>
