<svg width="36" height="36" viewBox="0 0 36 36" fill="none" xmlns="http://www.w3.org/2000/svg">
<circle cx="18" cy="18" r="18" fill="white"/>
<g clip-path="url(#clip0)">
<path d="M25.4758 16.6249C25.3225 16.5342 25.1477 16.4863 24.9696 16.4863C24.7914 16.4863 24.6166 16.5342 24.4633 16.6249L19.3727 19.9437C19.1043 20.1211 18.7897 20.2157 18.468 20.2157C18.1463 20.2157 17.8317 20.1211 17.5633 19.9437L12.5289 16.6718C12.3789 16.5721 12.2045 16.5151 12.0245 16.5068C11.8445 16.4985 11.6656 16.5394 11.5071 16.6249C11.3484 16.707 11.2164 16.8326 11.1268 16.987C11.0371 17.1415 10.9934 17.3184 11.0008 17.4968V23.6374C11.0033 24.0361 11.1634 24.4176 11.4462 24.6987C11.729 24.9797 12.1115 25.1375 12.5102 25.1374H24.4727C24.6717 25.1399 24.8692 25.103 25.0539 25.0289C25.2386 24.9547 25.4068 24.8448 25.5488 24.7053C25.6908 24.5659 25.8039 24.3998 25.8815 24.2165C25.959 24.0333 25.9996 23.8365 26.0008 23.6374V17.4968C26.0065 17.3164 25.9601 17.1381 25.8669 16.9834C25.7738 16.8288 25.638 16.7043 25.4758 16.6249V16.6249ZM25.0633 23.4406C25.0633 23.7593 24.8008 24.1999 24.4727 24.1999H12.7821C12.4539 24.1999 11.9383 23.7593 11.9383 23.4406V17.5624L17.0852 20.9374C17.5045 21.2075 17.9927 21.3512 18.4914 21.3512C18.9902 21.3512 19.4784 21.2075 19.8977 20.9374L25.0633 17.5624V23.4406Z" fill="#222E4B"/>
<path d="M13.6537 16.5698C13.7526 16.5711 13.8487 16.5367 13.9244 16.4731C14.0002 16.4094 14.0505 16.3206 14.0662 16.2229V13.4761C14.0687 13.2962 14.1419 13.1245 14.2699 12.9982C14.398 12.8719 14.5707 12.8011 14.7506 12.8011H22.2506C22.3405 12.7998 22.4297 12.8163 22.5132 12.8496C22.5967 12.8828 22.6729 12.9322 22.7373 12.9949C22.8017 13.0575 22.8531 13.1323 22.8887 13.2149C22.9242 13.2974 22.9431 13.3862 22.9443 13.4761V16.2136C22.9443 16.4104 23.2162 16.5604 23.4037 16.5604C23.5912 16.5604 23.8631 16.4011 23.8631 16.2136V13.2417C23.8619 13.0579 23.8242 12.8761 23.7521 12.707C23.6801 12.5379 23.5752 12.3848 23.4435 12.2566C23.3118 12.1284 23.1559 12.0276 22.9849 11.9601C22.8139 11.8927 22.6312 11.8598 22.4475 11.8636H14.535C14.1686 11.8636 13.8171 12.0085 13.5572 12.2666C13.2972 12.5248 13.1499 12.8753 13.1475 13.2417V16.2136C13.1591 16.3113 13.207 16.4011 13.2816 16.4653C13.3562 16.5296 13.4522 16.5635 13.5506 16.5604L13.6537 16.5698Z" fill="#222E4B"/>
<path d="M16.7383 15.3887H19.8414C20.1539 15.3887 20.3102 15.5449 20.3102 15.8574C20.3102 16.1699 20.1539 16.3262 19.8414 16.3262H16.7383C16.4258 16.3262 16.2695 16.1699 16.2695 15.8574C16.2695 15.5449 16.4258 15.3887 16.7383 15.3887Z" fill="#222E4B"/>
<path d="M18.7539 14.3086V17.4117C18.7539 17.7242 18.5977 17.8805 18.2852 17.8805C17.9727 17.8805 17.8164 17.7242 17.8164 17.4117V14.3086C17.8164 13.9961 17.9727 13.8398 18.2852 13.8398C18.5977 13.8398 18.7539 13.9961 18.7539 14.3086Z" fill="#222E4B"/>
</g>
<defs>
<clipPath id="clip0">
<rect width="15" height="15" fill="white" transform="translate(11 11)"/>
</clipPath>
</defs>
</svg>
