<svg width="36" height="36" viewBox="0 0 36 36" fill="none" xmlns="http://www.w3.org/2000/svg">
<circle cx="18" cy="18" r="18" fill="white"/>
<path d="M22.3976 21.3199C22.8397 21.3199 23.1975 20.9614 23.1975 20.5201C23.1975 20.2653 23.0786 20.0388 22.8934 19.8924L22.8975 19.8873C22.282 19.4109 21.5978 19.0203 20.8589 18.7375C21.7993 17.9307 22.3976 16.7356 22.3976 15.3991C22.3976 12.9699 20.4277 11 17.9985 11C15.5692 11 13.5993 12.9699 13.5993 15.3991C13.5993 16.7356 14.1976 17.9307 15.1381 18.7375C12.1371 19.8889 10.0016 22.7907 10 26.1987V26.2002C10.0016 26.6407 10.3593 26.9985 10.7999 26.9985C11.242 26.9985 11.5982 26.6407 11.5997 26.2002C11.5997 22.672 14.4711 19.8014 17.9985 19.8014C19.4449 19.8014 20.7764 20.2893 21.8484 21.1012C21.9916 21.2366 22.1848 21.3199 22.3976 21.3199H22.3976ZM17.9984 18.1986C16.455 18.1986 15.199 16.9426 15.199 15.3991C15.199 13.8557 16.455 12.5997 17.9984 12.5997C19.5419 12.5997 20.7979 13.8557 20.7979 15.3991C20.7979 16.9426 19.5419 18.1986 17.9984 18.1986ZM25.4486 24.0006H24.2488V22.8008C24.2489 22.4697 23.9801 22.2009 23.649 22.2009C23.317 22.2009 23.0491 22.4696 23.0491 22.8008V24.0006H21.8493C21.5174 24.0006 21.2494 24.2693 21.2494 24.6005C21.2494 24.9317 21.5174 25.2004 21.8493 25.2004H23.0491V26.4002C23.0491 26.7314 23.317 27 23.649 27C23.9802 27 24.2488 26.7314 24.2488 26.4002V25.2004H25.4486C25.7798 25.2004 26.0485 24.9317 26.0485 24.6005C26.0485 24.2693 25.7798 24.0006 25.4486 24.0006H25.4486Z" fill="#222E4B"/>
</svg>
