<svg width="30" height="30" viewBox="0 0 30 30" fill="none" xmlns="http://www.w3.org/2000/svg">
<path d="M5.20332 16.8594C5.20332 16.8594 11.4463 22.6614 15.1033 22.6614C18.7603 22.6614 25.0033 16.8594 25.0033 16.8594C25.0033 16.8594 27.4738 21.8634 15.1033 27.5484C3.38682 21.9159 5.20332 16.8594 5.20332 16.8594V16.8594Z" fill="#02AD8F"/>
<path d="M25.0517 5.20217C24.9977 5.19917 19.6187 4.87517 15.6557 1.79117C15.4903 1.66258 15.2852 1.59567 15.0758 1.60197C14.8663 1.60827 14.6656 1.68737 14.5082 1.82567C10.7792 5.11367 5.25171 5.20067 5.19771 5.20067C4.70271 5.20367 4.30371 5.60567 4.30371 6.10067V18.3242C4.30371 22.8392 13.6262 27.7967 14.6897 28.3472C14.8187 28.4147 14.9612 28.4477 15.1037 28.4477C15.2357 28.4477 15.3677 28.4192 15.4907 28.3607C15.5942 28.3112 18.0632 27.1322 20.5727 25.3667C24.1112 22.8782 25.9052 20.5082 25.9052 18.3242V6.10067C25.9048 5.87018 25.8161 5.64862 25.6573 5.48151C25.4986 5.3144 25.2819 5.21444 25.0517 5.20217V5.20217ZM24.1037 18.3242C24.1037 21.4052 17.9612 25.1177 15.1187 26.5382C11.4722 24.5822 6.10371 20.8187 6.10371 18.3242V6.95267C7.86921 6.80117 11.8922 6.18317 15.1367 3.64367C18.4802 5.98967 22.4027 6.70817 24.1037 6.91817V18.3242Z" fill="black"/>
<g clip-path="url(#clip0)">
<path d="M15.1807 9.69859C15.3945 9.42271 15.6228 9.15841 15.8647 8.90682C16.0249 8.73671 16.2185 8.60144 16.4333 8.50942C16.6481 8.4174 16.8795 8.37061 17.1132 8.37198C17.5915 8.37198 18.0466 8.56696 18.3612 8.90682C19.3994 9.88 20.4323 10.8589 21.4598 11.8434C21.8019 12.1417 21.9974 12.5597 22.0001 12.9987C21.9999 13.2185 21.9527 13.4357 21.8618 13.6358C21.7708 13.8358 21.6382 14.0142 21.4728 14.1589C19.7187 15.8386 17.9557 17.5089 16.1836 19.1696C16.0242 19.3271 15.8353 19.4517 15.6277 19.536C15.4201 19.6204 15.1979 19.663 14.9738 19.6614C14.7497 19.662 14.5277 19.6183 14.3206 19.5328C14.1134 19.4473 13.9252 19.3217 13.7668 19.1631C12.0129 17.5218 10.2698 15.8691 8.53737 14.2052C8.37086 14.0611 8.2373 13.8829 8.14576 13.6826C8.05422 13.4823 8.00684 13.2647 8.00684 13.0445C8.00957 12.8243 8.05955 12.6072 8.1534 12.408C8.24725 12.2088 8.38278 12.032 8.55084 11.8897C9.61071 10.8633 10.6815 9.84832 11.7631 8.84488C11.9268 8.68266 12.1212 8.55478 12.3349 8.46875C12.5487 8.38273 12.7775 8.34031 13.0079 8.34397C13.4792 8.34935 13.9262 8.54056 14.2397 8.87235C14.5042 9.12011 14.7282 9.40666 14.9701 9.67543L15.1807 9.69859V9.69859ZM14.3943 10.3158C14.0533 10.0433 13.7663 9.81708 13.484 9.58494C13.4182 9.51839 13.3395 9.46593 13.2527 9.43075C13.166 9.39556 13.0729 9.37839 12.9793 9.38027C12.8858 9.381 12.7935 9.40082 12.7079 9.43851C12.6223 9.47621 12.5453 9.53098 12.4817 9.59948C11.4328 10.5807 10.3902 11.5685 9.35391 12.5629C8.99304 12.9098 9.00489 13.1942 9.3593 13.5605C9.51281 13.7183 9.67978 13.8669 9.84029 14.0204L14.3614 18.3035C14.7255 18.6477 15.0654 18.7037 15.3913 18.4807C15.5749 18.3547 15.7527 18.2216 15.9326 18.0918L15.9471 17.9022C15.6514 17.6663 15.3439 17.4433 15.0643 17.1907C14.7336 16.8902 14.7158 16.6435 14.9636 16.4022C15.2114 16.1604 15.4909 16.1738 15.8017 16.4728C16.0732 16.7345 16.3128 17.0248 16.6274 17.3685L17.2349 16.7313C16.8951 16.4367 16.5649 16.1798 16.2697 15.8889C15.9751 15.5986 16.0354 15.2032 16.4189 15.0907C16.6425 15.0535 16.8725 15.1058 17.054 15.2345C17.3561 15.4747 17.6416 15.7332 17.9077 16.0085L19.0264 14.9711L16.2665 12.355C16.1663 12.4434 16.0225 12.5732 15.8766 12.7024C15.1634 13.3267 14.0894 13.4097 13.2777 12.9039C12.6201 12.4886 12.5668 12.0276 13.1237 11.4986C13.5088 11.1329 13.902 10.7731 14.3954 10.3164L14.3943 10.3158ZM14.0156 12.1342C14.2163 12.2115 14.4347 12.2306 14.6457 12.1894C14.8568 12.1481 15.0519 12.0482 15.2087 11.901C15.4044 11.7091 15.6035 11.5207 15.806 11.336C16.2159 10.9573 16.4426 10.9573 16.8568 11.3484C17.7587 12.1985 18.6589 13.0504 19.5575 13.9041C19.6582 14.0005 19.7659 14.091 19.9652 14.2693C20.193 14.0151 20.3907 13.7764 20.6083 13.5556C21.0268 13.1301 21.0316 12.8694 20.5905 12.4493C19.6359 11.5404 18.6791 10.6337 17.7202 9.72929C17.2538 9.28924 16.9673 9.28924 16.496 9.73252C15.7545 10.4295 15.0158 11.1295 14.2801 11.8326C14.1998 11.9075 14.1341 11.9974 14.0156 12.1331V12.1342Z" fill="#02AD8F"/>
</g>
<defs>
<clipPath id="clip0">
<rect width="14" height="14" fill="white" transform="translate(8 7)"/>
</clipPath>
</defs>
</svg>
