<svg width="30" height="30" viewBox="0 0 30 30" fill="none" xmlns="http://www.w3.org/2000/svg">
<path d="M5.20332 16.8594C5.20332 16.8594 11.4463 22.6614 15.1033 22.6614C18.7603 22.6614 25.0033 16.8594 25.0033 16.8594C25.0033 16.8594 27.4738 21.8634 15.1033 27.5484C3.38682 21.9159 5.20332 16.8594 5.20332 16.8594V16.8594Z" fill="#02AD8F"/>
<path d="M25.0517 5.20217C24.9977 5.19917 19.6187 4.87517 15.6557 1.79117C15.4903 1.66258 15.2852 1.59567 15.0758 1.60197C14.8663 1.60827 14.6656 1.68737 14.5082 1.82567C10.7792 5.11367 5.25171 5.20067 5.19771 5.20067C4.70271 5.20367 4.30371 5.60567 4.30371 6.10067V18.3242C4.30371 22.8392 13.6262 27.7967 14.6897 28.3472C14.8187 28.4147 14.9612 28.4477 15.1037 28.4477C15.2357 28.4477 15.3677 28.4192 15.4907 28.3607C15.5942 28.3112 18.0632 27.1322 20.5727 25.3667C24.1112 22.8782 25.9052 20.5082 25.9052 18.3242V6.10067C25.9048 5.87018 25.8161 5.64862 25.6573 5.48151C25.4986 5.3144 25.2819 5.21444 25.0517 5.20217V5.20217ZM24.1037 18.3242C24.1037 21.4052 17.9612 25.1177 15.1187 26.5382C11.4722 24.5822 6.10371 20.8187 6.10371 18.3242V6.95267C7.86921 6.80117 11.8922 6.18317 15.1367 3.64367C18.4802 5.98967 22.4027 6.70817 24.1037 6.91817V18.3242Z" fill="black"/>
<path d="M20.5541 15.8533C20.6599 15.3949 20.7304 14.9012 20.7304 14.4075C20.7304 11.7627 18.9319 9.541 16.4987 8.87098C16.3576 8.16569 15.7581 7.63672 15.0176 7.63672C14.277 7.63672 13.6423 8.16569 13.5012 8.87098C11.068 9.541 9.26947 11.7627 9.26947 14.4075C9.26947 14.9012 9.34 15.3596 9.4458 15.8181C9.05789 16.1002 8.81104 16.5234 8.81104 17.0523C8.81104 17.8987 9.48106 18.5687 10.3274 18.5687C10.539 18.5687 10.7506 18.5334 10.9269 18.4277C11.9496 19.4856 13.3954 20.1556 15.0176 20.1556C16.6045 20.1556 18.0503 19.5209 19.073 18.4629C19.2493 18.5334 19.4256 18.5687 19.6372 18.5687C20.4836 18.5687 21.1536 17.8987 21.1536 17.0523C21.1183 16.5586 20.9068 16.1355 20.5541 15.8533V15.8533ZM11.738 16.5939C11.6675 16.3823 11.5617 16.206 11.4206 16.0649L14.5591 10.5989C14.7002 10.6342 14.806 10.6695 14.9471 10.6695C15.0881 10.6695 15.2292 10.6342 15.335 10.5989L18.4735 15.9944C18.3324 16.1707 18.1914 16.347 18.1209 16.5939H11.738V16.5939ZM19.8136 14.4075C19.8136 14.7954 19.7783 15.1833 19.6725 15.536H19.6372C19.5314 15.536 19.4609 15.536 19.3551 15.5712L16.1813 10.1052C16.2518 10.0347 16.3224 9.92891 16.3576 9.82312C18.3324 10.3873 19.8136 12.2564 19.8136 14.4075V14.4075ZM13.6423 9.82312C13.6775 9.92891 13.7481 10.0347 13.8186 10.1052L10.6448 15.6065C10.539 15.5712 10.4332 15.5712 10.3274 15.5712C10.2569 15.2186 10.1864 14.8307 10.1864 14.4428C10.1864 12.2564 11.6675 10.3873 13.6423 9.82312ZM11.5969 17.8282C11.6675 17.7224 11.7027 17.6518 11.738 17.546H18.1914C18.2267 17.6518 18.2972 17.7929 18.3677 17.8634C17.4861 18.7098 16.3224 19.2387 15.0176 19.2387C13.6775 19.2387 12.4785 18.6745 11.5969 17.8282Z" fill="#02AD8F"/>
</svg>
