<svg width="18" height="18" viewBox="0 0 18 18" fill="none" xmlns="http://www.w3.org/2000/svg">
<g clip-path="url(#clip0)">
<path d="M18.0052 11.4194H13.0743V6.74996H18.0052V11.4194ZM14.362 10.1317H16.7175V8.03764H14.362V10.1317ZM15.4654 5.44679H10.536V0.777344H15.4654V5.44679ZM11.8237 4.15911H14.1777V2.06502H11.8237V4.15911ZM14.7934 17.2196H9.86279V12.5502H14.7934V17.2196ZM11.1505 15.9319H13.5057V13.8378H11.1505V15.9319Z" fill="#02AD8F"/>
<path d="M0 8.46875H13.9005V9.75643H0V8.46875Z" fill="#02AD8F"/>
<path d="M2.40592 9.539L1.49268 8.63119L7.45544 2.63281H11.4426V3.92049H7.99123L2.40592 9.539ZM10.5064 15.5291H8.11215L3.89581 9.48206L4.95211 8.74567L8.78416 14.2414H10.5064V15.5291Z" fill="#02AD8F"/>
</g>
<defs>
<clipPath id="clip0">
<rect width="18" height="18" fill="white"/>
</clipPath>
</defs>
</svg>
