<svg width="16" height="16" viewBox="0 0 16 16" fill="none" xmlns="http://www.w3.org/2000/svg">
<path d="M7.21528 6.75575L7.59194 7.13309C7.65443 7.1956 7.68954 7.28036 7.68954 7.36875C7.68954 7.45714 7.65443 7.54191 7.59194 7.60442L6.66027 8.53642L6.64861 8.54642L7.68661 9.58475L7.69728 9.57375L8.62928 8.64142C8.69178 8.57893 8.77655 8.54382 8.86494 8.54382C8.95333 8.54382 9.0381 8.57893 9.10061 8.64142L9.47794 9.01875C9.54043 9.08126 9.57554 9.16603 9.57554 9.25442C9.57554 9.34281 9.54043 9.42758 9.47794 9.49009L8.54561 10.4221L8.53428 10.4321L9.10094 10.9988C9.22592 11.1238 9.29613 11.2933 9.29613 11.4701C9.29613 11.6469 9.22592 11.8164 9.10094 11.9414L7.68661 13.3554C6.51261 14.5298 4.68061 14.6448 3.37728 13.7011C3.36874 13.7122 3.3595 13.7228 3.34961 13.7328L2.41761 14.6648C2.38665 14.6957 2.34989 14.7203 2.30942 14.7371C2.26896 14.7539 2.22558 14.7625 2.18178 14.7625C2.13797 14.7625 2.09459 14.7539 2.05413 14.7371C2.01366 14.7203 1.9769 14.6957 1.94594 14.6648L1.56928 14.2878C1.50678 14.2252 1.47168 14.1405 1.47168 14.0521C1.47168 13.9637 1.50678 13.8789 1.56928 13.8164L2.50094 12.8841C2.51694 12.8684 2.53428 12.8541 2.55194 12.8424C1.69028 11.5478 1.83061 9.78342 2.97261 8.64142L4.38661 7.22742C4.44852 7.16548 4.52202 7.11635 4.60292 7.08283C4.68383 7.04931 4.77054 7.03206 4.85811 7.03206C4.94568 7.03206 5.03239 7.04931 5.11329 7.08283C5.19419 7.11635 5.2677 7.16548 5.32961 7.22742L5.80094 7.69909L5.81161 7.68809L6.74361 6.75575C6.77457 6.72476 6.81133 6.70017 6.8518 6.6834C6.89226 6.66662 6.93564 6.65799 6.97944 6.65799C7.02325 6.65799 7.06662 6.66662 7.10709 6.6834C7.14755 6.70017 7.18432 6.72476 7.21528 6.75575ZM4.85794 8.17009L3.67961 9.34875C3.2519 9.77652 3.00703 10.3537 2.99664 10.9585C2.98626 11.5633 3.21117 12.1486 3.62394 12.5908L3.67961 12.6484C4.10738 13.0761 4.68453 13.321 5.28936 13.3314C5.89419 13.3418 6.47941 13.1169 6.92161 12.7041L6.97928 12.6484L8.15794 11.4701L4.85794 8.17009ZM13.8146 1.57042C13.8456 1.53943 13.8823 1.51484 13.9228 1.49807C13.9633 1.48129 14.0066 1.47266 14.0504 1.47266C14.0942 1.47266 14.1376 1.48129 14.1781 1.49807C14.2186 1.51484 14.2553 1.53943 14.2863 1.57042L14.6633 1.94742C14.6943 1.97838 14.7189 2.01514 14.7356 2.05561C14.7524 2.09607 14.761 2.13945 14.761 2.18325C14.761 2.22706 14.7524 2.27043 14.7356 2.3109C14.7189 2.35136 14.6943 2.38813 14.6633 2.41909L13.7313 3.35109C13.7213 3.36098 13.7107 3.37022 13.6996 3.37875C14.6433 4.68209 14.5283 6.51409 13.3539 7.68809L11.9399 9.10209C11.878 9.16402 11.8045 9.21315 11.7236 9.24667C11.6427 9.28019 11.556 9.29744 11.4684 9.29744C11.3809 9.29744 11.2942 9.28019 11.2133 9.24667C11.1324 9.21315 11.0589 9.16402 10.9969 9.10209L7.22594 5.33142C7.16401 5.26951 7.11488 5.19601 7.08136 5.1151C7.04784 5.0342 7.03058 4.94749 7.03058 4.85992C7.03058 4.77235 7.04784 4.68564 7.08136 4.60473C7.11488 4.52383 7.16401 4.45033 7.22594 4.38842L8.63994 2.97442C9.78194 1.83242 11.5466 1.69209 12.8409 2.55375C12.8529 2.53575 12.8669 2.51875 12.8826 2.50275L13.8146 1.57042ZM12.5893 3.62542C12.1471 3.21264 11.5619 2.98773 10.957 2.99812C10.3522 3.0085 9.77504 3.25337 9.34727 3.68109L8.16861 4.85942L11.4686 8.15942L12.6469 6.98075L12.7026 6.92309C13.1154 6.48089 13.3403 5.89566 13.3299 5.29084C13.3195 4.68601 13.0747 4.10885 12.6469 3.68109L12.5893 3.62542Z" fill="#BFBFBF"/>
</svg>
