<svg width="18" height="18" viewBox="0 0 18 18" fill="none" xmlns="http://www.w3.org/2000/svg">
<path d="M10.3515 9.45759L8.52751 9L8 11.1132L9.77636 11.5422C10.0494 11.5831 10.3281 11.5243 10.5615 11.3767C10.7949 11.2291 10.9674 11.0025 11.0475 10.7382C11.0891 10.6085 11.1041 10.4717 11.0914 10.336C11.0787 10.2004 11.0386 10.0687 10.9735 9.94899C10.9085 9.82928 10.8198 9.724 10.7129 9.63954C10.606 9.55508 10.4831 9.49318 10.3515 9.45759Z" fill="#F9934A"/>
<path d="M9 0C7.21997 0 5.47991 0.527841 3.99987 1.51677C2.51983 2.50571 1.36628 3.91131 0.685088 5.55585C0.00389963 7.20038 -0.17433 9.00998 0.172936 10.7558C0.520203 12.5016 1.37737 14.1053 2.63604 15.364C3.89471 16.6226 5.49836 17.4798 7.24419 17.8271C8.99002 18.1743 10.7996 17.9961 12.4442 17.3149C14.0887 16.6337 15.4943 15.4802 16.4832 14.0001C17.4722 12.5201 18 10.78 18 9C18 6.61305 17.0518 4.32387 15.364 2.63604C13.6761 0.948211 11.3869 0 9 0ZM12.9584 7.63129C12.7746 8.73742 11.593 9.10503 11.593 9.10503C12.004 9.34279 12.3228 9.71219 12.4979 10.1535C12.673 10.5949 12.6942 11.0823 12.558 11.5372C12.1313 13.2473 10.198 13.2276 9.68928 13.0996L8.92123 12.9059L8.51094 14.547L7.49344 14.291L7.90372 12.6499L7.24727 12.4858L6.83698 14.1269L5.77024 13.8578L6.18053 12.2166L4.17506 11.7177L4.45733 10.5853L5.54377 10.8545C5.63895 10.8807 5.6488 10.8545 5.66521 10.7691C5.68162 10.6838 6.97812 5.5175 6.97812 5.4814C6.97812 5.44529 7.00438 5.38293 6.8895 5.35339L5.75055 5.06127L6.00657 4.04048L8.07768 4.55908L8.50438 2.83917L9.48906 3.08534L9.06236 4.80525L9.84355 4.9989L10.2735 3.28227L11.2582 3.52516L10.8282 5.2582C11.2118 5.37542 11.5808 5.53621 11.9278 5.73742C12.3611 6.01969 13.139 6.52844 12.9584 7.63129Z" fill="#F9934A"/>
<path d="M10.6778 6.29553L9.50208 6L9 8.01469L10.287 8.33246C10.4218 8.37157 10.563 8.38347 10.7024 8.36748C10.8419 8.35148 10.9767 8.30792 11.0991 8.23931C11.2216 8.1707 11.3291 8.07842 11.4156 7.96784C11.502 7.85727 11.5656 7.7306 11.6026 7.59523C11.8123 6.74995 10.878 6.3432 10.6778 6.29553Z" fill="#F9934A"/>
</svg>
