<svg width="30" height="30" viewBox="0 0 30 30" fill="none" xmlns="http://www.w3.org/2000/svg">
<path d="M5.20332 16.8594C5.20332 16.8594 11.4463 22.6614 15.1033 22.6614C18.7603 22.6614 25.0033 16.8594 25.0033 16.8594C25.0033 16.8594 27.4738 21.8634 15.1033 27.5484C3.38682 21.9159 5.20332 16.8594 5.20332 16.8594Z" fill="#02AD8F"/>
<path d="M25.0517 5.20217C24.9977 5.19917 19.6187 4.87517 15.6557 1.79117C15.4903 1.66258 15.2852 1.59567 15.0758 1.60197C14.8663 1.60827 14.6656 1.68737 14.5082 1.82567C10.7792 5.11367 5.25171 5.20067 5.19771 5.20067C4.70271 5.20367 4.30371 5.60567 4.30371 6.10067V18.3242C4.30371 22.8392 13.6262 27.7967 14.6897 28.3472C14.8187 28.4147 14.9612 28.4477 15.1037 28.4477C15.2357 28.4477 15.3677 28.4192 15.4907 28.3607C15.5942 28.3112 18.0632 27.1322 20.5727 25.3667C24.1112 22.8782 25.9052 20.5082 25.9052 18.3242V6.10067C25.9048 5.87018 25.8161 5.64862 25.6573 5.48151C25.4986 5.3144 25.2819 5.21444 25.0517 5.20217ZM24.1037 18.3242C24.1037 21.4052 17.9612 25.1177 15.1187 26.5382C11.4722 24.5822 6.10371 20.8187 6.10371 18.3242V6.95267C7.86921 6.80117 11.8922 6.18317 15.1367 3.64367C18.4802 5.98967 22.4027 6.70817 24.1037 6.91817V18.3242Z" fill="black"/>
<path d="M14.3549 17.5376C14.2949 17.5406 14.1884 17.5271 14.1014 17.4281L11.0099 13.9331C10.8516 13.7545 10.6289 13.646 10.3908 13.6314C10.1526 13.6168 9.91834 13.6972 9.73939 13.8551C9.56084 14.0134 9.45235 14.236 9.43773 14.4742C9.42311 14.7124 9.50354 14.9466 9.66139 15.1256L12.7529 18.6206C13.1579 19.0781 13.7354 19.3376 14.3459 19.3376C14.3669 19.3376 14.3864 19.3376 14.4074 19.3361C14.7187 19.3276 15.0243 19.2506 15.3025 19.1106C15.5807 18.9706 15.8246 18.771 16.0169 18.5261L21.2294 11.9066C21.5369 11.5166 21.4694 10.9496 21.0794 10.6421C20.8917 10.4945 20.6532 10.4274 20.4161 10.4555C20.179 10.4836 19.9628 10.6047 19.8149 10.7921L14.6024 17.4116C14.5199 17.5181 14.4119 17.5361 14.3549 17.5376Z" fill="#02AD8F"/>
</svg>
