<svg xmlns="http://www.w3.org/2000/svg" fill="none" viewBox="0 0 60 60" class="design-iconfont">
  <path d="M28.0259 55.8413H11.6232C11.4433 55.8413 11.2639 55.834 11.0838 55.8214C10.9813 55.8149 10.8793 55.803 10.778 55.7917C11.344 55.8559 10.9753 55.8169 10.8509 55.7943C10.6199 55.7546 10.3929 55.6971 10.1679 55.6329C9.97729 55.5786 9.79061 55.511 9.60527 55.4403C9.26045 55.3079 10.005 55.619 9.66879 55.4668C9.57949 55.4263 9.49207 55.3821 9.40471 55.3378C9.23004 55.2497 9.06117 55.1504 8.89518 55.0472C8.76076 54.9638 8.14195 54.4972 8.62178 54.8758C8.31662 54.6348 8.03742 54.3609 7.77727 54.0715C7.71176 53.9989 7.65012 53.9233 7.58801 53.8485C7.35568 53.5673 7.84617 54.1979 7.62961 53.9028C7.49467 53.7188 7.37285 53.5255 7.25707 53.329C7.15641 53.1596 7.06781 52.9835 6.98244 52.8061C6.93006 52.6976 6.79172 52.3567 7.00418 52.8737C6.96586 52.7817 6.9327 52.6876 6.8983 52.5943C6.75006 52.1834 6.6508 51.7557 6.5826 51.3243C6.68191 51.9543 6.58465 51.2389 6.57668 51.0826C6.5707 50.9774 6.57006 50.8722 6.57006 50.767V8.67282C6.57006 8.5326 6.57463 8.39292 6.58195 8.25329C6.58723 8.14993 6.59719 8.04669 6.60773 7.9435C6.64488 7.5603 6.539 8.39356 6.59854 8.01563C6.66592 7.58403 6.78457 7.16251 6.93205 6.75211C6.97312 6.63838 7.12072 6.30083 6.90029 6.8144C6.93938 6.72305 6.98244 6.63434 7.02475 6.54504C7.11012 6.36768 7.2068 6.19624 7.30658 6.02672C7.4059 5.85868 7.51652 5.69649 7.62961 5.53688C7.84143 5.23981 7.36025 5.87655 7.58801 5.59196C7.66934 5.49001 7.75535 5.39333 7.84207 5.29606C7.97244 5.1518 8.11143 5.0154 8.25316 4.8818C8.35904 4.78254 8.89641 4.35551 8.414 4.72553C8.75022 4.46749 9.11478 4.24911 9.49213 4.0578C9.58014 4.01338 9.66943 3.97301 9.75885 3.93276C9.25582 4.16034 9.58342 4.00811 9.69791 3.96446C9.88324 3.89368 10.0732 3.83467 10.2638 3.78047C10.4578 3.72481 10.6536 3.68309 10.8509 3.64542C10.9733 3.62163 11.3466 3.57534 10.778 3.64881C10.9138 3.63083 11.0501 3.62098 11.1864 3.61167C11.3532 3.59977 11.52 3.59907 11.6868 3.59907H49.0749C49.1171 3.59907 49.1596 3.59907 49.2032 3.59977C49.4097 3.60112 49.6149 3.61694 49.8214 3.6368C50.2012 3.6746 49.3739 3.56801 49.7498 3.6276C49.8823 3.64881 50.0134 3.67717 50.1458 3.70635C50.3403 3.7493 50.5322 3.80561 50.7214 3.86655C50.8632 3.91085 51.5052 4.17815 50.9412 3.93276C51.3304 4.10145 51.6984 4.31596 52.0492 4.55409C52.1299 4.60905 52.208 4.66729 52.2861 4.72553C51.8493 4.39999 52.1365 4.6104 52.2279 4.6878C52.3774 4.8129 52.5191 4.94731 52.6568 5.0843C52.7944 5.22194 52.924 5.36754 53.0498 5.51655C53.1267 5.60719 53.3438 5.89706 53.0128 5.45819C53.0909 5.56219 53.165 5.67001 53.2378 5.77794C53.4562 6.10483 53.6402 6.45428 53.7991 6.8137C53.5489 6.25108 53.8176 6.8918 53.8654 7.03471C53.9381 7.25784 53.995 7.48612 54.0453 7.71575C54.0664 7.81506 54.0837 7.91497 54.1009 8.01563C54.1671 8.39292 54.0493 7.56094 54.0929 7.9435C54.1155 8.15057 54.1248 8.35846 54.1301 8.56694C54.1314 8.61592 54.1301 8.66426 54.1301 8.71383V34.2109C54.1301 35.1918 54.9428 36.0103 55.9157 36.0103C56.8886 36.0103 57.7001 35.1918 57.7001 34.2109V8.70651C57.7001 7.12999 57.2764 5.56536 56.4756 4.21055C55.4405 2.45801 53.8229 1.21313 51.9512 0.494362C50.6991 0.0134827 49.3805 6.13356e-06 48.0662 6.13356e-06H12.8265C11.6702 6.13356e-06 10.5518 -0.00515012 9.41133 0.283541C5.6765 1.23012 3 4.81999 3 8.67463V50.5061C3 53.0263 3.92531 55.4561 5.80107 57.1682C7.32258 58.5581 9.2458 59.3244 11.289 59.433C11.6901 59.4536 12.0952 59.4397 12.4962 59.4397H28.0259C28.998 59.4397 29.8101 58.6209 29.8101 57.6408C29.8101 56.6593 28.9987 55.8413 28.0259 55.8413L28.0259 55.8413ZM54.6529 42.3106C52.3365 44.7435 50.0212 47.1764 47.7048 49.6102C45.5604 51.863 43.416 54.1153 41.2717 56.3681H43.796C42.0583 54.8064 40.3207 53.2445 38.5833 51.6824C37.8579 51.0297 36.7765 50.9596 36.0589 51.6824C35.4011 52.3461 35.3336 53.5739 36.0589 54.2271C37.797 55.789 39.5337 57.3511 41.2717 58.913C41.9852 59.555 43.0944 59.6503 43.796 58.913C46.1111 56.4801 48.4276 54.0464 50.7427 51.6135C52.8884 49.3605 55.0315 47.1083 57.1759 44.8553C57.8497 44.1478 57.8747 43.0141 57.1759 42.3106C56.4995 41.6282 55.3267 41.603 54.6529 42.3106ZM18.7296 17.2666H41.9707C42.9436 17.2666 43.7551 16.448 43.7551 15.4671C43.7551 14.4862 42.9436 13.6682 41.9707 13.6682H18.7296C17.7568 13.6682 16.9447 14.4861 16.9447 15.4671C16.9447 16.448 17.7568 17.2666 18.7296 17.2666ZM18.7296 31.324H41.9707C42.9436 31.324 43.7551 30.5061 43.7551 29.5251C43.7551 28.5442 42.9436 27.7256 41.9707 27.7256H18.7296C17.7568 27.7256 16.9447 28.5443 16.9447 29.5251C16.9447 30.506 17.7568 31.324 18.7296 31.324ZM18.7296 45.3822H28.0261C28.9989 45.3822 29.8103 44.5634 29.8103 43.5826C29.8103 42.6018 28.9989 41.7831 28.0261 41.7831H18.7296C17.7568 41.7831 16.9447 42.6018 16.9447 43.5826C16.9447 44.5635 17.7568 45.3822 18.7297 45.3822H18.7296Z" fill="#000"/>
  <mask id="ppnmd7c8oa" maskUnits="userSpaceOnUse" x="3" y="0" width="55" height="60">
    <path d="M28.0259 55.8413H11.6232C11.4433 55.8413 11.2639 55.834 11.0838 55.8214C10.9813 55.8149 10.8793 55.803 10.778 55.7917C11.344 55.8559 10.9753 55.8169 10.8509 55.7943C10.6199 55.7546 10.3929 55.6971 10.1679 55.6329C9.97729 55.5786 9.79061 55.511 9.60527 55.4403C9.26045 55.3079 10.005 55.619 9.66879 55.4668C9.57949 55.4263 9.49207 55.3821 9.40471 55.3378C9.23004 55.2497 9.06117 55.1504 8.89518 55.0472C8.76076 54.9638 8.14195 54.4972 8.62178 54.8758C8.31662 54.6348 8.03742 54.3609 7.77727 54.0715C7.71176 53.9989 7.65012 53.9233 7.58801 53.8485C7.35568 53.5673 7.84617 54.1979 7.62961 53.9028C7.49467 53.7188 7.37285 53.5255 7.25707 53.329C7.15641 53.1596 7.06781 52.9835 6.98244 52.8061C6.93006 52.6976 6.79172 52.3567 7.00418 52.8737C6.96586 52.7817 6.9327 52.6876 6.8983 52.5943C6.75006 52.1834 6.6508 51.7557 6.5826 51.3243C6.68191 51.9543 6.58465 51.2389 6.57668 51.0826C6.5707 50.9774 6.57006 50.8722 6.57006 50.767V8.67282C6.57006 8.5326 6.57463 8.39292 6.58195 8.25329C6.58723 8.14993 6.59719 8.04669 6.60773 7.9435C6.64488 7.5603 6.539 8.39356 6.59854 8.01563C6.66592 7.58403 6.78457 7.16251 6.93205 6.75211C6.97312 6.63838 7.12072 6.30083 6.90029 6.8144C6.93938 6.72305 6.98244 6.63434 7.02475 6.54504C7.11012 6.36768 7.2068 6.19624 7.30658 6.02672C7.4059 5.85868 7.51652 5.69649 7.62961 5.53688C7.84143 5.23981 7.36025 5.87655 7.58801 5.59196C7.66934 5.49001 7.75535 5.39333 7.84207 5.29606C7.97244 5.1518 8.11143 5.0154 8.25316 4.8818C8.35904 4.78254 8.89641 4.35551 8.414 4.72553C8.75022 4.46749 9.11478 4.24911 9.49213 4.0578C9.58014 4.01338 9.66943 3.97301 9.75885 3.93276C9.25582 4.16034 9.58342 4.00811 9.69791 3.96446C9.88324 3.89368 10.0732 3.83467 10.2638 3.78047C10.4578 3.72481 10.6536 3.68309 10.8509 3.64542C10.9733 3.62163 11.3466 3.57534 10.778 3.64881C10.9138 3.63083 11.0501 3.62098 11.1864 3.61167C11.3532 3.59977 11.52 3.59907 11.6868 3.59907H49.0749C49.1171 3.59907 49.1596 3.59907 49.2032 3.59977C49.4097 3.60112 49.6149 3.61694 49.8214 3.6368C50.2012 3.6746 49.3739 3.56801 49.7498 3.6276C49.8823 3.64881 50.0134 3.67717 50.1458 3.70635C50.3403 3.7493 50.5322 3.80561 50.7214 3.86655C50.8632 3.91085 51.5052 4.17815 50.9412 3.93276C51.3304 4.10145 51.6984 4.31596 52.0492 4.55409C52.1299 4.60905 52.208 4.66729 52.2861 4.72553C51.8493 4.39999 52.1365 4.6104 52.2279 4.6878C52.3774 4.8129 52.5191 4.94731 52.6568 5.0843C52.7944 5.22194 52.924 5.36754 53.0498 5.51655C53.1267 5.60719 53.3438 5.89706 53.0128 5.45819C53.0909 5.56219 53.165 5.67001 53.2378 5.77794C53.4562 6.10483 53.6402 6.45428 53.7991 6.8137C53.5489 6.25108 53.8176 6.8918 53.8654 7.03471C53.9381 7.25784 53.995 7.48612 54.0453 7.71575C54.0664 7.81506 54.0837 7.91497 54.1009 8.01563C54.1671 8.39292 54.0493 7.56094 54.0929 7.9435C54.1155 8.15057 54.1248 8.35846 54.1301 8.56694C54.1314 8.61592 54.1301 8.66426 54.1301 8.71383V34.2109C54.1301 35.1918 54.9428 36.0103 55.9157 36.0103C56.8886 36.0103 57.7001 35.1918 57.7001 34.2109V8.70651C57.7001 7.12999 57.2764 5.56536 56.4756 4.21055C55.4405 2.45801 53.8229 1.21313 51.9512 0.494362C50.6991 0.0134827 49.3805 6.13356e-06 48.0662 6.13356e-06H12.8265C11.6702 6.13356e-06 10.5518 -0.00515012 9.41133 0.283541C5.6765 1.23012 3 4.81999 3 8.67463V50.5061C3 53.0263 3.92531 55.4561 5.80107 57.1682C7.32258 58.5581 9.2458 59.3244 11.289 59.433C11.6901 59.4536 12.0952 59.4397 12.4962 59.4397H28.0259C28.998 59.4397 29.8101 58.6209 29.8101 57.6408C29.8101 56.6593 28.9987 55.8413 28.0259 55.8413L28.0259 55.8413ZM54.6529 42.3106C52.3365 44.7435 50.0212 47.1764 47.7048 49.6102C45.5604 51.863 43.416 54.1153 41.2717 56.3681H43.796C42.0583 54.8064 40.3207 53.2445 38.5833 51.6824C37.8579 51.0297 36.7765 50.9596 36.0589 51.6824C35.4011 52.3461 35.3336 53.5739 36.0589 54.2271C37.797 55.789 39.5337 57.3511 41.2717 58.913C41.9852 59.555 43.0944 59.6503 43.796 58.913C46.1111 56.4801 48.4276 54.0464 50.7427 51.6135C52.8884 49.3605 55.0315 47.1083 57.1759 44.8553C57.8497 44.1478 57.8747 43.0141 57.1759 42.3106C56.4995 41.6282 55.3267 41.603 54.6529 42.3106ZM18.7296 17.2666H41.9707C42.9436 17.2666 43.7551 16.448 43.7551 15.4671C43.7551 14.4862 42.9436 13.6682 41.9707 13.6682H18.7296C17.7568 13.6682 16.9447 14.4861 16.9447 15.4671C16.9447 16.448 17.7568 17.2666 18.7296 17.2666ZM18.7296 31.324H41.9707C42.9436 31.324 43.7551 30.5061 43.7551 29.5251C43.7551 28.5442 42.9436 27.7256 41.9707 27.7256H18.7296C17.7568 27.7256 16.9447 28.5443 16.9447 29.5251C16.9447 30.506 17.7568 31.324 18.7296 31.324ZM18.7296 45.3822H28.0261C28.9989 45.3822 29.8103 44.5634 29.8103 43.5826C29.8103 42.6018 28.9989 41.7831 28.0261 41.7831H18.7296C17.7568 41.7831 16.9447 42.6018 16.9447 43.5826C16.9447 44.5635 17.7568 45.3822 18.7297 45.3822H18.7296Z" fill="#000"/>
  </mask>
  <g mask="url(#ppnmd7c8oa)" fill="#02AD8F">
    <path d="M35 39H62V60H35z"/>
    <path d="M12 25H48V47H12z"/>
  </g>
</svg>
