<svg xmlns="http://www.w3.org/2000/svg" fill="none" viewBox="0 0 12 13" class="design-iconfont">
  <g clip-path="url(#clip0)">
    <path d="M5.62651 4.2644L4.59151 3.21624C4.52119 3.14485 4.48173 3.04806 4.4818 2.94718C4.48187 2.84629 4.52147 2.74956 4.59188 2.67828C4.6623 2.60699 4.75776 2.56698 4.85727 2.56705C4.95678 2.56712 5.05219 2.60727 5.12251 2.67866L6.00188 3.56943L6.88163 2.67866C6.95325 2.61421 7.04644 2.57993 7.14216 2.5828C7.23788 2.58567 7.32891 2.62549 7.39664 2.69412C7.46438 2.76274 7.50372 2.855 7.50662 2.95204C7.50952 3.04908 7.47577 3.14358 7.41226 3.21624L6.37726 4.2644V4.26669H7.50376C7.60321 4.26669 7.69859 4.30674 7.76892 4.37804C7.83925 4.44934 7.87876 4.54604 7.87876 4.64687C7.87876 4.7477 7.83925 4.8444 7.76892 4.9157C7.69859 4.987 7.60321 5.02705 7.50376 5.02705H6.37726V5.78742H7.50376C7.60321 5.78742 7.69859 5.82748 7.76892 5.89878C7.83925 5.97007 7.87876 6.06678 7.87876 6.16761C7.87876 6.26844 7.83925 6.36514 7.76892 6.43644C7.69859 6.50774 7.60321 6.54779 7.50376 6.54779H6.37726V7.223C6.37726 7.32383 6.33775 7.42053 6.26742 7.49183C6.19709 7.56313 6.10171 7.60318 6.00226 7.60318H6.00151C5.90205 7.60318 5.80667 7.56313 5.73634 7.49183C5.66601 7.42053 5.62651 7.32383 5.62651 7.223V6.54779H4.50001C4.40055 6.54779 4.30517 6.50774 4.23484 6.43644C4.16451 6.36514 4.12501 6.26844 4.12501 6.16761C4.12501 6.06678 4.16451 5.97007 4.23484 5.89878C4.30517 5.82748 4.40055 5.78742 4.50001 5.78742H5.62651V5.02705H4.50001C4.40055 5.02705 4.30517 4.987 4.23484 4.9157C4.16451 4.8444 4.12501 4.7477 4.12501 4.64687C4.12501 4.54604 4.16451 4.44934 4.23484 4.37804C4.30517 4.30674 4.40055 4.26669 4.50001 4.26669H5.62651V4.2644ZM2.28001 9.52615C2.14688 9.52615 2.04263 9.52996 1.96538 9.53452C2.03738 9.60751 2.13263 9.6961 2.24663 9.79684C2.60872 10.1115 2.98275 10.4116 3.36788 10.6967C4.26151 11.3624 5.09513 11.8704 5.25001 11.8704C5.85526 11.8704 7.31363 11.5016 8.12176 11.113C8.76563 10.8032 9.39563 10.9564 9.92701 11.529C9.96877 11.5554 10.005 11.59 10.0336 11.6306C10.0622 11.6713 10.0826 11.7172 10.0937 11.7659C10.1047 11.8145 10.1062 11.8649 10.0981 11.9141C10.09 11.9634 10.0724 12.0105 10.0463 12.0529C10.0202 12.0952 9.98608 12.1319 9.94599 12.1609C9.9059 12.1899 9.86056 12.2106 9.81258 12.2218C9.76459 12.233 9.7149 12.2346 9.66633 12.2263C9.61776 12.2181 9.57127 12.2002 9.52951 12.1738C9.47483 12.1391 9.42479 12.0974 9.38063 12.0498C9.06301 11.7077 8.77876 11.6385 8.44313 11.8C7.53938 12.2346 5.97301 12.6307 5.25001 12.6307C4.50713 12.6307 1.12501 10.109 1.12501 9.53528C1.12501 8.93725 1.40701 8.76579 2.28001 8.76579C2.70413 8.76579 2.97976 8.91406 3.91126 9.52349C4.02113 9.59573 4.09951 9.64629 4.17676 9.69495C4.67851 10.012 5.01076 10.1595 5.25001 10.1595C5.56988 10.1595 5.90551 10.1223 6.19501 10.0592C6.12632 10.0462 6.05769 10.0329 5.98913 10.0193C5.17688 9.85463 4.76551 9.67975 4.64738 9.22467C4.46851 8.53653 4.94813 8.1689 5.76488 8.16395C7.38901 7.94725 8.64863 8.09704 9.54188 8.63424C9.73876 8.7521 9.92438 8.86425 10.0748 8.95588L11.0408 9.43833C11.1294 9.48322 11.197 9.56187 11.2286 9.6571C11.2603 9.75233 11.2534 9.85639 11.2096 9.94653C11.1658 10.0367 11.0886 10.1056 10.9948 10.1381C10.9011 10.1707 10.7984 10.1643 10.7093 10.1204L9.71776 9.62386L9.15938 9.28816C8.43001 8.84981 7.32376 8.72016 5.83951 8.92128L5.78851 8.92432C5.55826 8.92356 5.41201 8.95398 5.35651 8.99085C5.35951 8.99161 5.36438 8.99998 5.37263 9.03115C5.38013 9.06005 5.65126 9.17562 6.13613 9.27371C6.24188 9.295 6.59851 9.36153 6.64501 9.37066C7.32976 9.50562 7.50001 9.56721 7.50001 9.96945C7.50001 10.5926 6.40388 10.9199 5.25001 10.9199C4.82438 10.9199 4.39763 10.7306 3.78001 10.3405C3.68766 10.2818 3.59578 10.2224 3.50438 10.1622C2.74913 9.66796 2.48513 9.52615 2.28001 9.52615ZM10.8244 7.88984C10.8055 7.9366 10.7777 7.97908 10.7425 8.0148C10.7072 8.05053 10.6654 8.07878 10.6192 8.09791C10.5731 8.11704 10.5237 8.12666 10.4739 8.12621C10.4241 8.12576 10.3749 8.11525 10.3291 8.0953C10.2833 8.07534 10.2419 8.04634 10.2073 8.00999C10.1728 7.97363 10.1457 7.93066 10.1276 7.88357C10.1096 7.83648 10.101 7.78622 10.1024 7.73573C10.1037 7.68524 10.115 7.63552 10.1355 7.5895C10.3748 7.0253 10.5 6.41549 10.5 5.78742C10.5 3.26794 8.48513 1.22521 6.00001 1.22521C3.51488 1.22521 1.50001 3.26794 1.50001 5.78742C1.50001 6.51814 1.66913 7.22338 1.98976 7.85943C2.03496 7.94927 2.04311 8.05363 2.01241 8.14956C1.98171 8.2455 1.91468 8.32514 1.82607 8.37096C1.73745 8.41679 1.63451 8.42505 1.53989 8.39393C1.44526 8.36281 1.36671 8.29485 1.32151 8.20501C0.944685 7.45647 0.748799 6.62782 0.750006 5.78742C0.750006 2.84784 3.10051 0.464844 6.00001 0.464844C8.89951 0.464844 11.25 2.84784 11.25 5.78742C11.25 6.51966 11.1038 7.23136 10.8244 7.88984Z" fill="#454545"/>
  </g>
  <defs>
    <clipPath id="clip0">
      <path fill="#fff" transform="translate(0 .464844)" d="M0 0H12V12.1659H0z"/>
    </clipPath>
  </defs>
</svg>
