<svg width="13" height="12" viewBox="0 0 13 12" fill="none" xmlns="http://www.w3.org/2000/svg">
<path d="M6.99624 0.800721C7.04866 0.800656 7.10058 0.810966 7.14899 0.831057C7.19741 0.851148 7.24137 0.880623 7.27834 0.917783L8.3602 1.99868C8.50994 2.14775 8.71264 2.23141 8.92392 2.23137H10.4155C10.5213 2.23149 10.6228 2.27359 10.6976 2.34842C10.7724 2.42325 10.8145 2.5247 10.8147 2.63053V4.1221C10.8146 4.33386 10.8987 4.53696 11.0483 4.68678L12.0774 5.71587C12.1145 5.75294 12.1439 5.79695 12.164 5.8454C12.1841 5.89384 12.1944 5.94577 12.1944 5.99821C12.1944 6.05065 12.1841 6.10257 12.164 6.15102C12.1439 6.19946 12.1145 6.24348 12.0774 6.28055L11.0469 7.31059C10.8972 7.46041 10.8132 7.66352 10.8132 7.87527V9.41914C10.8131 9.52497 10.771 9.62642 10.6962 9.70125C10.6213 9.77608 10.5199 9.81818 10.4141 9.8183H8.87211C8.66035 9.81826 8.45725 9.9023 8.30743 10.0519L7.27882 11.081C7.24175 11.1181 7.19774 11.1475 7.1493 11.1676C7.10085 11.1877 7.04892 11.198 6.99648 11.198C6.94404 11.198 6.89212 11.1877 6.84367 11.1676C6.79523 11.1475 6.75121 11.1181 6.71414 11.081L5.68506 10.0515C5.53524 9.90182 5.33213 9.81778 5.12038 9.81782H3.62832C3.5225 9.8177 3.42104 9.7756 3.34622 9.70077C3.27139 9.62594 3.22929 9.52449 3.22916 9.41866V7.92709C3.22921 7.71533 3.14517 7.51223 2.99552 7.36241L1.91462 6.28151C1.87753 6.24444 1.8481 6.20042 1.82803 6.15198C1.80795 6.10353 1.79762 6.05161 1.79762 5.99917C1.79762 5.94673 1.80795 5.8948 1.82803 5.84636C1.8481 5.79791 1.87753 5.7539 1.91462 5.71683L2.99552 4.63593C3.06964 4.56176 3.12842 4.47372 3.16851 4.37683C3.2086 4.27994 3.22921 4.1761 3.22916 4.07125V2.63197C3.22904 2.57945 3.23927 2.52741 3.25926 2.47885C3.27926 2.43028 3.30863 2.38613 3.34571 2.34893C3.38278 2.31172 3.42682 2.28219 3.47531 2.26202C3.52381 2.24185 3.5758 2.23143 3.62832 2.23137H5.06761C5.27936 2.23141 5.48247 2.14737 5.63228 1.99772L6.71319 0.916823C6.75023 0.879628 6.79427 0.850134 6.84277 0.830042C6.89127 0.809951 6.94327 0.799659 6.99576 0.799762L6.99624 0.800721ZM6.99576 0.00144017C6.83848 0.00124914 6.6827 0.0321328 6.53739 0.0923174C6.39207 0.152502 6.26008 0.240802 6.14899 0.352145L5.06809 1.43305H3.6288C3.4713 1.43305 3.31533 1.46407 3.16981 1.52435C3.02429 1.58462 2.89207 1.67297 2.7807 1.78434C2.66932 1.89572 2.58098 2.02794 2.5207 2.17346C2.46043 2.31897 2.4294 2.47494 2.4294 2.63245V4.07173L1.3485 5.15263C1.12423 5.37747 0.998291 5.68208 0.998291 5.99965C0.998291 6.31722 1.12423 6.62182 1.3485 6.84666L2.4294 7.92757V9.41914C2.4294 9.73724 2.55577 10.0423 2.7807 10.2672C3.00563 10.4922 3.3107 10.6185 3.6288 10.6185H5.12038L6.14947 11.6476C6.37431 11.8719 6.67892 11.9978 6.99648 11.9978C7.31405 11.9978 7.61866 11.8719 7.8435 11.6476L8.87259 10.6185H10.4165C10.7346 10.6185 11.0396 10.4922 11.2646 10.2672C11.4895 10.0423 11.6159 9.73724 11.6159 9.41914V7.87527L12.6449 6.84619C12.8692 6.62134 12.9952 6.31674 12.9952 5.99917C12.9952 5.6816 12.8692 5.37699 12.6449 5.15215L11.6159 4.12306V2.63101C11.6159 2.31291 11.4895 2.00783 11.2646 1.7829C11.0396 1.55797 10.7346 1.43161 10.4165 1.43161H8.9244L7.8435 0.350706C7.73241 0.239362 7.60042 0.151063 7.4551 0.0908781C7.30978 0.0306935 7.15401 -0.000190142 6.99672 8.80748e-07L6.99576 0.00144017Z" fill="white"/>
<path d="M4.68411 6.08614L5.89743 6.98714C5.94728 7.0242 6.00852 7.04266 6.07055 7.03933C6.13258 7.036 6.1915 7.01109 6.2371 6.9689L9.40064 4.04236C9.43848 4.00778 9.4855 3.98486 9.53605 3.97635C9.5866 3.96784 9.63854 3.9741 9.68562 3.99439L9.74799 4.02078C9.77339 4.03156 9.7959 4.04818 9.81369 4.06929C9.83147 4.0904 9.84402 4.11541 9.85033 4.14228C9.85664 4.16915 9.85653 4.19713 9.85 4.22395C9.84347 4.25077 9.83071 4.27567 9.81275 4.29664L6.33353 8.34918C6.2875 8.40263 6.22214 8.43563 6.1518 8.44094C6.08146 8.44624 6.01189 8.42342 5.95836 8.37748C5.95042 8.37074 5.94289 8.36353 5.93581 8.35589L4.20291 6.47523C4.17901 6.44928 4.16164 6.418 4.15226 6.38398C4.14288 6.34997 4.14176 6.3142 4.14899 6.27967C4.15621 6.24513 4.17158 6.21282 4.19381 6.18542C4.21604 6.15802 4.24449 6.13632 4.27679 6.12213L4.42072 6.05928C4.46371 6.04035 4.51094 6.03314 4.55762 6.03836C4.6043 6.04358 4.64877 6.06106 4.68651 6.08902L4.68411 6.08614Z" fill="white"/>
</svg>
