<svg xmlns="http://www.w3.org/2000/svg" fill="none" viewBox="0 0 12 14" class="design-iconfont">
  <path d="M11.5673 8.39859H0.432692C0.317935 8.39859 0.207878 8.35237 0.126733 8.27011C0.0455871 8.18784 0 8.07626 0 7.95992C0.000775958 6.55653 0.480042 5.19657 1.35661 4.11042C2.23317 3.02426 3.45313 2.27871 4.80981 2.00006C6.1665 1.72141 7.57648 1.9268 8.8009 2.58143C10.0253 3.23606 10.9889 4.29968 11.5284 5.5921C11.8411 6.34116 12.0015 7.14651 12 7.95992C12 8.07626 11.9544 8.18784 11.8733 8.27011C11.7921 8.35237 11.6821 8.39859 11.5673 8.39859ZM0.883413 7.52124H11.1166C10.8962 4.85513 8.68557 2.75432 5.99999 2.75432C3.31442 2.75432 1.1038 4.85513 0.883413 7.52124Z" fill="#454545"/>
  <path d="M6.0002 2.4381C5.88545 2.4381 5.77539 2.39188 5.69424 2.30962C5.6131 2.22735 5.56751 2.11577 5.56751 1.99943V1.37227C5.56751 1.25592 5.6131 1.14435 5.69424 1.06208C5.77539 0.979811 5.88545 0.933594 6.0002 0.933594C6.11496 0.933594 6.22502 0.979811 6.30616 1.06208C6.38731 1.14435 6.4329 1.25592 6.4329 1.37227V1.99943C6.4329 2.11577 6.38731 2.22735 6.30616 2.30962C6.22502 2.39188 6.11496 2.4381 6.0002 2.4381ZM5.07107 13.0995C4.72728 13.0995 4.39623 12.9675 4.14448 12.7302C3.89273 12.4928 3.73893 12.1676 3.714 11.82C3.70993 11.7626 3.71706 11.7048 3.73499 11.6502C3.75292 11.5955 3.78129 11.545 3.81849 11.5014C3.85569 11.4578 3.90099 11.4222 3.95179 11.3963C4.0026 11.3705 4.05792 11.3551 4.1146 11.351C4.17128 11.3469 4.22821 11.3541 4.28213 11.3723C4.33606 11.3905 4.38592 11.4192 4.42888 11.4569C4.47184 11.4947 4.50705 11.5406 4.5325 11.5921C4.55796 11.6436 4.57315 11.6997 4.57722 11.7571C4.58645 11.8824 4.64161 11.9995 4.73183 12.0855C4.82205 12.1715 4.94078 12.2202 5.06462 12.2218C5.18846 12.2235 5.30841 12.178 5.40083 12.0945C5.49325 12.0109 5.55143 11.8952 5.56391 11.7703L5.56636 11.7111V7.9572C5.56636 7.84086 5.61194 7.72928 5.69309 7.64702C5.77424 7.56475 5.88429 7.51853 5.99905 7.51853C6.11381 7.51853 6.22386 7.56475 6.30501 7.64702C6.38615 7.72928 6.43174 7.84086 6.43174 7.9572V11.7381L6.42857 11.8171C6.42857 11.8231 6.42857 11.8292 6.42741 11.8352C6.39889 12.1799 6.2437 12.5011 5.9926 12.7353C5.7415 12.9694 5.41281 13.0994 5.07165 13.0995H5.07107Z" fill="#454545"/>
</svg>
