<svg xmlns="http://www.w3.org/2000/svg" fill="none" viewBox="0 0 12 12" class="design-iconfont">
  <path d="M5.9999 4.42167C6.41866 4.42167 6.82027 4.25532 7.11638 3.95921C7.41249 3.6631 7.57884 3.26148 7.57884 2.84272C7.57884 2.42396 7.41249 2.02235 7.11638 1.72624C6.82027 1.43013 6.41866 1.26377 5.9999 1.26377C5.58113 1.26377 5.17952 1.43013 4.88341 1.72624C4.5873 2.02235 4.42095 2.42396 4.42095 2.84272C4.42095 3.26148 4.5873 3.6631 4.88341 3.95921C5.17952 4.25532 5.58113 4.42167 5.9999 4.42167ZM5.9999 5.36904C5.32988 5.36904 4.6873 5.10287 4.21352 4.6291C3.73975 4.15532 3.47358 3.51274 3.47358 2.84272C3.47358 2.1727 3.73975 1.53012 4.21352 1.05635C4.6873 0.582571 5.32988 0.316406 5.9999 0.316406C6.66992 0.316406 7.3125 0.582571 7.78627 1.05635C8.26005 1.53012 8.52621 2.1727 8.52621 2.84272C8.52621 3.51274 8.26005 4.15532 7.78627 4.6291C7.3125 5.10287 6.66992 5.36904 5.9999 5.36904ZM1.89463 10.7375H10.1052V9.4743C10.1052 9.14254 10.0398 8.81403 9.91286 8.50752C9.7859 8.20101 9.59981 7.92251 9.36522 7.68792C9.13063 7.45333 8.85213 7.26725 8.54562 7.14029C8.23912 7.01333 7.9106 6.94798 7.57884 6.94798H4.42095C4.08919 6.94798 3.76068 7.01333 3.45417 7.14029C3.14766 7.26725 2.86916 7.45333 2.63457 7.68792C2.39998 7.92251 2.2139 8.20101 2.08694 8.50752C1.95998 8.81403 1.89463 9.14254 1.89463 9.4743V10.7375ZM4.42095 6.00062H7.57884C9.49726 6.00062 11.0525 7.55588 11.0525 9.4743V11.6848H0.947266V9.4743C0.947266 7.55588 2.50253 6.00062 4.42095 6.00062Z" fill="#02AD8F"/>
</svg>
