<svg width="48" height="48" viewBox="0 0 48 48" fill="none" xmlns="http://www.w3.org/2000/svg">
<circle cx="24" cy="24" r="24" fill="url(#paint0_linear)"/>
<path d="M30.4482 26.5588C29.35 28.16 27.8391 30.0818 26.5204 31.216C25.5646 32.0396 23.7971 33.3121 22.4043 33.0797C18.8172 32.4785 20.6949 21.7072 17.9395 20.5189C16.8433 20.0459 15.9435 21.3265 15.3724 20.9457C14.7613 20.5389 14.8915 19.9057 15.8434 19.1061C17.0197 18.1181 18.4044 16.7113 19.9595 17.3225C22.9855 18.5129 20.8092 28.5728 23.6928 30.1438C25.1838 28.9474 30.5864 22.3705 29.35 20.1842C28.7188 19.068 26.853 20.5529 26.0696 20.7313C26.0295 17.046 32.2257 15.002 32.881 19.8515C33.2938 22.9136 30.4482 26.5587 30.4482 26.5587L30.4482 26.5588Z" fill="white"/>
<defs>
<linearGradient id="paint0_linear" x1="18.5" y1="81" x2="18.5" y2="18" gradientUnits="userSpaceOnUse">
<stop offset="0.54137" stop-color="#FCA614"/>
<stop offset="1" stop-color="#FFCD31"/>
</linearGradient>
</defs>
</svg>
