<svg width="48" height="48" viewBox="0 0 48 48" fill="none" xmlns="http://www.w3.org/2000/svg">
<circle cx="24" cy="24" r="24" fill="url(#paint0_linear)"/>
<path d="M15.5 20.5836C14.5836 21.1664 14 22.25 14 23.5836C14 25.5 15.1664 27.0836 17.0836 27.0836C17.5 27.0836 17.8336 26.75 17.8336 26.3336V20.9164C17.8336 20.5836 17.5836 20.25 17.25 20.1664C18.4164 17.4164 21 15.5 24 15.5C27 15.5 29.5836 17.4164 30.75 20.1664C30.4164 20.25 30.1664 20.5 30.1664 20.9164V26.3336C30.1664 26.75 30.5 27.0836 30.9164 27.0836C31.0836 27.0836 31.25 27.0836 31.4164 27C31.1664 28.4164 30.5836 29.5 29.9164 30.25C29.5 30.75 29.1664 31.0836 28.8336 31.25C28.7081 31.3123 28.595 31.397 28.5 31.5C28.4164 31.5 28.4164 31.5 28.4164 31.5836H27C26.75 30.75 25.8336 30.1664 24.75 30.1664C23.5 30.1664 22.4164 31 22.4164 32.0836C22.4164 33.1664 23.4164 34 24.75 34C25.8336 34 26.6664 33.4164 27 32.5836H28.5C28.75 32.5836 28.8336 32.5 29 32.4164C29.1664 32.3336 29.3336 32.25 29.5 32.0836C29.9164 31.8336 30.3336 31.4164 30.8336 30.9164C31.6664 29.9164 32.4164 28.5 32.5836 26.5836C33.5 26 34 24.9164 34 23.6664C34 22.3336 33.4164 21.25 32.5 20.6664C31.4164 16.75 28 14 24 14C20 14 16.5836 16.75 15.5 20.5836Z" fill="white"/>
<defs>
<linearGradient id="paint0_linear" x1="18.5" y1="81" x2="18.5" y2="18" gradientUnits="userSpaceOnUse">
<stop offset="0.54137" stop-color="#2695FF"/>
<stop offset="1" stop-color="#53ABFF"/>
</linearGradient>
</defs>
</svg>
