<svg xmlns="http://www.w3.org/2000/svg" fill="none" viewBox="0 0 12 13" class="design-iconfont">
  <path d="M8.25021 7.58077C8.76018 7.58078 9.25503 7.77231 9.65375 8.12399C10.0525 8.47567 10.3314 8.96667 10.4449 9.51658H11.5005C11.628 9.51674 11.7505 9.57072 11.8432 9.66749C11.9359 9.76427 11.9917 9.89653 11.9991 10.0373C12.0066 10.178 11.9652 10.3166 11.8834 10.4247C11.8016 10.5328 11.6856 10.6022 11.559 10.6189L11.5005 10.6228L10.4444 10.6233C10.3305 11.1727 10.0514 11.663 9.65283 12.0141C9.25426 12.3653 8.75977 12.5565 8.25021 12.5565C7.74065 12.5565 7.24616 12.3653 6.84759 12.0141C6.44902 11.663 6.16995 11.1727 6.05601 10.6233L0.499492 10.6228C0.372041 10.6226 0.249453 10.5686 0.156776 10.4719C0.0640996 10.3751 0.00832935 10.2428 0.000860099 10.1021C-0.00660915 9.96136 0.0347865 9.82278 0.116589 9.71468C0.198392 9.60658 0.314427 9.5371 0.440987 9.52045L0.499492 9.51658H6.05551C6.16901 8.96667 6.44795 8.47567 6.84667 8.12399C7.24538 7.77231 7.74024 7.58078 8.25021 7.58077ZM8.25021 8.68695C7.91866 8.68695 7.60069 8.83263 7.36624 9.09194C7.1318 9.35125 7.00009 9.70295 7.00009 10.0697C7.00009 10.4364 7.1318 10.7881 7.36624 11.0474C7.60069 11.3067 7.91866 11.4524 8.25021 11.4524C8.58176 11.4524 8.89973 11.3067 9.13417 11.0474C9.36862 10.7881 9.50032 10.4364 9.50032 10.0697C9.50032 9.70295 9.36862 9.35125 9.13417 9.09194C8.89973 8.83263 8.58176 8.68695 8.25021 8.68695ZM3.74979 0.390625C4.82989 0.390625 5.73148 1.23132 5.95 2.35409H11.5005C11.628 2.35425 11.7505 2.40822 11.8432 2.505C11.9359 2.60177 11.9917 2.73403 11.9991 2.87476C12.0066 3.01549 11.9652 3.15406 11.8834 3.26217C11.8016 3.37027 11.6856 3.43974 11.559 3.45639L11.5005 3.46027L5.93849 3.46082C5.82022 4.00435 5.54001 4.48804 5.14299 4.83402C4.74597 5.18001 4.25523 5.36814 3.74979 5.36814C3.24435 5.36814 2.75362 5.18001 2.3566 4.83402C1.95957 4.48804 1.67937 4.00435 1.56109 3.46082L0.499492 3.46027C0.372041 3.46011 0.249453 3.40613 0.156776 3.30936C0.0640996 3.21258 0.00832935 3.08032 0.000860099 2.93959C-0.00660915 2.79886 0.0347865 2.66029 0.116589 2.55219C0.198392 2.44408 0.314427 2.37461 0.440987 2.35796L0.499492 2.35409H1.54959C1.65835 1.79804 1.93599 1.29996 2.3363 0.942725C2.7366 0.585491 3.23544 0.390649 3.74979 0.390625ZM3.74979 1.4968C3.41824 1.4968 3.10027 1.64248 2.86583 1.90179C2.63139 2.1611 2.49968 2.5128 2.49968 2.87952C2.49968 3.24624 2.63139 3.59794 2.86583 3.85725C3.10027 4.11656 3.41824 4.26224 3.74979 4.26224C4.08134 4.26224 4.39932 4.11656 4.63376 3.85725C4.8682 3.59794 4.99991 3.24624 4.99991 2.87952C4.99991 2.5128 4.8682 2.1611 4.63376 1.90179C4.39932 1.64248 4.08134 1.4968 3.74979 1.4968Z" fill="#454545"/>
</svg>
