<svg width="22" height="22" viewBox="0 0 22 22" fill="none" xmlns="http://www.w3.org/2000/svg">
<path d="M15.8264 19.9787H6.17336C5.1856 19.9787 4.37744 19.1706 4.37744 18.1828V3.81545C4.37744 2.82769 5.1856 2.01953 6.17336 2.01953H15.8264C16.8142 2.01953 17.6223 2.82769 17.6223 3.81545V18.1828C17.6223 19.1706 16.8142 19.9787 15.8264 19.9787ZM6.17336 2.91749C5.67948 2.91749 5.2754 3.32157 5.2754 3.81545V18.1828C5.2754 18.6767 5.67948 19.0808 6.17336 19.0808H15.8264C16.3203 19.0808 16.7244 18.6767 16.7244 18.1828V3.81545C16.7244 3.32157 16.3203 2.91749 15.8264 2.91749H6.17336Z" fill="#BFBFBF"/>
<path d="M13.2449 17.5112H8.75513C8.50819 17.5112 8.30615 17.3092 8.30615 17.0623C8.30615 16.8153 8.50819 16.6133 8.75513 16.6133H13.2449C13.4919 16.6133 13.6939 16.8153 13.6939 17.0623C13.6939 17.3092 13.4919 17.5112 13.2449 17.5112Z" fill="#BFBFBF"/>
</svg>
