<svg width="34" height="34" viewBox="0 0 34 34" fill="none" xmlns="http://www.w3.org/2000/svg">
<path d="M21.25 30.6945V29.7501H28.8056V30.6945H21.25ZM16.5278 25.0137L17.4723 25.0184V26.912H16.5278V25.0137ZM5.18976 29.7406L12.7453 29.7501V30.6945L5.18976 30.6851V29.7406Z" fill="#8BB5FF"/>
<path d="M0.477051 25.028V1.41686L33.5326 1.41211V25.0233L0.477051 25.028ZM32.5835 2.35654H1.41677V24.0835H32.5834V2.35661L32.5835 2.35654Z" fill="#8BB5FF"/>
<path d="M17.231 7.22545C17.077 7.32445 16.956 7.47845 16.879 7.65445C16.813 7.88545 16.824 8.12745 16.912 8.34745C16.978 8.57845 17.121 8.78745 17.319 8.93045C17.418 8.99645 17.528 9.04045 17.649 9.06245C17.77 9.07345 17.891 9.05145 18.001 8.99645C18.133 8.91945 18.232 8.80945 18.298 8.67745C18.353 8.54545 18.386 8.39145 18.397 8.24845C18.408 8.06145 18.386 7.87445 18.331 7.69845C18.265 7.50045 18.144 7.33545 17.968 7.22545C17.88 7.17045 17.781 7.13745 17.682 7.11545C17.583 7.10445 17.473 7.11545 17.385 7.14845C17.33 7.17045 17.275 7.20345 17.231 7.22545Z" fill="white"/>
<path d="M22.4779 14.7384C22.3789 14.2214 22.2359 13.7044 22.0379 13.2204C21.9059 12.8574 21.7189 12.5054 21.4989 12.1974C21.2679 11.8894 20.9819 11.6364 20.7619 11.3284C20.6409 11.1744 20.5419 10.9874 20.4209 10.8334C20.3659 10.7344 20.3219 10.6244 20.2779 10.5254C20.1349 10.2064 19.9919 9.8764 19.8159 9.5684C19.7939 9.5244 19.7609 9.4694 19.7279 9.4254C19.7059 9.1284 19.6729 8.8424 19.6619 8.5454C19.6729 7.9514 19.6289 7.3684 19.5189 6.7854C19.4419 6.5104 19.3209 6.2464 19.1669 5.9934C18.9909 5.7074 18.7599 5.4544 18.4849 5.2564C18.0449 4.9374 17.5169 4.7724 16.9669 4.7724C16.5709 4.7614 16.1749 4.8494 15.8119 5.0364C15.4379 5.2454 15.1409 5.5534 14.9429 5.9384C14.7669 6.3234 14.6679 6.7414 14.6679 7.1594C14.6569 7.5774 14.6899 7.9844 14.7119 8.4024C14.7229 8.8314 14.7229 9.2604 14.7559 9.6894C14.7669 9.8324 14.7889 9.9644 14.7779 10.1074V10.3274C14.5909 10.6464 14.3819 10.9544 14.1619 11.2404C14.0079 11.4384 13.8429 11.6364 13.6889 11.8344C13.4799 12.0654 13.3039 12.3294 13.1609 12.6044C13.0619 12.8464 12.9959 13.0994 12.9299 13.3524L12.9189 13.3744C12.8309 13.6604 12.7209 13.9464 12.5889 14.2214C12.5779 14.2434 12.5669 14.2764 12.5559 14.2984C12.4789 14.4634 12.3909 14.6284 12.3029 14.7824L12.2039 14.9694C12.1379 15.0794 12.0829 15.2004 12.0389 15.3104C12.0059 15.3764 11.9949 15.4534 11.9729 15.5304C11.9509 15.6954 11.9619 15.8494 12.0059 16.0034C12.0169 16.0474 12.0279 16.0804 12.0389 16.1244C12.0829 16.2344 12.1269 16.3554 12.1819 16.4544C12.2039 16.4984 12.2369 16.5534 12.2589 16.5974L12.2809 16.6304C12.3029 16.6744 12.3359 16.7184 12.3579 16.7624C12.3909 16.8174 12.4239 16.8614 12.4569 16.9164V16.9274C12.4899 16.9714 12.5229 17.0264 12.5669 17.0704C12.6989 17.5984 12.9519 18.0934 13.2929 18.5224C13.2379 18.6104 13.1939 18.7094 13.1389 18.7974C12.9519 19.0724 12.7979 19.3584 12.6769 19.6664C12.6219 19.8204 12.6109 19.9964 12.6439 20.1504C12.6769 20.3154 12.7539 20.4584 12.8859 20.5684C12.9739 20.6344 13.0729 20.6784 13.1829 20.7004C13.2929 20.7224 13.3919 20.7334 13.5019 20.7334C13.9089 20.7004 14.3159 20.6234 14.7009 20.4914C14.9319 20.4254 15.1739 20.3704 15.4159 20.3264C15.6689 20.2714 15.9109 20.2384 16.1749 20.2274C16.2409 20.2274 16.2959 20.2274 16.3619 20.2164C16.5379 20.2384 16.7029 20.2384 16.8789 20.2384H16.9449C16.9889 20.2384 17.0329 20.2494 17.0769 20.2494C17.3849 20.2714 17.6819 20.2934 17.9899 20.3374C18.2539 20.3814 18.5179 20.4254 18.7819 20.4914C19.1889 20.6124 19.5959 20.6894 20.0139 20.7334C20.1239 20.7334 20.2339 20.7334 20.3439 20.7114C20.4539 20.6894 20.5529 20.6454 20.6409 20.5794C20.7729 20.4694 20.8499 20.3264 20.8829 20.1614C20.9049 19.9964 20.8939 19.8314 20.8499 19.6664C20.7289 19.3584 20.5749 19.0614 20.3769 18.7974C20.3109 18.6874 20.2449 18.5664 20.1789 18.4564C20.4649 18.1374 20.7179 17.7854 20.9269 17.4224C21.0589 17.4334 21.1799 17.4114 21.3009 17.3784C21.6199 17.2684 21.9059 17.0594 22.0929 16.7844C22.1479 16.6964 22.1919 16.6084 22.2249 16.5094C22.3459 16.3114 22.4339 16.0914 22.4779 15.8604C22.5659 15.5084 22.5549 15.1234 22.4779 14.7384Z" fill="#020204"/>
<path d="M15.3936 9.52445C15.3386 9.60145 15.2946 9.67845 15.2726 9.77745C15.2506 9.86545 15.2396 9.96445 15.2396 10.0525C15.2506 10.2395 15.2286 10.4265 15.1956 10.6025C15.1296 10.7895 15.0306 10.9655 14.9096 11.1195C14.6896 11.3945 14.5246 11.6915 14.4036 12.0215C14.3486 12.2195 14.3266 12.4285 14.3486 12.6375C14.1286 12.9675 13.9306 13.3195 13.7766 13.6825C13.5346 14.2325 13.3696 14.8155 13.3036 15.4205C13.2266 16.1575 13.3366 16.9055 13.6116 17.5875C13.8206 18.0825 14.1396 18.5225 14.5356 18.8745C14.7446 19.0505 14.9646 19.2045 15.2066 19.3255C16.0646 19.7435 17.0766 19.7325 17.9236 19.3035C18.3526 19.0505 18.7376 18.7535 19.0786 18.3905C19.2986 18.1925 19.4966 17.9725 19.6616 17.7305C19.9476 17.2355 20.1126 16.6855 20.1456 16.1135C20.3216 15.1235 20.2116 14.1115 19.8376 13.1875C19.6836 12.8795 19.4966 12.5935 19.2546 12.3515C19.1886 11.9225 19.0676 11.4935 18.8806 11.0975C18.7486 10.8115 18.5836 10.5365 18.4626 10.2505C18.4076 10.1295 18.3746 10.0085 18.3086 9.89845C18.2536 9.77745 18.1876 9.66745 18.0886 9.57945C17.9896 9.49145 17.8796 9.42545 17.7476 9.38145C17.6266 9.33745 17.4946 9.31545 17.3626 9.31545C17.0986 9.30445 16.8346 9.33745 16.5706 9.32645C16.3616 9.31545 16.1526 9.28245 15.9436 9.29345C15.8336 9.29345 15.7346 9.31545 15.6356 9.35945C15.5476 9.38145 15.4596 9.44745 15.3936 9.52445ZM15.4816 7.22545C15.3826 7.23645 15.2836 7.26945 15.2176 7.34645C15.1516 7.41245 15.0966 7.50045 15.0636 7.59945C15.0086 7.78645 14.9976 7.99545 15.0306 8.18245C15.0306 8.35845 15.0636 8.53445 15.1186 8.71045C15.1516 8.79845 15.1956 8.87545 15.2616 8.93045C15.3276 8.99645 15.4046 9.04045 15.4926 9.06245C15.5696 9.08445 15.6576 9.08445 15.7456 9.05145C15.8226 9.02945 15.8996 8.98545 15.9546 8.91945C16.0426 8.83145 16.0976 8.72145 16.1306 8.60045C16.1636 8.47945 16.1746 8.35845 16.1746 8.23745C16.1746 8.08345 16.1526 7.92945 16.1086 7.78645C16.0646 7.64345 15.9876 7.50045 15.8776 7.39045C15.8226 7.33545 15.7676 7.29145 15.7016 7.25845C15.6356 7.24745 15.5586 7.22545 15.4816 7.22545ZM17.2306 7.22545C17.0766 7.32445 16.9556 7.47845 16.8786 7.65445C16.8126 7.88545 16.8236 8.12745 16.9116 8.34745C16.9776 8.57845 17.1206 8.78745 17.3186 8.93045C17.4176 8.99645 17.5276 9.04045 17.6486 9.06245C17.7696 9.07345 17.8906 9.05145 18.0006 8.99645C18.1326 8.91945 18.2316 8.80945 18.2976 8.67745C18.3526 8.54545 18.3856 8.39145 18.3966 8.24845C18.4076 8.06145 18.3856 7.87445 18.3306 7.69845C18.2646 7.50045 18.1436 7.33545 17.9676 7.22545C17.8796 7.17045 17.7806 7.13745 17.6816 7.11545C17.5826 7.10445 17.4726 7.11545 17.3846 7.14845C17.3296 7.17045 17.2746 7.20345 17.2306 7.22545Z" fill="white"/>
<path d="M17.5828 7.69748C17.5278 7.69748 17.4728 7.71948 17.4178 7.75248C17.3722 7.78713 17.3315 7.82784 17.2968 7.87348C17.2308 7.97248 17.1978 8.08248 17.1978 8.20348C17.1978 8.29148 17.2088 8.37948 17.2308 8.45648C17.2638 8.54448 17.3078 8.61048 17.3738 8.66548C17.4398 8.72048 17.5278 8.75348 17.6158 8.76448C17.7038 8.76448 17.7918 8.74248 17.8688 8.68748C17.9238 8.64348 17.9788 8.58848 18.0118 8.53348C18.0448 8.46748 18.0668 8.40148 18.0778 8.33548C18.0998 8.21448 18.0778 8.08248 18.0228 7.97248C17.9678 7.86248 17.8688 7.77448 17.7478 7.73048C17.6928 7.69748 17.6378 7.68648 17.5828 7.69748Z" fill="#020204"/>
<path d="M15.4823 7.22559C15.3833 7.23659 15.2843 7.26959 15.2183 7.34659C15.1523 7.41259 15.0973 7.50059 15.0643 7.59959C15.0093 7.78659 14.9983 7.99559 15.0313 8.18259C15.0313 8.35859 15.0643 8.53459 15.1193 8.71059C15.1523 8.79859 15.1963 8.87559 15.2623 8.93059C15.3283 8.99659 15.4053 9.04059 15.4933 9.06259C15.5703 9.08459 15.6583 9.08459 15.7463 9.05159C15.8233 9.02959 15.9003 8.98559 15.9553 8.91959C16.0433 8.83159 16.0983 8.72159 16.1313 8.60059C16.1643 8.47959 16.1753 8.35859 16.1753 8.23759C16.1753 8.08359 16.1533 7.92959 16.1093 7.78659C16.0653 7.64359 15.9883 7.50059 15.8783 7.39059C15.8233 7.33559 15.7683 7.29159 15.7023 7.25859C15.6363 7.24759 15.5593 7.22559 15.4823 7.22559Z" fill="white"/>
<path d="M15.2397 8.05032C15.2177 8.17132 15.2177 8.30332 15.2617 8.42432C15.2947 8.50132 15.3387 8.57832 15.3937 8.63332C15.4267 8.67732 15.4707 8.71032 15.5257 8.73232C15.5697 8.75432 15.6357 8.76532 15.6797 8.75432C15.7237 8.74332 15.7677 8.71032 15.8007 8.66632C15.8337 8.62232 15.8557 8.57832 15.8667 8.53432C15.9107 8.39132 15.9107 8.23732 15.8557 8.09432C15.8227 7.98432 15.7677 7.89632 15.6907 7.81932C15.6467 7.78632 15.6027 7.76432 15.5587 7.75332C15.5037 7.74232 15.4487 7.74232 15.4047 7.76432C15.3774 7.77528 15.3527 7.79165 15.3319 7.81244C15.3111 7.83324 15.2947 7.85803 15.2837 7.88532C15.2727 7.92932 15.2507 7.99532 15.2397 8.05032Z" fill="#020204"/>
<path d="M15.0087 9.59035C15.0087 9.60135 15.0197 9.62335 15.0307 9.63435C15.0417 9.65635 15.0637 9.67835 15.0967 9.70035C15.1187 9.72235 15.1407 9.73335 15.1737 9.74435C15.3057 9.83235 15.4157 9.94235 15.5037 10.0634C15.6137 10.2394 15.7567 10.3934 15.9107 10.5254C16.0317 10.6024 16.1747 10.6574 16.3177 10.6684C16.4827 10.6794 16.6587 10.6574 16.8237 10.6134C16.9777 10.5694 17.1207 10.5034 17.2527 10.4264C17.4837 10.2394 17.7367 10.0744 18.0007 9.93135C18.0667 9.90935 18.1217 9.88735 18.1877 9.86535C18.2537 9.84335 18.2977 9.79935 18.3307 9.73335C18.3527 9.67835 18.3637 9.61235 18.3637 9.54635C18.3747 9.48035 18.3967 9.41435 18.4077 9.34835C18.4187 9.28235 18.4187 9.21635 18.3967 9.15035C18.3747 9.09535 18.3307 9.06235 18.2757 9.02935C18.2207 9.00735 18.1767 8.99635 18.1217 8.98535C18.0117 8.98535 17.9017 8.99635 17.7917 9.01835C17.6487 9.02935 17.4947 9.01835 17.3517 9.01835C17.1647 9.01835 16.9887 9.06235 16.8017 9.07335C16.5927 9.08435 16.3837 9.05135 16.1747 9.04035C16.0867 9.04035 15.9877 9.04035 15.8997 9.05135C15.8117 9.06235 15.7237 9.09535 15.6467 9.15035C15.5807 9.20535 15.5147 9.26035 15.4487 9.32635C15.4157 9.35935 15.3827 9.38135 15.3387 9.40335C15.2947 9.42535 15.2507 9.43635 15.2067 9.43635H15.1407C15.1297 9.43635 15.1187 9.44735 15.1077 9.45835C15.0967 9.46935 15.0857 9.48035 15.0857 9.49135C15.0527 9.53535 15.0307 9.56835 15.0087 9.59035Z" fill="#D99A03"/>
<path d="M15.4705 9.12878C15.3935 9.17278 15.3275 9.21678 15.2505 9.27178C15.2175 9.29378 15.1845 9.32678 15.1625 9.37078C15.1515 9.40378 15.1405 9.43678 15.1405 9.45878V9.55778C15.1405 9.57978 15.1295 9.60178 15.1295 9.62378V9.65678C15.1295 9.66778 15.1405 9.67878 15.1405 9.68978C15.1515 9.70078 15.1625 9.71178 15.1735 9.71178C15.1845 9.71178 15.1955 9.72278 15.2175 9.72278C15.2835 9.74478 15.3385 9.77778 15.3935 9.82178C15.4485 9.86578 15.4925 9.92078 15.5365 9.96478C15.6795 10.0748 15.8665 10.1298 16.0425 10.1298C16.2185 10.1298 16.4055 10.0968 16.5815 10.0528C16.7245 10.0198 16.8565 9.98678 16.9885 9.94278C17.1975 9.86578 17.3845 9.75578 17.5495 9.61278C17.6155 9.54678 17.6925 9.48078 17.7805 9.42578C17.8575 9.38178 17.9345 9.34878 18.0115 9.30478C18.0225 9.30478 18.0225 9.29378 18.0335 9.29378C18.0445 9.29378 18.0445 9.28278 18.0445 9.27178V9.22778C18.0445 9.21678 18.0335 9.20578 18.0335 9.19478L18.0005 9.16178C17.9125 9.09578 17.8135 9.06278 17.7145 9.06278C17.6045 9.05178 17.5055 9.06278 17.4065 9.04078C17.3075 9.01878 17.2195 8.99678 17.1205 8.96378C17.0215 8.93078 16.9225 8.90878 16.8235 8.88678C16.5815 8.85378 16.3395 8.85378 16.1085 8.90878C15.8885 8.93078 15.6685 9.01878 15.4705 9.12878Z" fill="#604405"/>
<path d="M15.4487 8.87506C15.3387 8.95206 15.2507 9.04006 15.1627 9.13906C15.1187 9.19406 15.0747 9.26006 15.0527 9.32606C15.0417 9.38106 15.0197 9.43606 15.0197 9.49106C15.0197 9.51306 15.0087 9.53506 15.0087 9.55706V9.59006C15.0087 9.60106 15.0197 9.61206 15.0197 9.62306C15.0307 9.63406 15.0527 9.64506 15.0637 9.64506C15.0857 9.64506 15.0967 9.64506 15.1187 9.65606C15.1957 9.66706 15.2727 9.70006 15.3387 9.75506C15.4047 9.79906 15.4707 9.85406 15.5367 9.89806C15.6907 9.98606 15.8667 10.0411 16.0427 10.0411C16.2187 10.0411 16.4057 10.0301 16.5817 9.98606C16.7247 9.96406 16.8567 9.92006 16.9887 9.86506C17.1867 9.77706 17.3737 9.66706 17.5497 9.53506C17.6267 9.48006 17.7037 9.41406 17.7807 9.34806C17.8027 9.32606 17.8247 9.30406 17.8577 9.28206C17.8797 9.26006 17.9127 9.23806 17.9457 9.22706C18.0007 9.21606 18.0447 9.21606 18.0997 9.22706C18.1327 9.23806 18.1767 9.23806 18.2097 9.23806C18.2317 9.23806 18.2427 9.23806 18.2647 9.22706C18.2867 9.21606 18.2977 9.20506 18.3087 9.19406C18.3197 9.17206 18.3307 9.15006 18.3307 9.12806C18.3307 9.10606 18.3197 9.07306 18.3087 9.05106C18.2757 9.00706 18.2427 8.97406 18.1877 8.95206C18.1217 8.93006 18.0557 8.90806 17.9897 8.89706C17.7807 8.84206 17.5827 8.77606 17.3847 8.67706C17.2857 8.63306 17.1977 8.57806 17.0987 8.52306C16.9997 8.46806 16.9007 8.42406 16.8017 8.39106C16.5597 8.32506 16.3177 8.33606 16.0867 8.42406C15.8557 8.51206 15.6247 8.67706 15.4487 8.87506Z" fill="#F5BD0C"/>
<path d="M16.6477 8.58898C16.6587 8.63298 16.7247 8.62198 16.7687 8.64398C16.8017 8.66598 16.8347 8.69898 16.8677 8.69898C16.9007 8.69898 16.9557 8.68798 16.9667 8.65498C16.9777 8.61098 16.9007 8.57798 16.8567 8.55598C16.8017 8.53398 16.7357 8.52298 16.6697 8.55598C16.6587 8.55598 16.6477 8.57798 16.6477 8.58898ZM16.0097 8.56698C15.9657 8.55598 15.8777 8.63298 15.8997 8.67698C15.9107 8.68798 15.9327 8.70998 15.9437 8.69898C15.9547 8.68798 15.9877 8.64398 16.0097 8.62198C16.0427 8.61098 16.0317 8.56698 16.0097 8.56698Z" fill="#CD8907"/>
<path d="M23.8971 18.8413C23.8641 18.9403 23.8091 19.0283 23.7431 19.1053C23.5891 19.2703 23.4021 19.4023 23.1931 19.4903C22.8411 19.6553 22.5001 19.8313 22.1701 20.0293C21.9501 20.1723 21.7521 20.3373 21.5651 20.5133C21.4111 20.6673 21.2461 20.8213 21.0701 20.9533C20.8924 21.0863 20.6845 21.1732 20.4651 21.2063C20.1901 21.2393 19.9151 21.1953 19.6731 21.0853C19.4971 21.0193 19.3431 20.8983 19.2331 20.7443C19.1451 20.5793 19.1011 20.3813 19.1121 20.1943C19.1231 19.8533 19.1671 19.5233 19.2331 19.1933C19.2771 18.9183 19.3321 18.6433 19.3541 18.3683C19.4091 17.8623 19.4091 17.3453 19.3761 16.8393C19.3651 16.7513 19.3651 16.6633 19.3761 16.5863C19.3871 16.4103 19.5301 16.2783 19.7061 16.2783C19.7831 16.2783 19.8601 16.2783 19.9371 16.3003C20.1241 16.3223 20.3001 16.3553 20.4871 16.3993C20.5971 16.4323 20.7071 16.4653 20.8281 16.4983C21.0151 16.5533 21.2131 16.5753 21.4111 16.5533C21.6182 16.5096 21.8275 16.4766 22.0381 16.4543C22.1261 16.4543 22.2141 16.4763 22.2911 16.4983C22.3791 16.5203 22.4561 16.5643 22.5221 16.6303C22.5661 16.6743 22.6101 16.7403 22.6321 16.7953C22.6651 16.8833 22.6871 16.9823 22.6981 17.0813C22.6981 17.1693 22.7091 17.2573 22.7201 17.3453C22.7531 17.4883 22.8191 17.6203 22.9181 17.7303C23.0171 17.8403 23.1161 17.9393 23.2371 18.0273C23.3471 18.1153 23.4571 18.2143 23.5781 18.2913C23.6331 18.3243 23.6881 18.3683 23.7431 18.4123C23.7981 18.4563 23.8421 18.5003 23.8751 18.5663C23.9081 18.6543 23.9191 18.7533 23.8971 18.8413Z" fill="#F5BD0C"/>
<path d="M23.8973 18.8407C23.8643 18.9397 23.8093 19.0277 23.7433 19.1047C23.5893 19.2697 23.4023 19.4017 23.1933 19.4897C22.8413 19.6547 22.5003 19.8307 22.1703 20.0287C21.9503 20.1717 21.7523 20.3367 21.5653 20.5127C21.4113 20.6667 21.2463 20.8207 21.0703 20.9527C20.8927 21.0857 20.6848 21.1726 20.4653 21.2057C20.1903 21.2387 19.9153 21.1947 19.6733 21.0847C19.4973 21.0187 19.3433 20.8977 19.2333 20.7437C19.1453 20.5787 19.1013 20.3807 19.1123 20.1937C19.1233 19.8527 19.1673 19.5227 19.2333 19.1927C19.2773 18.9177 19.3323 18.6427 19.3543 18.3677C19.4093 17.8617 19.4093 17.3447 19.3763 16.8387C19.3653 16.7507 19.3653 16.6627 19.3763 16.5857C19.3873 16.4097 19.5303 16.2777 19.7063 16.2777C19.7833 16.2777 19.8603 16.2777 19.9373 16.2997C20.1243 16.3217 20.3003 16.3547 20.4873 16.3987C20.5973 16.4317 20.7073 16.4647 20.8283 16.4977C21.0153 16.5527 21.2133 16.5747 21.4113 16.5527C21.6185 16.5089 21.8278 16.4759 22.0383 16.4537C22.1263 16.4537 22.2143 16.4757 22.2913 16.4977C22.3793 16.5197 22.4563 16.5637 22.5223 16.6297C22.5663 16.6737 22.6103 16.7397 22.6323 16.7947C22.6653 16.8827 22.6873 16.9817 22.6983 17.0807C22.6983 17.1687 22.7093 17.2567 22.7203 17.3447C22.7533 17.4877 22.8193 17.6197 22.9183 17.7297C23.0173 17.8397 23.1163 17.9387 23.2373 18.0267C23.3473 18.1147 23.4573 18.2137 23.5783 18.2907C23.6333 18.3237 23.6883 18.3677 23.7433 18.4117C23.7983 18.4557 23.8423 18.4997 23.8753 18.5657C23.9083 18.6537 23.9193 18.7527 23.8973 18.8407ZM12.3473 16.0247C12.4353 15.9917 12.5343 15.9807 12.6333 16.0027C12.7323 16.0247 12.8203 16.0577 12.8973 16.1127C13.0513 16.2337 13.1833 16.3767 13.2823 16.5307C13.5463 16.8827 13.7883 17.2567 14.0193 17.6307C14.2063 17.9387 14.3713 18.2577 14.5803 18.5437C14.7233 18.7307 14.8773 18.9067 15.0093 19.0937C15.1523 19.2807 15.2623 19.4897 15.3283 19.7097C15.4053 20.0067 15.3723 20.3257 15.2403 20.5897C15.1413 20.7767 14.9873 20.9417 14.8113 21.0517C14.6243 21.1617 14.4153 21.2167 14.1953 21.2057C13.8543 21.1617 13.5353 21.0517 13.2273 20.8977C12.5893 20.6447 11.8853 20.5567 11.2253 20.3587C11.0273 20.2927 10.8183 20.2267 10.6203 20.1717C10.5323 20.1497 10.4333 20.1167 10.3563 20.0837C10.2683 20.0507 10.1913 19.9847 10.1473 19.9077C10.1143 19.8417 10.0923 19.7647 10.0923 19.6987C10.0923 19.6217 10.1143 19.5557 10.1363 19.4897C10.1913 19.3577 10.2683 19.2257 10.3233 19.0937C10.4003 18.8737 10.4333 18.6317 10.4113 18.3897C10.4003 18.1477 10.3563 17.9167 10.3453 17.6747C10.3343 17.5647 10.3343 17.4657 10.3563 17.3557C10.3893 17.1467 10.5433 16.9817 10.7633 16.9487C10.8623 16.9267 10.9613 16.9267 11.0603 16.9267H11.3573C11.4563 16.9267 11.5553 16.8937 11.6433 16.8497C11.7203 16.8057 11.7973 16.7397 11.8413 16.6627C11.8963 16.5857 11.9403 16.5087 11.9843 16.4207C12.0283 16.3327 12.0833 16.2557 12.1383 16.1897C12.1823 16.1237 12.2593 16.0577 12.3473 16.0247Z" fill="#F5BD0C"/>
<path d="M12.3473 16.0247C12.4353 15.9917 12.5343 15.9807 12.6333 16.0027C12.7323 16.0247 12.8203 16.0577 12.8973 16.1127C13.0513 16.2337 13.1833 16.3767 13.2823 16.5307C13.5463 16.8827 13.7883 17.2567 14.0193 17.6307C14.2063 17.9387 14.3713 18.2577 14.5803 18.5437C14.7233 18.7307 14.8773 18.9067 15.0093 19.0937C15.1523 19.2807 15.2623 19.4897 15.3283 19.7097C15.4053 20.0067 15.3723 20.3257 15.2403 20.5897C15.1413 20.7767 14.9873 20.9417 14.8113 21.0517C14.6243 21.1617 14.4153 21.2167 14.1953 21.2057C13.8543 21.1617 13.5353 21.0517 13.2273 20.8977C12.5893 20.6447 11.8853 20.5567 11.2253 20.3587C11.0273 20.2927 10.8183 20.2267 10.6203 20.1717C10.5323 20.1497 10.4333 20.1167 10.3563 20.0837C10.2683 20.0507 10.1913 19.9847 10.1473 19.9077C10.1143 19.8417 10.0923 19.7647 10.0923 19.6987C10.0923 19.6217 10.1143 19.5557 10.1363 19.4897C10.1913 19.3577 10.2683 19.2257 10.3233 19.0937C10.4003 18.8737 10.4333 18.6317 10.4113 18.3897C10.4003 18.1477 10.3563 17.9167 10.3453 17.6747C10.3343 17.5647 10.3343 17.4657 10.3563 17.3557C10.3893 17.1467 10.5433 16.9817 10.7633 16.9487C10.8623 16.9267 10.9613 16.9267 11.0603 16.9267H11.3573C11.4563 16.9267 11.5553 16.8937 11.6433 16.8497C11.7203 16.8057 11.7973 16.7397 11.8413 16.6627C11.8963 16.5857 11.9403 16.5087 11.9843 16.4207C12.0283 16.3327 12.0833 16.2557 12.1383 16.1897C12.1823 16.1237 12.2593 16.0577 12.3473 16.0247Z" fill="#F5BD0C"/>
<path d="M12.4787 16.179C12.5557 16.146 12.6547 16.146 12.7317 16.157C12.8197 16.179 12.8967 16.212 12.9627 16.267C13.0947 16.377 13.2047 16.52 13.2817 16.674C13.5017 17.026 13.7217 17.389 13.9197 17.763C14.0627 18.049 14.2277 18.313 14.4147 18.577C14.5357 18.742 14.6787 18.896 14.8107 19.072C14.9427 19.237 15.0417 19.424 15.1077 19.622C15.1847 19.886 15.1517 20.172 15.0197 20.414C14.9317 20.59 14.7887 20.733 14.6237 20.832C14.4587 20.931 14.2607 20.975 14.0627 20.975C13.7547 20.931 13.4577 20.832 13.1717 20.7C12.6107 20.502 12.0057 20.469 11.4337 20.315C11.2247 20.26 11.0267 20.183 10.8177 20.128C10.7297 20.106 10.6307 20.084 10.5427 20.051C10.4547 20.018 10.3777 19.952 10.3227 19.875C10.2897 19.809 10.2677 19.743 10.2787 19.677C10.2787 19.611 10.3007 19.534 10.3227 19.468C10.3777 19.336 10.4547 19.215 10.4987 19.083C10.5647 18.885 10.5977 18.665 10.5757 18.456C10.5647 18.247 10.5207 18.038 10.5097 17.818C10.4987 17.719 10.5097 17.631 10.5207 17.532C10.5427 17.433 10.5867 17.356 10.6527 17.279C10.7297 17.213 10.8287 17.169 10.9277 17.147C11.0301 17.136 11.1333 17.136 11.2357 17.147C11.3347 17.158 11.4447 17.169 11.5437 17.158C11.6427 17.158 11.7527 17.125 11.8407 17.07C11.9177 17.015 11.9837 16.938 12.0167 16.861C12.0607 16.773 12.0937 16.696 12.1267 16.608C12.1597 16.52 12.2037 16.432 12.2477 16.355C12.3247 16.278 12.4017 16.212 12.4787 16.179Z" fill="#F5BD0C"/>
<path d="M18.8422 28.9263C18.7008 28.5531 18.4493 28.2317 18.121 28.0049C17.7927 27.7781 17.4031 27.6565 17.004 27.6562C16.605 27.6563 16.2154 27.7778 15.8871 28.0046C15.5587 28.2314 15.3072 28.5527 15.1658 28.9259C14.8775 29.0022 14.6268 29.1808 14.4604 29.4283C14.294 29.6759 14.2234 29.9755 14.2616 30.2713C14.2999 30.5672 14.4444 30.8389 14.6683 31.036C14.8922 31.2331 15.1802 31.342 15.4784 31.3424H18.5273C18.8259 31.343 19.1145 31.2347 19.3391 31.0378C19.5637 30.8409 19.7088 30.569 19.7474 30.2729C19.786 29.9767 19.7154 29.6767 19.5488 29.4288C19.3822 29.181 19.131 29.0023 18.8422 28.9263ZM19.0652 30.6524C18.9947 30.7233 18.9109 30.7796 18.8186 30.8179C18.7262 30.8563 18.6272 30.8759 18.5273 30.8757H15.4784C15.3785 30.876 15.2795 30.8564 15.1872 30.8181C15.0948 30.7798 15.011 30.7236 14.9405 30.6528C14.8697 30.5822 14.8135 30.4982 14.7752 30.4057C14.7369 30.3133 14.7174 30.2142 14.7176 30.1141C14.7176 29.9419 14.7734 29.7803 14.8784 29.645C14.9807 29.5141 15.1254 29.4189 15.2846 29.3765L15.5174 29.3159L15.6027 29.091C15.7099 28.8103 15.8984 28.568 16.1441 28.3951C16.3957 28.2177 16.6962 28.1228 17.004 28.1234C17.3147 28.1234 17.6115 28.2177 17.8643 28.3947C18.1099 28.5677 18.2983 28.81 18.4054 29.0906L18.4903 29.3151L18.7223 29.3769C18.8516 29.4115 18.9695 29.4796 19.0641 29.5742C19.1588 29.6688 19.2269 29.7867 19.2617 29.916C19.2964 30.0452 19.2965 30.1813 19.262 30.3107C19.2275 30.44 19.1596 30.558 19.0652 30.6528V30.6524Z" fill="#2773F9" stroke="#2773F9" stroke-width="0.43"/>
</svg>
