<svg width="20" height="20" viewBox="0 0 20 20" fill="none" xmlns="http://www.w3.org/2000/svg">
<path d="M16.6389 14.3535H3.36111C2.88704 14.3535 2.5 13.9665 2.5 13.4924V3.82205C2.5 3.34797 2.88704 2.96094 3.36111 2.96094H16.6389C17.113 2.96094 17.5 3.34797 17.5 3.82205V13.4906C17.5 13.9665 17.113 14.3535 16.6389 14.3535ZM3.36111 3.79427C3.3463 3.79427 3.33333 3.80723 3.33333 3.82205V13.4906C3.33333 13.5054 3.3463 13.5183 3.36111 13.5183H16.6389C16.6537 13.5183 16.6667 13.5054 16.6667 13.4906V3.82205C16.6667 3.80723 16.6537 3.79427 16.6389 3.79427H3.36111Z" fill="#BFBFBF"/>
<path d="M17.0833 12.1458H2.91667C2.68704 12.1458 2.5 11.9588 2.5 11.7292C2.5 11.4995 2.68704 11.3125 2.91667 11.3125H17.0833C17.313 11.3125 17.5 11.4995 17.5 11.7292C17.5 11.9588 17.313 12.1458 17.0833 12.1458ZM10 17.0366C9.77037 17.0366 9.58333 16.8495 9.58333 16.6199V14.0792C9.58333 13.8495 9.77037 13.6625 10 13.6625C10.2296 13.6625 10.4167 13.8495 10.4167 14.0792V16.6218C10.4167 16.8514 10.2296 17.0366 10 17.0366Z" fill="#BFBFBF"/>
<path d="M12.7555 17.0365H7.24626C7.01663 17.0365 6.82959 16.8494 6.82959 16.6198C6.82959 16.3902 7.01663 16.2031 7.24626 16.2031H12.7555C12.9851 16.2031 13.1722 16.3902 13.1722 16.6198C13.1722 16.8494 12.9851 17.0365 12.7555 17.0365Z" fill="#BFBFBF"/>
</svg>
