<svg width="32" height="32" viewBox="0 0 32 32" fill="none" xmlns="http://www.w3.org/2000/svg">
<rect width="32" height="32" rx="2" fill="#0F1932"/>
<g clip-path="url(#clip0)">
<path d="M6.02197 15.3802H15.4256V5.97656H6.02197V15.3802ZM8.37289 8.32746H13.0747V13.0293H8.37289V8.32746ZM16.601 5.97656V15.3802H26.0047V5.97656H16.601ZM23.6537 13.0293H18.9519V8.32746H23.6537V13.0293ZM9.54833 11.8538H11.8992V9.5029H9.54833V11.8538ZM6.02197 25.9592H15.4256V16.5556H6.02197V25.9592ZM8.37289 18.9065H13.0747V23.6083H8.37289V18.9065ZM22.4783 9.5029H20.1274V11.8538H22.4783V9.5029H22.4783ZM16.601 25.9592H18.9519V23.6083H16.601V25.9592ZM18.9519 18.9065V23.6083H21.3028V18.9065H18.9519ZM23.6537 23.6083H21.3028V25.9592H26.0046V21.2574H23.6537V23.6083ZM23.6537 18.9065H26.0046V16.5556H23.6537V18.9065ZM16.601 16.5556V18.9065H18.9519V16.5556H16.601ZM9.54833 22.4329H11.8992V20.082H9.54833V22.4329Z" fill="white"/>
</g>
<defs>
<clipPath id="clip0">
<rect width="20" height="20" fill="white" transform="translate(6 6)"/>
</clipPath>
</defs>
</svg>
