<svg xmlns="http://www.w3.org/2000/svg" fill="none" viewBox="0 0 12 13" class="design-iconfont">
  <path d="M10.2433 10.7511L10.2432 10.751L10.2433 10.7511Z" stroke="#454545" stroke-width="2.5"/>
  <path d="M4.38544 7.26034C4.08395 7.26034 3.79641 7.10663 3.59753 6.83795C3.41765 6.5971 3.31885 6.28121 3.31885 5.94959C3.31885 5.61797 3.41765 5.30209 3.59753 5.06124C3.79767 4.79255 4.08522 4.63884 4.38544 4.63884C4.68565 4.63884 4.97447 4.79255 5.17334 5.06124C5.35322 5.30209 5.45202 5.61797 5.45202 5.94959C5.45202 6.28121 5.35322 6.5971 5.17334 6.83795C4.97447 7.10663 4.68692 7.26034 4.38544 7.26034ZM4.38544 5.24399C4.18023 5.24399 3.95221 5.53325 3.95221 5.94959C3.95221 6.36593 4.18023 6.65519 4.38544 6.65519C4.59065 6.65519 4.81866 6.36593 4.81866 5.94959C4.81866 5.53325 4.59065 5.24399 4.38544 5.24399ZM7.70681 9.7729C7.40532 9.7729 7.11777 9.6192 6.9189 9.35051C6.73902 9.10966 6.64022 8.79378 6.64022 8.46216C6.64022 8.13054 6.73902 7.81465 6.9189 7.5738C7.11904 7.30512 7.40659 7.15141 7.70681 7.15141C8.00702 7.15141 8.29584 7.30512 8.49471 7.5738C8.67459 7.81465 8.77339 8.13054 8.77339 8.46216C8.77339 8.79378 8.67459 9.10966 8.49471 9.35051C8.29584 9.61799 8.00829 9.7729 7.70681 9.7729ZM7.70681 7.75535C7.50159 7.75535 7.27358 8.04461 7.27358 8.46095C7.27358 8.87729 7.50159 9.16655 7.70681 9.16655C7.91202 9.16655 8.14003 8.87729 8.14003 8.46095C8.14003 8.04461 7.91202 7.75535 7.70681 7.75535ZM4.38421 9.46646L7.28794 4.31836L7.84549 4.60544L4.94176 9.75354L4.38421 9.46646Z" fill="#454545"/>
</svg>
