<svg width="16" height="16" viewBox="0 0 16 16" fill="none" xmlns="http://www.w3.org/2000/svg">
<path d="M12.3125 9.37731C12.0477 9.37731 11.8325 9.16211 11.8325 8.89731V4.85891C11.8325 4.59411 12.0477 4.37891 12.3125 4.37891C13.6909 4.37891 14.8117 5.50051 14.8117 6.87811C14.8117 8.25571 13.6909 9.37731 12.3125 9.37731ZM12.7925 5.41491V8.34051C13.4069 8.13811 13.8517 7.55891 13.8517 6.87731C13.8517 6.19571 13.4069 5.61731 12.7925 5.41491Z" fill="#02AD8F"/>
<path d="M12.2151 1.18698C12.0379 1.07121 11.8345 1.00164 11.6235 0.984589C11.4125 0.967542 11.2006 1.00357 11.0071 1.08938L6.15269 3.23578H3.82469C2.61189 3.23578 1.62549 4.22218 1.62549 5.43498V8.33978C1.62549 9.30058 2.24469 10.119 3.10549 10.4174V13.8214C3.10549 14.6014 3.74069 15.2366 4.52069 15.2366H4.66069C5.44069 15.2366 6.07589 14.6014 6.07589 13.8214V10.539H6.14949L10.9903 12.7662C11.1607 12.8446 11.3423 12.883 11.5223 12.883C11.7615 12.883 11.9983 12.815 12.2071 12.6814C12.5735 12.4462 12.7927 12.0462 12.7927 11.611V2.25258C12.7927 1.82138 12.5767 1.42298 12.2151 1.18698ZM2.58549 8.33978V5.43498C2.58549 4.75178 3.14149 4.19578 3.82469 4.19578H5.68629V9.57178C5.65669 9.56618 5.62629 9.56298 5.59589 9.56298H3.62949C3.03909 9.46858 2.58549 8.95658 2.58549 8.33978ZM5.11589 13.8222C5.11589 14.0734 4.91189 14.2774 4.66069 14.2774H4.52069C4.26949 14.2774 4.06549 14.0734 4.06549 13.8222V10.5398H5.11589V13.8222ZM11.8327 11.6118C11.8327 11.7654 11.7327 11.8462 11.6895 11.8742C11.6463 11.9022 11.5311 11.959 11.3911 11.895L6.64629 9.71178V4.06698L11.3951 1.96778C11.5351 1.90618 11.6487 1.96378 11.6911 1.99178C11.7335 2.01978 11.8327 2.10058 11.8327 2.25258V11.6118Z" fill="white"/>
</svg>
