<svg width="42" height="42" viewBox="0 0 42 42" fill="none" xmlns="http://www.w3.org/2000/svg">
<circle cx="21" cy="21" r="21" fill="#F4F8FF"/>
<path d="M23.7501 29.8614V29.2503H28.639V29.8614H23.7501ZM20.6946 26.1855L21.3057 26.1886V27.4139H20.6946V26.1855ZM13.3582 29.2442L18.2471 29.2503V29.8614L13.3582 29.8553V29.2442Z" fill="#8BB5FF"/>
<path d="M10.3087 26.1949V10.9171L31.6976 10.9141V26.1919L10.3087 26.1949ZM31.0835 11.5252H10.9168V25.5838H31.0834V11.5252L31.0835 11.5252Z" fill="#8BB5FF"/>
<path d="M22.0694 30.7753H19.7777C19.3041 30.6837 18.858 30.2498 18.858 29.7578C18.858 29.2445 19.1941 28.8137 19.625 28.7953C19.625 28.1995 20.4102 27.7289 20.9969 27.7289C21.6477 27.7289 22.0266 28.1567 22.2222 28.6426C22.7447 28.7403 23.1419 29.1131 23.1419 29.6539C23.1358 30.2376 22.6408 30.7203 22.0694 30.7753ZM21.828 29.1253C21.7853 28.7006 21.5469 28.3339 20.9969 28.3339C20.2453 28.3339 20.1414 28.9206 20.0253 29.1253C19.8114 29.1742 19.4875 29.3728 19.4692 29.6509C19.4386 30.1459 20.0253 30.1826 20.0253 30.1826H21.8342C22.1703 30.1826 22.5308 29.9901 22.5308 29.6509C22.5247 29.2751 22.1641 29.1192 21.828 29.1253ZM16.0867 22.0487L20.0527 22.6231V18.8251H16.0867V22.0487ZM16.0867 18.2842H20.0527V14.4862L16.0867 15.0606V18.2842ZM20.5967 22.6995L25.9194 23.4695V18.8251H20.5967V22.6995ZM20.5967 14.4098V18.2842H25.9194V13.6367L20.5967 14.4098Z" fill="#2773F9"/>
</svg>
