<svg width="13" height="13" viewBox="0 0 13 13" fill="none" xmlns="http://www.w3.org/2000/svg">
<path d="M10.4367 11.752H2.71342C1.88727 11.752 1.21582 11.0799 1.21582 10.2544V2.70072C1.21582 1.87457 1.88792 1.20312 2.71342 1.20312H6.26177C6.47692 1.20312 6.65177 1.37798 6.65177 1.59313C6.65177 1.80828 6.47692 1.98312 6.26177 1.98312H2.71342C2.31757 1.98312 1.99582 2.30488 1.99582 2.70072V10.2544C1.99582 10.6502 2.31757 10.972 2.71342 10.972H10.4367C10.8326 10.972 11.1543 10.6502 11.1543 10.2544V6.77168C11.1543 6.55653 11.3292 6.38168 11.5443 6.38168C11.7595 6.38168 11.9343 6.55653 11.9343 6.77168V10.2544C11.9343 11.0799 11.2622 11.752 10.4367 11.752Z" fill="white"/>
<path d="M11.544 4.77293C11.3288 4.77293 11.154 4.59808 11.154 4.38293V2.47973C11.154 2.20607 10.9317 1.98313 10.658 1.98313H8.70152C8.48637 1.98313 8.31152 1.80828 8.31152 1.59313C8.31152 1.37798 8.48637 1.20312 8.70152 1.20312H10.658C11.362 1.20312 11.934 1.77577 11.934 2.47973V4.38293C11.934 4.59808 11.7598 4.77293 11.544 4.77293Z" fill="#02AD8F"/>
<path d="M6.57484 6.8687C6.47344 6.8687 6.37269 6.8297 6.29599 6.7517C6.14519 6.59765 6.14779 6.35065 6.30184 6.2005L10.9318 1.6661C11.0858 1.5153 11.3328 1.5179 11.483 1.67195C11.6338 1.826 11.6312 2.073 11.4771 2.22315L6.84719 6.75755C6.77451 6.82892 6.67669 6.86884 6.57484 6.8687Z" fill="#02AD8F"/>
</svg>
