<svg width="13" height="13" viewBox="0 0 13 13" fill="none" xmlns="http://www.w3.org/2000/svg">
<path d="M10.4365 11.752H2.71318C1.88703 11.752 1.21558 11.0799 1.21558 10.2544V2.70072C1.21558 1.87457 1.88768 1.20312 2.71318 1.20312H6.26153C6.47668 1.20312 6.65153 1.37798 6.65153 1.59313C6.65153 1.80828 6.47668 1.98312 6.26153 1.98312H2.71318C2.31733 1.98312 1.99558 2.30488 1.99558 2.70072V10.2544C1.99558 10.6502 2.31733 10.972 2.71318 10.972H10.4365C10.8323 10.972 11.1541 10.6502 11.1541 10.2544V6.77168C11.1541 6.55653 11.3289 6.38168 11.5441 6.38168C11.7592 6.38168 11.9341 6.55653 11.9341 6.77168V10.2544C11.9341 11.0799 11.262 11.752 10.4365 11.752Z" fill="white"/>
<path d="M11.5442 4.77293C11.3291 4.77293 11.1542 4.59808 11.1542 4.38293V2.47973C11.1542 2.20607 10.9319 1.98313 10.6583 1.98313H8.70177C8.48662 1.98313 8.31177 1.80828 8.31177 1.59313C8.31177 1.37798 8.48662 1.20312 8.70177 1.20312H10.6583C11.3622 1.20312 11.9342 1.77577 11.9342 2.47973V4.38293C11.9342 4.59808 11.76 4.77293 11.5442 4.77293Z" fill="#02AD8F"/>
<path d="M6.57508 6.8687C6.47368 6.8687 6.37293 6.8297 6.29623 6.7517C6.14543 6.59765 6.14803 6.35065 6.30208 6.2005L10.932 1.6661C11.0861 1.5153 11.3331 1.5179 11.4832 1.67195C11.634 1.826 11.6314 2.073 11.4774 2.22315L6.84743 6.75755C6.77476 6.82892 6.67693 6.86884 6.57508 6.8687Z" fill="#02AD8F"/>
</svg>
