<svg width="3" height="13" viewBox="0 0 3 13" fill="none" xmlns="http://www.w3.org/2000/svg">
<path d="M0.5625 1.8125C0.5625 2.06114 0.661272 2.2996 0.837088 2.47541C1.0129 2.65123 1.25136 2.75 1.5 2.75C1.74864 2.75 1.9871 2.65123 2.16291 2.47541C2.33873 2.2996 2.4375 2.06114 2.4375 1.8125C2.4375 1.56386 2.33873 1.3254 2.16291 1.14959C1.9871 0.973772 1.74864 0.875 1.5 0.875C1.25136 0.875 1.0129 0.973772 0.837088 1.14959C0.661272 1.3254 0.5625 1.56386 0.5625 1.8125Z" fill="white"/>
<path d="M0.5625 6.5C0.5625 6.74864 0.661272 6.9871 0.837088 7.16291C1.0129 7.33873 1.25136 7.4375 1.5 7.4375C1.74864 7.4375 1.9871 7.33873 2.16291 7.16291C2.33873 6.9871 2.4375 6.74864 2.4375 6.5C2.4375 6.25136 2.33873 6.0129 2.16291 5.83709C1.9871 5.66127 1.74864 5.5625 1.5 5.5625C1.25136 5.5625 1.0129 5.66127 0.837088 5.83709C0.661272 6.0129 0.5625 6.25136 0.5625 6.5Z" fill="white"/>
<path d="M0.5625 11.1875C0.5625 11.4361 0.661272 11.6746 0.837088 11.8504C1.0129 12.0262 1.25136 12.125 1.5 12.125C1.74864 12.125 1.9871 12.0262 2.16291 11.8504C2.33873 11.6746 2.4375 11.4361 2.4375 11.1875C2.4375 10.9389 2.33873 10.7004 2.16291 10.5246C1.9871 10.3488 1.74864 10.25 1.5 10.25C1.25136 10.25 1.0129 10.3488 0.837088 10.5246C0.661272 10.7004 0.5625 10.9389 0.5625 11.1875Z" fill="white"/>
</svg>
