<svg width="20" height="20" viewBox="0 0 20 20" fill="none" xmlns="http://www.w3.org/2000/svg">
<path d="M10 20C7.34784 20 4.8043 18.9464 2.92893 17.0711C1.05357 15.1957 0 12.6522 0 10C0 7.34784 1.05357 4.8043 2.92893 2.92893C4.8043 1.05357 7.34784 0 10 0C12.6522 0 15.1957 1.05357 17.0711 2.92893C18.9464 4.8043 20 7.34784 20 10C20 12.6522 18.9464 15.1957 17.0711 17.0711C15.1957 18.9464 12.6522 20 10 20ZM10 18.5714C11.1256 18.5714 12.2402 18.3497 13.2801 17.919C14.3201 17.4882 15.265 16.8568 16.0609 16.0609C16.8568 15.265 17.4882 14.3201 17.919 13.2801C18.3497 12.2402 18.5714 11.1256 18.5714 10C18.5714 8.87438 18.3497 7.75979 17.919 6.71986C17.4882 5.67992 16.8568 4.73502 16.0609 3.93908C15.265 3.14315 14.3201 2.51179 13.2801 2.08103C12.2402 1.65028 11.1256 1.42857 10 1.42857C7.72672 1.42857 5.54654 2.33163 3.93908 3.93908C2.33163 5.54654 1.42857 7.72672 1.42857 10C1.42857 12.2733 2.33163 14.4535 3.93908 16.0609C5.54654 17.6684 7.72672 18.5714 10 18.5714ZM9.28571 14.2857H10.7143V15.7143H9.28571V14.2857ZM9.28571 4.28571H10.7143V12.8571H9.28571V4.28571Z" fill="#F24845"/>
</svg>
