<svg width="12" height="12" viewBox="0 0 12 12" fill="none" xmlns="http://www.w3.org/2000/svg">
<path d="M0 6C0 2.68625 2.68625 0 6 0C9.31375 0 12 2.68625 12 6C12 9.31375 9.31375 12 6 12C2.68781 11.9963 0.00375 9.31219 0 6ZM0.922656 6C0.922656 8.80406 3.19578 11.0773 6 11.0773C8.80422 11.0773 11.0773 8.80406 11.0773 6C11.0773 3.19594 8.80406 0.922656 6 0.922656C3.19703 0.925625 0.925625 3.19703 0.922656 6ZM4.46141 7.21797V4.78203C4.46141 4.41391 4.75984 4.11531 5.12797 4.11531C5.23906 4.11531 5.34844 4.14312 5.44609 4.19609L7.69016 5.41406C8.01391 5.58922 8.13438 5.99391 7.95922 6.31766C7.89757 6.43157 7.80407 6.52507 7.69016 6.58672L5.44609 7.80406C5.1225 7.97969 4.71781 7.85969 4.54219 7.53609C4.48906 7.43849 4.46128 7.3291 4.46141 7.21797Z" fill="white"/>
</svg>
