<svg width="22" height="22" viewBox="0 0 22 22" fill="none" xmlns="http://www.w3.org/2000/svg">
<circle cx="11" cy="11" r="11" fill="#CAE6FF"/>
<path d="M12.1118 14.9222C12.1333 14.9091 12.3683 14.7608 12.4368 14.719C12.5454 14.6509 12.6582 14.5896 12.7743 14.5354C13.5122 14.1965 14.1632 14.436 15.0242 15.4507C15.5562 16.0785 15.7142 16.6358 15.5082 17.1315C15.3552 17.5021 15.0602 17.7583 14.5352 18.0745C14.5012 18.0947 14.1987 18.2722 14.1212 18.3206C12.8987 19.0811 10.0963 17.3398 8.08125 14.3639C6.06176 11.38 5.53876 8.19947 6.77776 7.4274L6.94126 7.32302L7.11876 7.20703C7.74425 6.79754 8.14475 6.63466 8.62075 6.71535C9.09575 6.79754 9.49925 7.15156 9.84075 7.79705C10.5608 9.16166 10.4023 9.80917 9.47575 10.3977C9.40875 10.4411 9.17225 10.5848 9.15025 10.5994C8.92325 10.7406 9.30775 11.6902 10.2018 13.0099C11.1068 14.3453 11.8633 15.0755 12.1113 14.9217H12.1118V14.9222Z" fill="#2695FF"/>
</svg>
