<svg width="59" height="40" viewBox="0 0 59 40" fill="none" xmlns="http://www.w3.org/2000/svg">
<path d="M54.0677 39.7072V38.9543H57.2716V35.7685H58.0281V39.7072H54.0677ZM57.2716 1.0537H54.0677V0.300781H58.0281V4.23654H57.2716V1.0537ZM54.448 3.43478C54.6509 3.63519 54.8119 3.87399 54.9216 4.13726C55.0312 4.40052 55.0874 4.68299 55.0868 4.96818V34.5468C55.0863 35.7431 54.1107 36.7132 52.9069 36.7142H4.7525C3.54889 36.7125 2.57378 35.7429 2.57259 34.5468V4.96818C2.57428 3.77231 3.54939 2.80352 4.7525 2.80206H52.9079C53.4879 2.80206 54.0348 3.02643 54.448 3.43478ZM52.909 3.76096H4.7525V3.76173C4.08178 3.76246 3.53823 4.30259 3.53754 4.96918V34.5478C3.53754 35.2132 4.08275 35.7563 4.7525 35.7563H52.9069C53.5766 35.7563 54.1228 35.2142 54.1228 34.5478V4.96818C54.1228 4.64589 53.9963 4.342 53.7669 4.11373C53.5378 3.88894 53.23 3.76238 52.909 3.76096ZM35.1155 28.6787C35.1551 26.7868 35.5055 23.558 37.3998 21.9153L40.008 21.939L42.4505 25.9439L42.9108 22.9491L42.5779 22.4061L42.6028 21.8481C43.0861 21.8162 43.571 21.8168 44.0542 21.85L44.0813 22.4081L43.7493 22.9508L44.2116 25.9698L46.1087 21.9199L48.9938 21.8222C50.4849 23.2233 51.4412 26.5249 51.2066 28.6787H35.1155V28.6787ZM47.2472 17.5683C47.0485 18.274 46.8161 18.9281 46.4832 19.4765C46.1028 20.1094 45.5999 20.5964 44.8891 20.8584C44.5714 20.9726 43.7599 21.0272 42.9792 21.0137C42.2266 21.0042 41.47 20.9295 41.169 20.7912C40.5225 20.4967 40.0679 19.9991 39.7253 19.3807C39.4301 18.8521 39.2207 18.2366 39.0362 17.5864C38.7342 17.4293 38.5074 17.1616 38.3539 16.7963C38.1871 16.3992 38.1109 15.8775 38.1206 15.259L38.1235 15.0479L38.3 14.9309C38.344 14.9012 38.3891 14.8731 38.4351 14.8467C38.2364 12.4166 38.3116 11.5181 39.2197 10.491C40.9903 9.05047 45.0491 9.10146 46.842 10.4074C48.0637 11.5544 48.1486 12.8394 47.7733 14.8226C47.833 14.8567 47.8916 14.8929 47.9488 14.9309L48.1254 15.0489L48.1275 15.259C48.1379 15.8649 48.0647 16.3782 47.9046 16.7742C47.7569 17.1357 47.5398 17.4053 47.2472 17.5682V17.5683ZM47.2252 15.4623C47.1581 15.4384 47.087 15.4276 47.0158 15.4307L46.6558 15.4536L46.5893 15.1016C46.5154 14.7064 46.3898 14.3227 46.2158 13.9604C45.0675 14.184 43.3605 14.3796 42.0114 13.624C41.4913 13.3334 40.7316 13.9289 40.1086 13.8675C39.9114 14.2572 39.7698 14.6726 39.6878 15.1016L39.6182 15.4669L39.2495 15.4316C39.1768 15.4262 39.1038 15.435 39.0345 15.4575C39.0007 15.4689 38.9674 15.482 38.9349 15.4969C38.9436 15.9014 39.0004 16.236 39.1068 16.4875C39.1994 16.708 39.3278 16.8509 39.4958 16.9036L39.7118 16.9708L39.7715 17.1865C39.9531 17.8511 40.1537 18.4812 40.4395 18.9921C40.7038 19.466 41.0426 19.8446 41.5084 20.0577C41.7055 20.1476 42.3327 20.1977 42.9879 20.2074C43.6845 20.217 44.3785 20.1815 44.6081 20.0968C45.1243 19.908 45.4969 19.5407 45.7854 19.0613C46.0941 18.5463 46.3151 17.8923 46.509 17.1749L46.5652 16.9689L46.7697 16.8978C46.9317 16.8412 47.0581 16.6935 47.1498 16.471C47.2501 16.2237 47.3053 15.8937 47.3159 15.4979C47.2866 15.4837 47.2563 15.4718 47.2252 15.4623ZM12.8025 17.8884H23.9209V19.7862H12.8025V17.8884V17.8884ZM12.8025 13.1644H23.9209V15.0624H12.8025V13.1644ZM12.8025 8.44068H23.9209V10.3385H12.8025V8.44068ZM7.75179 17.8884H11.4439V19.7862H7.75179V17.8884V17.8884ZM7.75179 13.1644H11.4439V15.0624H7.75179V13.1644ZM7.75179 8.44068H11.4439V10.3385H7.75179V8.44068ZM17.555 32.1435H7.75183V30.2448H17.555V32.1435ZM35.4225 32.1435H18.7012V30.2448H35.4225V32.1435ZM0.757502 4.23654H0V0.300781H3.9614V1.0537H0.757502V4.23658V4.23654ZM0.757502 38.9543H3.9614V39.7072H0V35.7685H0.757502V38.9543Z" fill="#02AD8F"/>
</svg>
