<svg width="22" height="22" viewBox="0 0 22 22" fill="none" xmlns="http://www.w3.org/2000/svg">
<path d="M11 0C4.92412 0 0 4.92412 0 11C0 17.0759 4.92412 22 11 22C17.0759 22 22 17.0759 22 11C22 4.92412 17.0759 0 11 0ZM18.0141 12.54C17.2991 15.6934 14.432 18.0474 11.0036 18.0474C8.36744 18.0474 6.061 16.654 4.81056 14.575V15.323C4.81056 15.5576 4.62 15.7446 4.38156 15.7446C4.32565 15.7453 4.27014 15.7349 4.21825 15.7141C4.16636 15.6933 4.11911 15.6624 4.07923 15.6232C4.03934 15.584 4.00761 15.5373 3.98587 15.4857C3.96413 15.4342 3.95281 15.3789 3.95256 15.323V12.3676C3.95256 12.1366 4.14344 11.946 4.38156 11.946C4.62 11.946 4.81056 12.133 4.81056 12.3676C5.445 15.147 7.975 17.226 11.0036 17.226C14.0286 17.226 16.5586 15.147 17.1966 12.3676C17.1966 12.1366 17.3874 11.946 17.6256 11.946C17.864 11.946 18.0546 12.133 18.0546 12.3676C18.0504 12.4268 18.0368 12.485 18.0144 12.54H18.0141ZM8.536 11.9496V11.9424C8.30856 11.9424 8.12188 11.7554 8.12188 11.528C8.12188 11.3006 8.30856 11.1139 8.536 11.1139H10.197L8.41856 7.79544H8.42244C8.3685 7.71634 8.33719 7.62401 8.33191 7.52841C8.32662 7.43282 8.34756 7.33759 8.39245 7.25303C8.43735 7.16846 8.5045 7.09778 8.58665 7.0486C8.66879 6.99942 8.76282 6.97363 8.85856 6.974C9.08956 6.974 9.284 7.12056 9.35356 7.326H9.35744C9.35744 7.326 10.945 10.2924 11.0476 10.549H11.0696C11.143 10.3436 12.6866 7.326 12.6866 7.326H12.6904C12.7274 7.22257 12.7956 7.13317 12.8855 7.07012C12.9754 7.00707 13.0827 6.97349 13.1926 6.974C13.3356 6.974 13.4714 7.029 13.5704 7.13156C13.6694 7.23056 13.728 7.37 13.728 7.50944C13.728 7.62656 13.6876 7.73656 13.6216 7.82456L11.8324 11.1136H13.464C13.5724 11.1162 13.6755 11.161 13.7514 11.2384C13.8274 11.3157 13.8703 11.4196 13.871 11.528C13.871 11.7554 13.6914 11.9389 13.464 11.9421V11.9496H11.55V13.112H13.464V13.1194C13.5739 13.1194 13.6792 13.1631 13.7569 13.2408C13.8346 13.3185 13.8783 13.4238 13.8783 13.5337C13.8783 13.6436 13.8346 13.749 13.7569 13.8267C13.6792 13.9044 13.5739 13.948 13.464 13.948V13.9554H11.55V15.6274H11.5354C11.5569 15.729 11.5474 15.8346 11.5082 15.9307C11.469 16.0268 11.4018 16.1089 11.3154 16.1664C11.2291 16.2238 11.1277 16.2545 11.0239 16.2545C10.9202 16.2545 10.8188 16.2238 10.7324 16.1664C10.646 16.1089 10.5789 16.0268 10.5397 15.9307C10.5005 15.8346 10.491 15.729 10.5124 15.6274H10.5014V13.9554H8.52824V13.948C8.30112 13.948 8.11412 13.761 8.11412 13.5339C8.11412 13.3064 8.30112 13.1194 8.52824 13.1194V13.112H10.5011V11.9496H8.53568H8.536ZM18.051 9.62856C18.051 9.85956 17.8601 10.0504 17.622 10.0504C17.5661 10.0512 17.5105 10.0408 17.4586 10.0199C17.4067 9.99909 17.3594 9.96816 17.3196 9.92893C17.2797 9.8897 17.2479 9.84296 17.2262 9.79141C17.2045 9.73985 17.1932 9.6845 17.193 9.62856C16.5589 6.84944 14.0289 4.77044 11 4.77044C7.975 4.77044 5.445 6.84944 4.807 9.62856C4.807 9.85956 4.61612 10.0504 4.378 10.0504C4.32206 10.0512 4.26653 10.0408 4.21462 10.0199C4.16271 9.99909 4.11544 9.96816 4.07555 9.92893C4.03566 9.8897 4.00394 9.84296 3.98222 9.79141C3.9605 9.73985 3.94921 9.6845 3.949 9.62856C3.949 9.56644 3.96356 9.50756 3.98944 9.45644C4.70412 6.303 7.57156 3.949 11 3.949C13.6364 3.949 15.9426 5.34244 17.193 7.42144V6.67344C17.193 6.44244 17.3839 6.25156 17.622 6.25156C17.8604 6.25156 18.051 6.43856 18.051 6.67344V9.62856V9.62856Z" fill="#9BE2D6"/>
</svg>
