<svg width="40" height="40" viewBox="0 0 40 40" fill="none" xmlns="http://www.w3.org/2000/svg">
<circle cx="20" cy="20" r="20" fill="#02AD8F"/>
<path d="M30 20.0858C30 25.6562 25.5229 30.1716 20 30.1716C18.4388 30.1716 16.9612 29.8109 15.6447 29.1672L10 30.1716L10.9953 24.4785C10.3576 23.1507 10 21.6604 10 20.0858C10 14.5155 14.4771 10 20 10C25.5229 10 30 14.5155 30 20.0858ZM18.245 21.8609C18.245 22.8414 19.0351 23.636 20.01 23.636C20.9502 23.636 21.7179 22.897 21.7721 21.9651L21.775 21.8609H23.54C23.54 23.8212 21.9591 25.4111 20.01 25.4111C18.0609 25.4111 16.48 23.8212 16.48 21.8609H18.245ZM11.843 21.2683L11.8501 21.317L11.8618 21.3965L11.8636 21.4084L11.8789 21.5004L11.886 21.5402L11.8848 21.5354L11.8983 21.6102L11.9066 21.6548L11.9183 21.7165L11.9301 21.7735L11.9307 21.7776L11.9519 21.8792L11.9548 21.8916L11.9701 21.9605L11.9819 22.0092L11.9831 22.0163L12.0031 22.0982L12.0166 22.151L12.0449 22.262L12.0619 22.3226L12.0767 22.3754L12.0855 22.4057L12.0861 22.4087L12.0872 22.4128L12.1137 22.5019L12.1149 22.5042L12.1367 22.5779L12.152 22.6253L12.1602 22.6514L12.1844 22.7257L12.1908 22.7458L12.1932 22.753L12.2291 22.8562L12.2356 22.8758L12.2379 22.8806L12.2485 22.9121L12.252 22.9215L12.2838 23.0082L12.3097 23.0765L12.3168 23.0949L12.3492 23.1774L12.3539 23.1899L12.3603 23.2059L12.3709 23.2326L12.3739 23.2397L12.3756 23.2439L12.4145 23.3383L12.4321 23.3786L12.4416 23.4006L12.4634 23.4517L12.4651 23.4552L12.5081 23.5502V23.5508L12.5204 23.5775L12.5663 23.676L12.5711 23.6849L12.5858 23.7164L12.587 23.7182L12.5875 23.72L12.6364 23.8197C12.6582 23.8642 12.6811 23.9082 12.7041 23.9527L11.8312 28.3158L16.1672 27.4444L16.1743 27.4485C16.3078 27.5187 16.443 27.5856 16.5798 27.6491C16.7083 27.708 16.8382 27.7637 16.9694 27.816C17.1261 27.879 17.2847 27.9368 17.445 27.9893L17.5233 28.0142L17.754 28.0843C17.7923 28.095 17.8311 28.1057 17.8705 28.1163C17.9129 28.1276 17.9553 28.1389 17.9983 28.1496L18.2349 28.2054L18.2543 28.2101C18.3567 28.2321 18.4596 28.2523 18.5627 28.2707C18.6575 28.2873 18.7522 28.3021 18.8476 28.3158C18.9546 28.3313 19.0619 28.3443 19.1695 28.355C19.3383 28.3718 19.5075 28.3834 19.6769 28.39C19.7045 28.3913 19.7322 28.3923 19.7599 28.393C19.8387 28.3953 19.9176 28.3965 19.9971 28.3965H20C24.5508 28.3965 28.24 24.6757 28.24 20.0858C28.24 15.4959 24.5508 11.7751 20 11.7751C15.4492 11.7751 11.76 15.4959 11.76 20.0858C11.76 20.3523 11.7724 20.6165 11.7965 20.8771L11.8024 20.9335L11.8047 20.962L11.8024 20.9335L11.8094 21.003L11.81 21.0083L11.8218 21.1068L11.813 21.0356L11.8212 21.1068L11.8312 21.1834L11.8365 21.2226V21.2232L11.843 21.2677L11.84 21.2499L11.843 21.2683H11.843Z" fill="white"/>
</svg>
