<svg width="200" height="200" viewBox="0 0 200 200" fill="none" xmlns="http://www.w3.org/2000/svg">
<g clip-path="url(#clip0)">
<path d="M30.0081 46.124C30.0081 47.1313 30.8855 47.9924 31.8928 47.9924C32.9001 47.9924 33.7612 47.1151 33.7612 46.124V41.7536H38.1316C39.1389 41.7536 40 40.8763 40 39.8852C40 38.8779 39.1227 38.0005 38.1316 38.0005H33.7612V33.6301C33.7612 32.6228 32.8838 31.7617 31.8928 31.7617C30.8855 31.7617 30.0081 32.5091 30.0081 33.6301V38.0005H25.6377C24.6304 38.0005 23.753 38.8779 23.753 39.8852C23.753 40.8925 24.6304 41.7536 25.6377 41.7536H30.0081V46.124ZM22.502 150.576H5.00406C3.62307 150.576 2.50203 151.697 2.50203 153.078C2.50203 154.459 3.62307 155.58 5.00406 155.58H22.502C23.883 155.58 25.0041 154.459 25.0041 153.078C25.0041 151.697 23.883 150.576 22.502 150.576ZM23.753 123.053H20V119.544C20 118.797 19.4963 118.049 18.749 118.049C18.0016 118.049 17.498 118.667 17.498 119.544V123.053H13.7449C12.9976 123.053 12.4939 123.557 12.4939 124.304C12.4939 125.052 12.9976 125.555 13.7449 125.555H17.498V129.065C17.498 129.812 18.0016 130.559 18.749 130.559C19.4963 130.559 20 129.926 20 129.065V125.555H23.753C24.5004 125.555 25.0041 125.052 25.0041 124.304C25.0041 123.557 24.5167 123.053 23.753 123.053ZM198.879 111.794H195.126V108.285C195.126 107.538 194.622 106.79 193.875 106.79C193.128 106.79 192.624 107.424 192.624 108.285V111.794H188.871C188.123 111.794 187.62 112.298 187.62 113.045C187.62 113.793 188.123 114.296 188.871 114.296H192.624V117.806C192.624 118.553 193.128 119.3 193.875 119.3C194.622 119.3 195.126 118.667 195.126 117.806V114.296H198.879C199.626 114.296 200.13 113.793 200.13 113.045C200.13 112.298 199.643 111.794 198.879 111.794ZM8.75711 84.2881C13.6312 84.2881 17.5142 80.4051 17.5142 75.531C17.5142 70.6569 13.6312 66.7739 8.75711 66.7739C3.88302 66.7739 0 70.6569 0 75.531C0 80.2751 3.86678 84.2881 8.75711 84.2881ZM8.75711 70.5269C11.5028 70.5269 13.7612 72.7853 13.7612 75.531C13.7612 78.2767 11.5028 80.5351 8.75711 80.5351C6.01137 80.5351 3.75305 78.2767 3.75305 75.531C3.75305 72.769 5.99513 70.5269 8.75711 70.5269ZM173.875 51.7617C169.748 51.7617 166.369 55.1411 166.369 59.2678C166.369 63.3945 169.748 66.7739 173.875 66.7739C178.002 66.7739 181.381 63.3945 181.381 59.2678C181.381 55.1411 178.002 51.7617 173.875 51.7617ZM173.875 63.0209C171.747 63.0209 170.122 61.3962 170.122 59.2678C170.122 57.1395 171.747 55.5148 173.875 55.5148C176.003 55.5148 177.628 57.1395 177.628 59.2678C177.628 61.2662 175.987 63.0209 173.875 63.0209ZM103.818 81.7861H61.2835C59.9025 81.7861 58.7815 82.9071 58.7815 84.2881C58.7815 85.6691 59.9025 86.7901 61.2835 86.7901H103.818C105.199 86.7901 106.32 85.6691 106.32 84.2881C106.32 82.9071 105.199 81.7861 103.818 81.7861ZM61.2835 74.28H91.3079C92.6889 74.28 93.8099 73.159 93.8099 71.778C93.8099 70.397 92.6889 69.2759 91.3079 69.2759H61.2835C59.9025 69.2759 58.7815 70.397 58.7815 71.778C58.7815 73.1427 59.9188 74.28 61.2835 74.28ZM160.114 136.815H142.843C144.224 135.06 145.102 132.931 145.102 130.559V53.0127C145.102 47.505 140.601 43.0046 135.093 43.0046H70.0406C64.5329 43.0046 60.0325 47.505 60.0325 53.0127V58.0168H52.5264C47.0187 58.0168 42.5183 62.5172 42.5183 68.0249V145.588C42.5183 147.456 43.0219 149.097 43.8993 150.592H32.5102C31.1292 150.592 30.0081 151.713 30.0081 153.094C30.0081 154.475 31.1292 155.596 32.5102 155.596H99.1877L106.45 162.858C108.448 164.857 111.584 164.857 113.582 162.858C115.581 160.86 115.581 157.724 113.582 155.726L113.452 155.596H130.089C131.47 155.596 132.591 154.475 132.591 153.094C132.591 151.713 131.47 150.592 130.089 150.592H126.206C127.084 149.097 127.587 147.456 127.587 145.588V141.835H160.114C161.495 141.835 162.616 140.714 162.616 139.333C162.616 137.952 161.478 136.815 160.114 136.815ZM122.583 145.572C122.583 148.317 120.325 150.576 117.579 150.576H108.448L99.3176 141.445C97.9366 140.064 96.182 139.69 94.4435 140.194L91.9415 137.692C94.6872 134.442 96.3119 130.186 96.3119 125.685C96.3119 115.304 87.9285 106.92 77.5467 106.92C67.1649 106.92 58.7815 115.304 58.7815 125.685C58.7815 136.067 67.1649 144.451 77.5467 144.451C81.5435 144.451 85.1828 143.2 88.1722 141.201L90.9179 143.947C90.4143 145.572 90.918 147.456 92.169 148.821L94.1673 150.819H52.5264C49.7807 150.819 47.5223 148.561 47.5223 145.815V68.2686C47.5223 65.5229 49.7807 63.2646 52.5264 63.2646H117.579C120.325 63.2646 122.583 65.5229 122.583 68.2686V145.572ZM91.3079 125.555C91.3079 133.191 85.1828 139.317 77.5467 139.317C69.9106 139.317 63.7855 133.191 63.7855 125.555C63.7855 117.919 69.9106 111.794 77.5467 111.794C85.1828 111.794 91.3079 117.936 91.3079 125.555ZM140.097 130.559C140.097 133.305 137.839 135.563 135.093 135.563H127.587V68.0249C127.587 62.5172 123.087 58.0168 117.579 58.0168H65.0366V53.0127C65.0366 50.267 67.2949 48.0087 70.0406 48.0087H135.093C137.839 48.0087 140.097 50.267 140.097 53.0127V130.559ZM86.3038 94.2962H61.2835C59.9025 94.2962 58.7815 95.4173 58.7815 96.7983C58.7815 98.1793 59.9025 99.3003 61.2835 99.3003H86.3038C87.6848 99.3003 88.8058 98.1793 88.8058 96.7983C88.8058 95.4173 87.6848 94.2962 86.3038 94.2962Z" fill="#9C9C9C"/>
</g>
<defs>
<clipPath id="clip0">
<rect width="200" height="200" fill="white"/>
</clipPath>
</defs>
</svg>
