<svg width="14" height="14" viewBox="0 0 14 14" fill="none" xmlns="http://www.w3.org/2000/svg">
<path d="M8.20403 5.85356C8.20403 5.79756 8.17603 5.71356 8.12003 5.68556C8.06403 5.62956 8.00803 5.60156 7.92403 5.60156C7.86803 5.60156 7.78403 5.62956 7.75603 5.68556L7.19603 6.21756L6.63603 5.68556C6.58003 5.62956 6.52403 5.60156 6.44003 5.60156C6.38403 5.60156 6.30003 5.62956 6.24403 5.68556C6.18803 5.74156 6.16003 5.79756 6.16003 5.85356C6.16003 5.90956 6.18803 5.99356 6.24403 6.02156L6.88803 6.60956V6.72156H6.46803C6.30003 6.72156 6.21603 6.83356 6.21603 6.97356C6.21603 7.11356 6.32803 7.22556 6.46803 7.22556H6.88803V7.39356H6.46803C6.30003 7.39356 6.21603 7.50556 6.21603 7.64556C6.21603 7.78556 6.32803 7.89756 6.46803 7.89756H6.88803V8.34556C6.88803 8.48556 7.00003 8.59756 7.14003 8.59756C7.30803 8.59756 7.39203 8.48556 7.39203 8.34556V7.89756H7.81203C7.98003 7.89756 8.06403 7.78556 8.06403 7.64556C8.06403 7.50556 7.95203 7.39356 7.81203 7.39356H7.39203V7.22556H7.81203C7.98003 7.22556 8.06403 7.11356 8.06403 6.97356C8.06403 6.83356 7.95203 6.72156 7.81203 6.72156H7.36403V6.69356L8.06403 6.04956C8.17603 5.96556 8.20403 5.90956 8.20403 5.85356Z" fill="white"/>
<path d="M8.28801 4.25525C7.92401 4.11525 7.56001 4.03125 7.19601 4.03125C6.41201 4.03125 5.62801 4.36725 5.09601 4.92725C4.25601 5.79525 4.03201 7.05525 4.50801 8.17525C4.98401 9.23925 6.04801 9.93925 7.19601 9.93925H7.28001C8.87601 9.91125 10.164 8.59525 10.136 6.99925C10.136 5.79525 9.40801 4.70325 8.28801 4.25525ZM9.49201 6.99925C9.49201 7.92325 8.93201 8.73525 8.09201 9.09925C7.81201 9.21125 7.53201 9.26725 7.25201 9.26725C6.63601 9.26725 6.04801 9.01525 5.62801 8.56725C4.98401 7.89525 4.81601 6.91525 5.18001 6.07525C5.54401 5.26325 6.35601 4.73125 7.25201 4.73125H7.30801C8.51201 4.75925 9.49201 5.76725 9.49201 6.99925Z" fill="white"/>
<path d="M12.936 5.82309C12.88 5.45909 12.656 5.23509 12.404 5.23509H12.348C11.536 5.23509 10.864 4.53509 10.864 3.72309C10.864 3.52709 10.92 3.33109 11.004 3.13509C11.144 2.82709 11.032 2.46309 10.752 2.26709L9.26799 1.45509C9.18399 1.42709 9.07199 1.39909 8.98799 1.39909C8.79199 1.39909 8.56799 1.48309 8.42799 1.62309C8.37199 1.67909 7.75599 2.29509 7.25199 2.29509C6.80399 2.29509 6.24399 1.79109 6.07599 1.62309C5.93599 1.48309 5.71199 1.37109 5.51599 1.37109C5.40399 1.37109 5.31999 1.39909 5.23599 1.42709L3.72399 2.26709C3.44399 2.46309 3.33199 2.85509 3.47199 3.16309C3.55599 3.35909 3.58399 3.55509 3.61199 3.75109C3.61199 4.56309 2.96799 5.26309 2.12799 5.26309H2.09999C1.84799 5.26309 1.65199 5.48709 1.56799 5.85109C1.48399 6.24309 1.45599 6.63509 1.45599 7.02709C1.45599 7.41909 1.51199 7.81109 1.56799 8.20309C1.62399 8.53909 1.84799 8.76309 2.09999 8.76309H2.15599C2.96799 8.76309 3.63999 9.46309 3.63999 10.2751C3.63999 10.4711 3.61199 10.6951 3.55599 10.8631C3.41599 11.1711 3.52799 11.5351 3.80799 11.7311L5.23599 12.5151C5.31999 12.5431 5.43199 12.5711 5.51599 12.5711C5.73999 12.5711 5.93599 12.4871 6.07599 12.3191C6.21599 12.1511 6.80399 11.6191 7.25199 11.6191C7.69999 11.6191 8.28799 12.1511 8.45599 12.3471C8.59599 12.5151 8.79199 12.5991 9.01599 12.5991C9.09999 12.5991 9.23999 12.5711 9.32399 12.5431L9.60399 12.3471L9.63199 12.3191C9.71599 12.2351 9.77199 12.1511 9.77199 12.0391C9.77199 11.8151 9.60399 11.6471 9.37999 11.6471C9.32399 11.6471 9.26799 11.6751 9.21199 11.7031L8.98799 11.8431C8.81999 11.6751 8.62399 11.5351 8.42799 11.3951C8.09199 11.1151 7.67199 10.9191 7.22399 10.8911C6.77599 10.9191 6.35599 11.0871 6.01999 11.3671C5.82399 11.5071 5.65599 11.6471 5.48799 11.8151L4.17199 11.0591C4.28399 10.7791 4.33999 10.4991 4.33999 10.2191C4.36799 9.04309 3.44399 8.03509 2.26799 7.95109C2.23999 7.67109 2.18399 7.33509 2.18399 6.99909C2.18399 6.66309 2.23999 6.32709 2.29599 6.01909C3.47199 5.93509 4.39599 4.92709 4.36799 3.75109C4.36799 3.47109 4.31199 3.16309 4.19999 2.91109L5.59999 2.12709C5.76799 2.29509 5.93599 2.43509 6.10399 2.57509C6.43999 2.85509 6.85999 3.02309 7.30799 3.05109C7.75599 3.02309 8.14799 2.88309 8.48399 2.60309C8.65199 2.46309 8.84799 2.32309 9.01599 2.18309L10.332 2.96709C10.22 3.24709 10.164 3.52709 10.164 3.80709C10.164 4.98309 11.06 5.99109 12.236 6.07509C12.292 6.41109 12.32 6.74709 12.348 7.05509C12.348 7.39109 12.292 7.72709 12.236 8.03509C11.06 8.11909 10.136 9.12709 10.164 10.3031C10.192 10.5831 10.248 10.8631 10.36 11.1151L10.22 11.2271L10.192 11.1991C10.08 11.2831 10.024 11.3951 10.024 11.5071C10.024 11.7311 10.192 11.8991 10.416 11.8991C10.472 11.8991 10.556 11.8711 10.612 11.8431L10.78 11.7311C11.2 11.4511 11.116 11.0871 11.032 10.8631C10.948 10.6671 10.92 10.4711 10.892 10.2751C10.864 9.46309 11.536 8.76309 12.348 8.76309H12.404C12.656 8.76309 12.852 8.53909 12.908 8.20309C12.964 7.81109 13.02 7.41909 13.02 7.02709C13.048 6.60709 13.02 6.21509 12.936 5.82309Z" fill="white"/>
</svg>
