<svg width="14" height="14" viewBox="0 0 14 14" fill="none" xmlns="http://www.w3.org/2000/svg">
<g clip-path="url(#clip0)">
<path d="M6.83657e-09 6.88969C-4.02995e-05 7.79453 0.178145 8.69051 0.524382 9.52648C0.870619 10.3624 1.37813 11.122 2.01793 11.7619C2.65773 12.4017 3.41729 12.9092 4.25324 13.2555C5.08919 13.6018 5.98517 13.78 6.89 13.78C7.79483 13.78 8.69081 13.6018 9.52676 13.2555C10.3627 12.9092 11.1223 12.4017 11.7621 11.7619C12.4019 11.122 12.9094 10.3624 13.2556 9.52648C13.6019 8.69051 13.78 7.79453 13.78 6.88969C13.7799 5.06241 13.054 3.30999 11.7619 2.01793C10.4697 0.725867 8.71729 0 6.89 0C5.06271 0 3.31026 0.725867 2.01814 2.01793C0.726026 3.30999 8.14044e-05 5.06241 6.83657e-09 6.88969H6.83657e-09Z" fill="#627EEA"/>
<path d="M7.10498 1.72266V5.54266L10.333 6.98466L7.10498 1.72266Z" fill="white" fill-opacity="0.602"/>
<path d="M7.105 1.72266L3.875 6.98466L7.105 5.54166V1.72266Z" fill="white"/>
<path d="M7.10498 9.45994V12.0559L10.335 7.58594L7.10498 9.45994Z" fill="white" fill-opacity="0.602"/>
<path d="M7.105 12.0559V9.45994L3.875 7.58594L7.105 12.0559Z" fill="white"/>
<path d="M7.10498 8.85997L10.333 6.98497L7.10498 5.54297V8.85997Z" fill="white" fill-opacity="0.2"/>
<path d="M3.87598 6.98497L7.10498 8.85997V5.54297L3.87598 6.98497Z" fill="white" fill-opacity="0.602"/>
</g>
<defs>
<clipPath id="clip0">
<rect width="14" height="14" fill="white"/>
</clipPath>
</defs>
</svg>
