<svg width="14" height="14" viewBox="0 0 14 14" fill="none" xmlns="http://www.w3.org/2000/svg">
<path d="M8.08267 7.0028L13.7831 1.3031C13.8515 1.23498 13.9059 1.15342 13.9431 1.06327C13.9803 0.973123 13.9994 0.876221 13.9994 0.778322C13.9994 0.680422 13.9803 0.583521 13.9431 0.493373C13.9059 0.403224 13.8515 0.321668 13.7831 0.253547L13.7525 0.222161C13.6113 0.0831961 13.4233 0.00562357 13.2277 0.00562357C13.0321 0.00562357 12.8441 0.0831961 12.7029 0.222161L7.00246 5.9294L1.30204 0.217139C1.16073 0.0778044 0.972458 0 0.776599 0C0.580741 0 0.392468 0.0778044 0.251159 0.217139L0.221832 0.249781C0.151828 0.316965 0.0960129 0.398217 0.0578523 0.488491C0.0196916 0.578765 0 0.676135 0 0.774555C0 0.872976 0.0196916 0.970346 0.0578523 1.06062C0.0960129 1.15089 0.151828 1.23215 0.221832 1.29933L5.92347 7.0028L0.221832 12.7038C0.153583 12.7719 0.0993269 12.8533 0.0622775 12.9434C0.0252281 13.0334 0.00613828 13.1302 0.00613828 13.2279C0.00613828 13.3257 0.0252281 13.4224 0.0622775 13.5124C0.0993269 13.6025 0.153583 13.6839 0.221832 13.752L0.253603 13.7834C0.546872 14.0722 1.00999 14.0722 1.30326 13.7834L7.00368 8.08373L12.7041 13.7834C12.9974 14.0722 13.4617 14.0722 13.755 13.7834L13.7843 13.752C13.8526 13.6839 13.9068 13.6025 13.9439 13.5124C13.9809 13.4224 14 13.3257 14 13.2279C14 13.1302 13.9809 13.0334 13.9439 12.9434C13.9068 12.8533 13.8526 12.7719 13.7843 12.7038L8.08389 7.00405L8.08267 7.0028Z" fill="#454545"/>
</svg>
