<svg width="12" height="12" viewBox="0 0 12 12" fill="none" xmlns="http://www.w3.org/2000/svg">
<path d="M5.41664 0.167969C6.40523 0.167971 7.37373 0.447098 8.21069 0.973227C9.04765 1.49936 9.71905 2.25111 10.1476 3.14196C10.5762 4.03282 10.7445 5.02659 10.6333 6.0089C10.522 6.9912 10.1356 7.92213 9.51864 8.69455L11.4232 10.5997C11.4789 10.6535 11.5234 10.7179 11.554 10.7891C11.5845 10.8602 11.6006 10.9368 11.6013 11.0142C11.602 11.0917 11.5872 11.1685 11.5579 11.2402C11.5285 11.3119 11.4852 11.377 11.4305 11.4318C11.3757 11.4866 11.3106 11.5299 11.2389 11.5592C11.1672 11.5885 11.0904 11.6033 11.0129 11.6026C10.9355 11.6019 10.8589 11.5858 10.7877 11.5553C10.7166 11.5247 10.6522 11.4803 10.5984 11.4246L8.69322 9.51997C8.03797 10.0434 7.26686 10.4022 6.44445 10.5664C5.62204 10.7306 4.77226 10.6953 3.96626 10.4637C3.16026 10.232 2.42149 9.81057 1.81179 9.23473C1.2021 8.65889 0.739229 7.94537 0.46193 7.1539C0.18463 6.36244 0.100971 5.51606 0.217958 4.68562C0.334944 3.85518 0.649171 3.06485 1.13433 2.38079C1.61949 1.69673 2.26147 1.13886 3.00652 0.753864C3.75157 0.368871 4.578 0.167966 5.41664 0.167969ZM5.41664 1.33464C4.88039 1.3346 4.34938 1.4402 3.85394 1.64539C3.3585 1.85059 2.90833 2.15136 2.52914 2.53053C2.14994 2.90971 1.84914 3.35986 1.64392 3.85529C1.4387 4.35072 1.33307 4.88172 1.33307 5.41797C1.33307 5.95422 1.4387 6.48522 1.64392 6.98065C1.84914 7.47608 2.14994 7.92623 2.52914 8.30541C2.90833 8.68458 3.3585 8.98535 3.85394 9.19055C4.34938 9.39574 4.88039 9.50133 5.41664 9.5013C6.49957 9.50124 7.53812 9.071 8.30384 8.30524C9.06956 7.53947 9.49974 6.5009 9.49974 5.41797C9.49974 4.33504 9.06956 3.29647 8.30384 2.5307C7.53812 1.76493 6.49957 1.3347 5.41664 1.33464Z" fill="#BDBDBD"/>
</svg>
