<svg width="14" height="14" viewBox="0 0 14 14" fill="none" xmlns="http://www.w3.org/2000/svg">
<g clip-path="url(#clip0)">
<path d="M7.4873 9.41292H8.48399L8.94922 7.58594H7.98592L7.4873 9.41292Z" fill="#FBBA30"/>
<path d="M8.80688 9.41292H9.80357L10.2688 7.58594H9.3055L8.80688 9.41292Z" fill="#FBBA30"/>
<path d="M6.0918 9.41292H7.0551L7.55317 7.58594H6.55649L6.0918 9.41292Z" fill="#FBBA30"/>
<path d="M10.5221 4.84766H3.38108C3.18781 4.84934 3.00293 4.92687 2.86627 5.06353C2.7296 5.2002 2.65208 5.38507 2.65039 5.57834C2.65208 5.77161 2.7296 5.95648 2.86627 6.09315C3.00293 6.22982 3.18781 6.30734 3.38108 6.30903H10.5221C10.7154 6.30734 10.9002 6.22982 11.0369 6.09315C11.1736 5.95648 11.2511 5.77161 11.2528 5.57834C11.2511 5.38507 11.1736 5.2002 11.0369 5.06353C10.9002 4.92687 10.7154 4.84934 10.5221 4.84766Z" fill="#FBBA30"/>
<path d="M11.1637 0.000125001H2.83703C2.08543 0.00197327 1.36514 0.301364 0.833679 0.832827C0.302216 1.36429 0.00282483 2.08458 0.000976562 2.83618V11.1629C0.00268269 11.9146 0.302011 12.635 0.833489 13.1666C1.36497 13.6982 2.08534 13.9976 2.83703 13.9995H11.1637C11.9155 13.9978 12.636 13.6984 13.1676 13.1668C13.6992 12.6352 13.9986 11.9147 14.0003 11.1629V2.83618C14.0038 2.46274 13.9328 2.09235 13.7914 1.74667C13.6501 1.40099 13.4413 1.08695 13.1772 0.822902C12.9131 0.558853 12.599 0.350092 12.2533 0.208821C11.9076 0.0675503 11.5372 -0.00339726 11.1637 0.000125001ZM11.6322 9.39351C11.6328 9.5167 11.6089 9.63879 11.562 9.75272C11.5151 9.86665 11.4462 9.97016 11.359 10.0573C11.2719 10.1444 11.1684 10.2134 11.0545 10.2603C10.9406 10.3071 10.8185 10.331 10.6953 10.3304H3.30549C3.18231 10.3309 3.06025 10.307 2.94636 10.2601C2.83246 10.2132 2.72898 10.1442 2.64188 10.0571C2.55478 9.97002 2.48578 9.86653 2.43887 9.75264C2.39197 9.63874 2.36807 9.51668 2.36857 9.39351V4.65509C2.36807 4.53191 2.39197 4.40985 2.43887 4.29595C2.48578 4.18206 2.55478 4.07858 2.64188 3.99148C2.72898 3.90438 2.83246 3.83538 2.94636 3.78847C3.06025 3.74157 3.18231 3.71767 3.30549 3.71817H10.6953C10.8185 3.7176 10.9406 3.74144 11.0545 3.78833C11.1684 3.83521 11.2719 3.9042 11.359 3.99131C11.4462 4.07843 11.5151 4.18194 11.562 4.29587C11.6089 4.4098 11.6328 4.53189 11.6322 4.65509V9.39351Z" fill="#FBBA30"/>
</g>
<defs>
<clipPath id="clip0">
<rect width="14" height="14" fill="white"/>
</clipPath>
</defs>
</svg>
