<svg width="13" height="11" viewBox="0 0 13 11" fill="none" xmlns="http://www.w3.org/2000/svg">
<path d="M10.9245 0.476562H0.764941C0.34248 0.476562 0 0.814941 0 1.23125V9.56562C0 9.98193 0.34248 10.3203 0.764941 10.3203H6.48457C6.64043 10.3203 6.76758 10.1932 6.76758 10.0373C6.76758 9.88144 6.64043 9.7543 6.48457 9.7543H0.957715C0.746485 9.7543 0.574219 9.58613 0.574219 9.37695V7.03906H3.69141C4.59785 7.03906 5.33203 6.30488 5.33203 5.39844C5.33203 4.49199 4.59785 3.75781 3.69141 3.75781H0.574219V1.41992C0.574219 1.21074 0.746485 1.04258 0.957715 1.04258H10.7338C10.945 1.04258 11.1173 1.21074 11.1173 1.41992V5.11543C11.1173 5.27129 11.2444 5.39844 11.4003 5.39844H11.4085C11.5644 5.39844 11.6915 5.27129 11.6915 5.11543V1.23125C11.6895 0.814941 11.347 0.476562 10.9245 0.476562ZM0.615234 4.37305H3.69141C4.25742 4.37305 4.7168 4.83242 4.7168 5.39844C4.7168 5.96445 4.25742 6.42383 3.69141 6.42383H0.615234V4.37305Z" fill="#02AD8F"/>
<path d="M3.48633 5.40137C3.48633 5.48295 3.51874 5.5612 3.57643 5.61889C3.63412 5.67657 3.71236 5.70898 3.79395 5.70898C3.87553 5.70898 3.95377 5.67657 4.01146 5.61889C4.06915 5.5612 4.10156 5.48295 4.10156 5.40137C4.10156 5.31978 4.06915 5.24154 4.01146 5.18385C3.95377 5.12616 3.87553 5.09375 3.79395 5.09375C3.71236 5.09375 3.63412 5.12616 3.57643 5.18385C3.51874 5.24154 3.48633 5.31978 3.48633 5.40137Z" fill="#02AD8F"/>
<path d="M11.9971 7.05657H8.62147L9.51971 6.15832C9.64071 6.03733 9.64071 5.8425 9.51971 5.72356C9.39872 5.60256 9.20389 5.60256 9.08495 5.72356L7.66991 7.1386C7.66171 7.1468 7.65555 7.155 7.64735 7.16321C7.60018 7.21653 7.57147 7.28831 7.57147 7.36623C7.57147 7.53645 7.70887 7.67385 7.87909 7.67385H11.9971C12.1673 7.67385 12.3047 7.53645 12.3047 7.36623C12.3047 7.19397 12.1673 7.05657 11.9971 7.05657ZM11.9971 8.48186H7.88114C7.71092 8.48186 7.57352 8.61926 7.57352 8.78948C7.57352 8.95969 7.71092 9.09709 7.88114 9.09709H11.2567L10.3564 9.99739C10.2354 10.1184 10.2354 10.3132 10.3564 10.4322C10.4774 10.5531 10.6723 10.5531 10.7912 10.4322L12.2062 9.01711C12.2144 9.00891 12.2206 9.00071 12.2288 8.9925C12.276 8.93918 12.3047 8.86741 12.3047 8.78948C12.3047 8.62131 12.1673 8.48186 11.9971 8.48186Z" fill="#02AD8F"/>
</svg>
