<svg width="14" height="14" viewBox="0 0 14 14" fill="none" xmlns="http://www.w3.org/2000/svg">
<rect width="14" height="14" rx="2" fill="#02AD8F"/>
<path d="M7.28418 10.1504C7.35254 10.8242 7.91406 11.3525 8.59863 11.3525H10.0596C10.7871 11.3525 11.3789 10.752 11.3789 10.0088V8.55273C11.3789 7.82031 10.8027 7.22363 10.084 7.21387H7.28027L7.28418 10.1504ZM7.28418 3.83887C7.35254 3.16504 7.91406 2.63672 8.59863 2.63672H10.0596C10.7871 2.63672 11.3789 3.2373 11.3789 3.98047V5.43652C11.3789 6.16895 10.8027 6.76562 10.084 6.77539H7.28027L7.28418 3.83887ZM6.76172 10.1504C6.69336 10.8242 6.13184 11.3525 5.45215 11.3525H3.9873C3.25977 11.3525 2.66797 10.752 2.66797 10.0088V8.55273C2.66797 7.82031 3.24414 7.22363 3.96289 7.21387H6.7666L6.76172 10.1504ZM6.76172 3.83887C6.69336 3.16504 6.13184 2.63672 5.45215 2.63672H3.9873C3.25977 2.63672 2.66797 3.23828 2.66797 3.98047V5.43652C2.66797 6.16895 3.24414 6.76562 3.96289 6.77539H6.7666L6.76172 3.83887Z" fill="white"/>
</svg>
