<svg width="20" height="20" viewBox="0 0 20 20" fill="none" xmlns="http://www.w3.org/2000/svg">
<path d="M6.14253 14.1393C6.16491 14.1585 6.18258 14.1617 6.16849 14.1496C6.15406 14.14 6.13912 14.1312 6.12374 14.1232C6.12978 14.1292 6.13627 14.1348 6.14253 14.1393ZM8.12822 14.1279C8.11703 14.1355 8.10585 14.1447 8.09578 14.1532C8.10223 14.1495 8.1083 14.1451 8.1139 14.1402L8.12822 14.1279ZM7.34253 14.4653C7.40965 14.4585 7.37699 14.4601 7.34097 14.4653H7.3347H7.34253ZM7.3347 14.4659H7.33314C7.32352 14.4673 7.3139 14.4691 7.30629 14.4709C7.31547 14.4688 7.32508 14.4673 7.3347 14.4659ZM6.12374 14.1241L6.1224 14.1228L6.10987 14.1165L6.12374 14.1241ZM5.65215 13.502C5.66155 13.5275 5.67587 13.5424 5.6705 13.5268C5.66177 13.5089 5.65215 13.4914 5.64209 13.4744L5.65215 13.502ZM10.6803 11.5738C10.6876 11.5659 10.6934 11.5567 10.6973 11.5467C10.6856 11.5609 10.6747 11.5758 10.6649 11.5914L10.6803 11.5738ZM10.9119 11.1711L10.9041 11.1838C10.9034 11.1854 10.9028 11.1871 10.9023 11.1888C10.9054 11.1827 10.9085 11.1767 10.9119 11.1711ZM8.14656 14.1169L8.13359 14.1234L8.12822 14.1283C8.13399 14.124 8.14013 14.1202 8.14656 14.1169ZM11.0005 10.3281V10.3492C11.0005 10.3556 11.0032 10.3626 11.0043 10.3695C11.0022 10.3558 11.0009 10.342 11.0005 10.3281ZM11.0067 10.3796L11.0047 10.3695C11.0058 10.3762 11.0067 10.3827 11.0072 10.3892C11.0076 10.3957 11.0072 10.4035 11.009 10.4116C11.0095 10.4009 11.0087 10.3901 11.0067 10.3796ZM10.6649 11.5917L10.6631 11.5937C10.6611 11.5977 10.6589 11.602 10.6569 11.6064C10.6593 11.6014 10.662 11.5964 10.6649 11.5917ZM5.64209 13.4744V13.4729L5.63403 13.4601L5.64209 13.4744Z" fill="black"/>
<path d="M10.9021 11.1868C10.8927 11.204 10.8842 11.2224 10.8761 11.2412C10.8838 11.2324 10.8896 11.2221 10.8931 11.211C10.896 11.2029 10.899 11.1949 10.9021 11.1868ZM5.54102 12.6553C5.54213 12.6486 5.54348 12.6418 5.5446 12.6354C5.54571 12.6289 5.5446 12.6224 5.5446 12.6152C5.54426 12.6286 5.54307 12.642 5.54102 12.6553ZM6.94996 14.4691L6.94146 14.4673L6.94996 14.4691ZM11.916 5.84766L11.8936 5.86354C11.8325 5.90649 11.8914 5.86712 11.916 5.84766ZM6.91372 14.4633H6.92312C6.88442 14.4584 6.84236 14.4562 6.91372 14.4633ZM14.356 7.75929L14.3683 7.73379C14.3727 7.72547 14.3757 7.71647 14.377 7.70716C14.377 7.71074 14.3746 7.71432 14.3732 7.7179C14.3692 7.72909 14.3623 7.74475 14.356 7.75929ZM14.356 7.75929L14.3531 7.76511C14.3531 7.76869 14.3518 7.77204 14.3511 7.77584C14.3522 7.77019 14.3539 7.76465 14.356 7.75929Z" fill="black"/>
<path d="M10 0C4.47718 0 0 4.47718 0 10C0 15.5228 4.47718 20 10 20C15.5228 20 20 15.5228 20 10C20 4.47718 15.5228 0 10 0ZM12.0503 11.0206C11.9649 11.617 11.6497 12.1338 11.2295 12.5539L9.36935 14.4141C9.1085 14.6756 8.85906 14.9441 8.54407 15.1427C7.82013 15.6034 6.88255 15.6689 6.09642 15.3369C5.31029 15.0049 4.69799 14.3007 4.52125 13.4609C4.33848 12.5902 4.58031 11.6846 5.19239 11.0345C5.67383 10.5237 6.18613 10.0394 6.68233 9.54318C6.89441 9.3311 7.22707 9.34653 7.44116 9.54318C7.65526 9.73982 7.63982 10.1025 7.44116 10.3018L7.38456 10.3579L6.51007 11.2331L6.09978 11.6432C6.06823 11.6747 6.03647 11.7063 6.00515 11.738C5.97919 11.764 5.95369 11.7902 5.92886 11.8172C5.90403 11.8443 5.87919 11.8814 5.85123 11.9087L5.84116 11.9228C5.78945 11.9963 5.74259 12.073 5.70089 12.1526C5.68479 12.183 5.67025 12.2139 5.65615 12.245C5.65145 12.257 5.64608 12.2691 5.64161 12.2808C5.60976 12.3678 5.58353 12.4568 5.56309 12.5472C5.55638 12.577 5.55078 12.6067 5.54519 12.6367C5.54385 12.7116 5.53826 12.7166 5.53714 12.6993C5.53062 12.7786 5.52845 12.8583 5.53065 12.9378C5.53065 12.9736 5.53356 13.0092 5.53624 13.045L5.53893 13.0729C5.55861 13.1566 5.5698 13.2421 5.59351 13.3253C5.60492 13.3649 5.61767 13.4043 5.63132 13.4432C5.63468 13.4528 5.63826 13.4626 5.64206 13.4723C5.65341 13.4892 5.66308 13.5073 5.67092 13.5262C5.69933 13.5828 5.72349 13.643 5.7557 13.6966C5.77808 13.7331 5.80045 13.7689 5.82394 13.8038C5.83423 13.819 5.91566 13.9443 5.86711 13.866C5.82237 13.7924 5.87248 13.8707 5.88658 13.887C5.90067 13.9034 5.91521 13.9197 5.92975 13.9358C5.95183 13.9603 5.9742 13.984 5.99687 14.0072C6.02796 14.038 6.05973 14.068 6.09262 14.0966L6.1217 14.1217C6.138 14.1293 6.15344 14.1386 6.16779 14.1494C6.22394 14.1864 6.27785 14.2324 6.33468 14.2651C6.37092 14.2859 6.40783 14.3058 6.44541 14.3244C6.45145 14.3275 6.47383 14.338 6.49508 14.3481C6.5085 14.3537 6.52461 14.3604 6.53177 14.3631C6.55123 14.37 6.57069 14.377 6.59016 14.3834C6.62931 14.3966 6.6689 14.4085 6.7085 14.4195C6.78143 14.4391 6.85615 14.4488 6.92931 14.4655C6.94429 14.4671 6.95928 14.4685 6.97405 14.4696C7.01476 14.4725 7.05548 14.474 7.09642 14.4747C7.17506 14.4758 7.2537 14.4726 7.33199 14.4651L7.33982 14.464C7.34877 14.4626 7.35749 14.4615 7.36577 14.46C7.40619 14.4528 7.44638 14.4444 7.48635 14.4347C7.56649 14.4154 7.64545 14.3915 7.72282 14.3631L7.73647 14.3575C7.82349 14.3128 7.77271 14.3416 7.73647 14.3575L7.71007 14.3707C7.72394 14.3638 7.7387 14.3582 7.7528 14.3515C7.79083 14.334 7.82811 14.3154 7.86465 14.2955C7.9392 14.2556 8.01129 14.2112 8.08054 14.1626C8.08501 14.1595 8.08971 14.1557 8.09441 14.1521C8.07405 14.1635 8.07204 14.1521 8.13221 14.1219C8.15861 14.0996 8.18479 14.0772 8.21029 14.0526C8.22796 14.0358 8.24519 14.0188 8.26264 14.0016C8.4566 13.8096 8.64855 13.6154 8.84161 13.4226C9.40164 12.8627 9.96152 12.3028 10.5213 11.743C10.553 11.7112 10.5846 11.6794 10.6148 11.6463C10.6307 11.6287 10.6464 11.6108 10.6617 11.5926C10.687 11.5427 10.6989 11.5353 10.696 11.5456C10.7078 11.5306 10.7199 11.5159 10.7298 11.5009C10.7737 11.4352 10.8139 11.3671 10.8501 11.2969C10.8591 11.2794 10.8669 11.2606 10.8749 11.2418C10.8689 11.2472 10.8716 11.2327 10.9027 11.1826L10.9134 11.1532C10.9404 11.0756 10.9628 10.9964 10.9805 10.9161C10.9902 10.8732 10.9955 10.8289 11.0045 10.7859C11.0045 10.7758 11.0065 10.7655 11.0074 10.7553C11.0138 10.6734 11.0155 10.5912 11.0125 10.5092C11.0114 10.4756 11.0092 10.4421 11.0065 10.4087C11.0065 10.426 10.9998 10.4215 10.9984 10.347C10.985 10.2763 10.97 10.2063 10.9501 10.1371C10.9358 10.0877 10.9197 10.0385 10.902 9.99016C10.898 9.97919 10.8928 9.96778 10.8884 9.95638C10.8568 9.88814 10.8221 9.82103 10.783 9.75391C10.7584 9.71298 10.7322 9.67315 10.7049 9.634C10.6991 9.62573 10.6931 9.61767 10.687 9.60962C10.6423 9.55794 10.5975 9.50582 10.5488 9.45705C10.504 9.4123 10.4562 9.37025 10.4083 9.32841C10.4043 9.32484 10.4004 9.32103 10.3969 9.317C10.3861 9.31007 10.3745 9.30358 10.368 9.29843C10.2873 9.24241 10.203 9.19181 10.1157 9.14698C9.84966 9.00873 9.79284 8.65951 9.92304 8.41298C10.0631 8.1481 10.4083 8.09105 10.657 8.22036C10.8737 8.33469 11.0739 8.47766 11.2523 8.64541C11.9056 9.25436 12.1754 10.1479 12.0503 11.0206ZM15.2544 8.3613C15.0447 8.77427 14.7029 9.08568 14.3805 9.40828L13.6441 10.1445C13.4322 10.3566 13.0996 10.3412 12.8855 10.1445C12.6714 9.94788 12.6868 9.58523 12.8855 9.38591L12.945 9.3264L13.7911 8.48031C13.8662 8.40492 13.9421 8.32998 14.017 8.25436C14.0479 8.22304 14.0781 8.19127 14.1065 8.15839C14.117 8.14653 14.1512 8.1038 14.1615 8.09128C14.1745 8.07315 14.1872 8.05548 14.1906 8.05034C14.2113 8.01961 14.2314 7.98844 14.2508 7.95682C14.2884 7.89486 14.3208 7.83087 14.3526 7.766C14.3644 7.70291 14.3781 7.69262 14.3765 7.70805C14.3875 7.67763 14.3989 7.64698 14.4076 7.61611C14.432 7.53762 14.4518 7.45777 14.4669 7.37696C14.4685 7.36913 14.4698 7.36152 14.4711 7.35459C14.474 7.32371 14.4783 7.29262 14.4803 7.26174C14.4856 7.18019 14.4862 7.0984 14.4821 7.01678C14.4803 6.98121 14.4776 6.94564 14.474 6.91029C14.4595 6.8311 14.4432 6.75369 14.4208 6.67517C14.4095 6.6355 14.3969 6.5962 14.3832 6.55727C14.3796 6.5472 14.3694 6.5208 14.3609 6.50067C14.3483 6.4736 14.3315 6.43781 14.3266 6.42774C14.3101 6.39508 14.2924 6.36286 14.274 6.33087C14.2369 6.26622 14.1951 6.2047 14.1523 6.14362L14.1273 6.11342C14.099 6.08031 14.0695 6.0481 14.0389 6.01678C13.9892 5.96571 13.9369 5.91718 13.8823 5.87137L13.877 5.86689C13.8027 5.81633 13.8499 5.84452 13.877 5.86689L13.9027 5.88456C13.8895 5.87562 13.877 5.86532 13.864 5.85593C13.8295 5.83087 13.7943 5.80693 13.7584 5.78412C13.692 5.74174 13.6232 5.70319 13.5523 5.66868L13.53 5.65749C13.4936 5.64526 13.4578 5.63115 13.4228 5.61521C13.3546 5.59212 13.2851 5.57271 13.2148 5.55705C13.1761 5.54832 13.1369 5.54183 13.0978 5.53468L13.0846 5.53311C13.0083 5.52599 12.9316 5.523 12.855 5.52416C12.8089 5.52416 12.763 5.52625 12.7172 5.53043L12.6841 5.53378C12.6617 5.53714 12.6275 5.54251 12.617 5.54452C12.5767 5.55235 12.5367 5.56152 12.4969 5.57159C12.4175 5.59257 12.3393 5.61751 12.2624 5.64631L12.2604 5.64743C12.2273 5.66234 12.1945 5.67845 12.162 5.69575C12.0875 5.7354 12.0155 5.77947 11.9463 5.82774C11.9387 5.83289 11.9315 5.83803 11.9239 5.8434C11.911 5.86756 11.86 5.8953 11.8394 5.91387C11.8038 5.94564 11.7698 5.97919 11.7358 6.01298C11.5404 6.20761 11.3454 6.40261 11.1508 6.59799L9.5264 8.22237L9.47204 8.2774C9.45481 8.29485 9.43758 8.31208 9.42103 8.32998C9.39105 8.36174 9.36286 8.39463 9.33445 8.42752L9.32998 8.43266C9.28036 8.50126 9.23487 8.57276 9.19374 8.64676C9.17585 8.6788 9.15884 8.71132 9.14273 8.7443C9.13893 8.7519 9.13535 8.75973 9.13177 8.76667C9.11969 8.84004 9.07427 8.9208 9.05481 8.99262C9.03535 9.06443 9.02327 9.13244 9.01007 9.20291C9.01007 9.21119 9.0085 9.21969 9.00783 9.22796C9.00429 9.26867 9.00197 9.30948 9.00089 9.35034C8.99862 9.42696 9.00049 9.50366 9.00649 9.58009C9.00649 9.58859 9.00805 9.59709 9.00895 9.60559C9.01723 9.63937 9.01969 9.67718 9.02662 9.71074C9.04136 9.78121 9.05973 9.85088 9.08166 9.91946C9.09418 9.95884 9.10917 9.99709 9.12304 10.0358C9.12528 10.0412 9.12752 10.0465 9.12998 10.0515C9.16337 10.1227 9.20071 10.192 9.24183 10.2591C9.26689 10.2996 9.29307 10.3394 9.32081 10.3783L9.32819 10.3884C9.37405 10.4405 9.41767 10.4931 9.46778 10.5423C9.67987 10.7544 9.66443 11.0868 9.46778 11.3011C9.27114 11.5154 8.9085 11.4998 8.70895 11.3011C8.57044 11.1609 8.44695 11.0066 8.34049 10.8407C7.91946 10.1897 7.80761 9.32662 8.05526 8.5906C8.21387 8.11857 8.49396 7.73803 8.84161 7.39038L10.6275 5.60425C10.8497 5.38233 11.0629 5.15861 11.3139 4.96801C11.9403 4.49195 12.7875 4.34609 13.5459 4.53445C14.2993 4.7217 14.9846 5.27271 15.3013 5.98524C15.6432 6.75369 15.6376 7.60626 15.2544 8.3613Z" fill="#78D2C3"/>
</svg>
