<svg width="14" height="14" viewBox="0 0 14 14" fill="none" xmlns="http://www.w3.org/2000/svg">
<path d="M13.9875 6.99642C13.9875 10.8432 10.8692 13.9616 7.02236 13.9616C3.17557 13.9616 0.0571899 10.8432 0.0571899 6.99642C0.0571899 3.14963 3.17557 0.03125 7.02236 0.03125C10.8692 0.03125 13.9875 3.14963 13.9875 6.99642Z" fill="#1BA27A"/>
<path d="M10.2913 3.54297H3.69586V5.13521H6.19747V7.47551H7.78964V5.13521H10.2913V3.54297Z" fill="white"/>
<path d="M7.00871 7.72483C4.93929 7.72483 3.26166 7.39733 3.26166 6.99328C3.26166 6.5893 4.93929 6.26173 7.00871 6.26173C9.07807 6.26173 10.7557 6.5893 10.7557 6.99328C10.7557 7.39733 9.07807 7.72483 7.00871 7.72483ZM11.216 7.11524C11.216 6.59424 9.33237 6.17188 7.00871 6.17188C4.68506 6.17188 2.80133 6.59424 2.80133 7.11524C2.80133 7.57396 4.262 7.95621 6.19748 8.04098V11.4006H7.78965V8.0423C9.74011 7.96018 11.216 7.5764 11.216 7.11524Z" fill="white"/>
</svg>
