<svg width="15" height="15" viewBox="0 0 15 15" fill="none" xmlns="http://www.w3.org/2000/svg">
<path d="M13.011 5.74165H10.5231C10.2057 5.74165 9.94893 5.48448 9.94893 5.16748C9.94893 4.85052 10.2057 4.59335 10.5231 4.59335H11.5218C10.6209 3.3203 9.13939 2.48815 7.46094 2.48815C4.71279 2.48815 2.48498 4.71597 2.48498 7.46408C2.48498 10.2122 4.71281 12.44 7.46094 12.44C10.2091 12.44 12.4369 10.2122 12.4369 7.46408C12.4369 7.14711 12.6936 6.88994 13.011 6.88994C13.328 6.88994 13.5852 7.14711 13.5852 7.46408C13.5852 10.8464 10.843 13.5883 7.46093 13.5883C4.07883 13.5883 1.33667 10.8464 1.33667 7.46408C1.33667 4.08178 4.07883 1.33984 7.46093 1.33984C9.51357 1.33984 11.3266 2.35185 12.4369 3.90237V2.87091C12.4369 2.55392 12.6936 2.29676 13.011 2.29676C13.328 2.29676 13.5852 2.55392 13.5852 2.87091V5.16749C13.5852 5.48448 13.328 5.74165 13.011 5.74165Z" fill="#02AD8F"/>
</svg>
