<svg width="63" height="63" viewBox="0 0 63 63" fill="none" xmlns="http://www.w3.org/2000/svg">
<circle cx="31.5" cy="31.5" r="31.5" fill="#F24845" fill-opacity="0.2"/>
<path d="M54 31.2444C54 43.2222 44.2222 53 31.7556 53C19.7778 53 10 43.2222 10 31.2444C10 18.7778 19.7778 9 31.7556 9C44.2222 9 54 18.7778 54 31.2444ZM32.2444 19.2667C31.2667 19.2667 30.5333 20 30.5333 20.9778L31.0222 34.9111C31.0222 35.6444 31.7556 36.3778 32.4889 36.3778C33.2222 36.3778 33.9556 35.8889 33.9556 34.9111L34.4444 20.9778C33.9556 20.2444 33.2222 19.2667 32.2444 19.2667ZM32.2444 42C33.2222 42 34.2 41.2667 34.2 40.0444C34.2 39.0667 33.4667 38.0889 32.2444 38.0889C31.0222 38.0889 30.2889 38.8222 30.2889 40.0444C30.5333 41.2667 31.2667 42 32.2444 42Z" fill="#F24845"/>
</svg>
