<svg width="9" height="10" viewBox="0 0 9 10" fill="none" xmlns="http://www.w3.org/2000/svg">
<path d="M8.9034 4.13907C8.00024 2.56407 6.31476 1.58594 4.50509 1.58594C2.69551 1.58594 1.00995 2.56398 0.107133 4.13819C-0.0174084 4.35405 -0.0174084 4.62142 0.106693 4.8364C1.00995 6.41148 2.69542 7.38953 4.50509 7.38953C6.31476 7.38953 8.00024 6.41148 8.90305 4.83728C9.02759 4.62142 9.02759 4.35405 8.9034 4.13907ZM8.37017 4.53063C7.57581 5.91464 6.09494 6.77456 4.50509 6.77456C2.91524 6.77456 1.43437 5.91464 0.639574 4.52975C0.62516 4.50452 0.62516 4.47095 0.639926 4.44493C1.43437 3.06083 2.91524 2.20091 4.50509 2.20091C6.09494 2.20091 7.57581 3.06083 8.37061 4.44572C8.38502 4.47095 8.38502 4.50452 8.37017 4.53063ZM6.26967 4.36864C6.27231 4.40819 6.27574 4.44757 6.27574 4.48782C6.27574 5.46569 5.48305 6.25838 4.50518 6.25838C3.52731 6.25838 2.73462 5.46569 2.73462 4.48782C2.73462 3.64522 3.32375 2.94156 4.11213 2.76262C4.17366 3.68468 4.9391 4.41399 5.87671 4.41399C6.01198 4.41391 6.14311 4.39738 6.26967 4.36864Z" fill="#888888"/>
</svg>
