<svg width="16" height="16" viewBox="0 0 16 16" fill="none" xmlns="http://www.w3.org/2000/svg">
<path d="M15.9858 7.99926C15.9858 12.3956 12.422 15.9595 8.02563 15.9595C3.62929 15.9595 0.0654297 12.3956 0.0654297 7.99926C0.0654297 3.60292 3.62929 0.0390625 8.02563 0.0390625C12.422 0.0390625 15.9858 3.60292 15.9858 7.99926Z" fill="#1BA27A"/>
<path d="M11.7615 4.05078H4.22388V5.87049H7.08286V8.54512H8.90249V5.87049H11.7615V4.05078Z" fill="white"/>
<path d="M8.00998 8.8334C5.64492 8.8334 3.72763 8.45911 3.72763 7.99734C3.72763 7.53565 5.64492 7.16128 8.00998 7.16128C10.375 7.16128 12.2923 7.53565 12.2923 7.99734C12.2923 8.45911 10.375 8.8334 8.00998 8.8334ZM12.8183 8.13672C12.8183 7.5413 10.6656 7.05859 8.00998 7.05859C5.35438 7.05859 3.20154 7.5413 3.20154 8.13672C3.20154 8.66098 4.87087 9.09784 7.08285 9.19471V13.0342H8.90248V9.19622C11.1316 9.10237 12.8183 8.66377 12.8183 8.13672Z" fill="white"/>
</svg>
