<svg width="14" height="14" viewBox="0 0 14 14" fill="none" xmlns="http://www.w3.org/2000/svg">
<path d="M13.9419 7.001C13.9419 10.8482 10.8233 13.9669 6.97604 13.9669C3.12887 13.9669 0.0101929 10.8482 0.0101929 7.001C0.0101929 3.15384 3.12887 0.0351562 6.97604 0.0351562C10.8233 0.0351562 13.9419 3.15384 13.9419 7.001Z" fill="#F7931A"/>
<path d="M8.6673 9.03564C8.63889 9.1321 8.59162 9.22195 8.52822 9.3C8.46482 9.37804 8.38656 9.44273 8.29798 9.4903C8.20968 9.53843 8.11271 9.56856 8.01269 9.57894C7.91267 9.58931 7.81158 9.57974 7.71528 9.55077L5.75363 8.96654L6.19067 7.49932L8.15218 8.08362H8.15225C8.55669 8.20406 8.78781 8.63113 8.6673 9.03564ZM9.32892 6.02883C9.377 6.11716 9.40709 6.21414 9.41745 6.31417C9.42782 6.4142 9.41825 6.51529 9.38931 6.6116C9.26881 7.01596 8.84152 7.24695 8.43729 7.12672H8.43722L6.47564 6.5425L6.91254 5.07528L8.87419 5.6595C8.97064 5.68794 9.0605 5.73522 9.13855 5.79862C9.2166 5.86202 9.28131 5.94026 9.32892 6.02883ZM10.207 5.55376C9.9828 5.13937 9.61062 4.83705 9.15916 4.70261L8.89962 4.62536L9.26295 3.40536L8.33071 3.1277L7.96738 4.3477L7.17146 4.11065L7.53487 2.89065L7.31154 2.82413L6.40682 2.55469L6.05657 3.73066L4.95402 3.40229L4.64286 4.44717L5.74541 4.77561L4.61269 8.57882L3.51014 8.25045L3.19897 9.2954L4.30146 9.6237L4.0059 10.6163L4.22915 10.6828L5.13388 10.9522L5.4426 9.91564L6.2404 10.1532L5.93168 11.1899L6.86015 11.4664L7.16888 10.4298L7.43024 10.5076C7.59441 10.5567 7.76483 10.5816 7.93617 10.5818C8.22525 10.5818 8.51162 10.51 8.77305 10.3685C9.18744 10.1443 9.48969 9.77214 9.6242 9.32054C9.76561 8.84554 9.69581 8.35759 9.47088 7.95594C9.87922 7.74285 10.2046 7.37178 10.3461 6.89657C10.4807 6.44497 10.4312 5.96809 10.207 5.55376Z" fill="white"/>
</svg>
