<svg width="20" height="20" viewBox="0 0 20 20" fill="none" xmlns="http://www.w3.org/2000/svg">
<path d="M10 0C15.5229 0 20 4.47714 20 10C20 15.5229 15.5229 20 10 20C4.47714 20 0 15.5229 0 10C0 4.47714 4.47714 0 10 0ZM14.7526 6.59371C14.6302 6.56242 14.5017 6.5639 14.3801 6.59801C14.2585 6.63211 14.148 6.69764 14.0597 6.788L8.844 11.9201L6.02686 9.54629C5.72829 9.299 5.28271 9.33443 5.02857 9.62571C4.96818 9.6946 4.9221 9.77481 4.893 9.86167C4.8639 9.94853 4.85238 10.0403 4.85909 10.1317C4.8658 10.223 4.89062 10.3122 4.93211 10.3938C4.97359 10.4755 5.0309 10.5481 5.10071 10.6074L8.419 13.4029C8.70129 13.641 9.12257 13.625 9.38543 13.3663L15.0664 7.77529C15.1576 7.69001 15.224 7.58162 15.2586 7.46164C15.2931 7.34166 15.2945 7.21456 15.2626 7.09386C15.2298 6.97264 15.1652 6.86237 15.0756 6.77445C14.9859 6.68652 14.8744 6.62413 14.7526 6.59371Z" fill="#02AD8F"/>
</svg>
