<svg width="11" height="14" viewBox="0 0 11 14" fill="none" xmlns="http://www.w3.org/2000/svg">
<path d="M9.16607 2.175C9.04246 2.175 8.92391 2.1259 8.83651 2.03849C8.7491 1.95109 8.7 1.83254 8.7 1.70893C8.7 1.58532 8.7491 1.46677 8.83651 1.37937C8.92391 1.29196 9.04246 1.24286 9.16607 1.24286C9.39049 1.24286 9.61271 1.28706 9.82005 1.37294C10.0274 1.45882 10.2158 1.5847 10.3745 1.74339C10.5332 1.90208 10.659 2.09047 10.7449 2.29781C10.8308 2.50514 10.875 2.72737 10.875 2.95179V11.6518C10.875 12.105 10.695 12.5397 10.3745 12.8602C10.054 13.1807 9.61931 13.3607 9.16607 13.3607H1.70893C1.25569 13.3607 0.82102 13.1807 0.500534 12.8602C0.180047 12.5397 4.82851e-09 12.105 0 11.6518V2.95179C0 2.49855 0.180047 2.06388 0.500534 1.74339C0.82102 1.4229 1.25569 1.24286 1.70893 1.24286C1.83254 1.24286 1.95109 1.29196 2.03849 1.37937C2.1259 1.46677 2.175 1.58532 2.175 1.70893C2.175 1.83254 2.1259 1.95109 2.03849 2.03849C1.95109 2.1259 1.83254 2.175 1.70893 2.175C1.28014 2.175 0.932143 2.523 0.932143 2.95179V11.6518C0.932143 12.0806 1.28014 12.4286 1.70893 12.4286H9.16607C9.59486 12.4286 9.94286 12.0806 9.94286 11.6518V2.95179C9.94286 2.523 9.59486 2.175 9.16607 2.175ZM3.88393 0H6.99107C7.3619 0 7.71754 0.147311 7.97976 0.409528C8.24197 0.671744 8.38929 1.02738 8.38929 1.39821C8.38929 1.76904 8.24197 2.12468 7.97976 2.3869C7.71754 2.64912 7.3619 2.79643 6.99107 2.79643H3.88393C3.5131 2.79643 3.15746 2.64912 2.89524 2.3869C2.63303 2.12468 2.48571 1.76904 2.48571 1.39821C2.48571 1.02738 2.63303 0.671744 2.89524 0.409528C3.15746 0.147311 3.5131 0 3.88393 0ZM3.88393 0.932143C3.76032 0.932143 3.64177 0.981247 3.55437 1.06865C3.46696 1.15606 3.41786 1.2746 3.41786 1.39821C3.41786 1.52182 3.46696 1.64037 3.55437 1.72778C3.64177 1.81518 3.76032 1.86429 3.88393 1.86429H6.99107C7.11468 1.86429 7.23323 1.81518 7.32063 1.72778C7.40804 1.64037 7.45714 1.52182 7.45714 1.39821C7.45714 1.2746 7.40804 1.15606 7.32063 1.06865C7.23323 0.981247 7.11468 0.932143 6.99107 0.932143H3.88393ZM2.64107 6.21429C2.51746 6.21429 2.39891 6.16518 2.31151 6.07778C2.2241 5.99037 2.175 5.87182 2.175 5.74821C2.175 5.6246 2.2241 5.50606 2.31151 5.41865C2.39891 5.33125 2.51746 5.28214 2.64107 5.28214H3.2625C3.38611 5.28214 3.50466 5.33125 3.59206 5.41865C3.67947 5.50606 3.72857 5.6246 3.72857 5.74821C3.72857 5.87182 3.67947 5.99037 3.59206 6.07778C3.50466 6.16518 3.38611 6.21429 3.2625 6.21429H2.64107ZM4.81607 6.21429C4.69246 6.21429 4.57391 6.16518 4.48651 6.07778C4.3991 5.99037 4.35 5.87182 4.35 5.74821C4.35 5.6246 4.3991 5.50606 4.48651 5.41865C4.57391 5.33125 4.69246 5.28214 4.81607 5.28214H7.92321C8.04682 5.28214 8.16537 5.33125 8.25278 5.41865C8.34018 5.50606 8.38929 5.6246 8.38929 5.74821C8.38929 5.87182 8.34018 5.99037 8.25278 6.07778C8.16537 6.16518 8.04682 6.21429 7.92321 6.21429H4.81607ZM2.64107 9.32143C2.51746 9.32143 2.39891 9.27232 2.31151 9.18492C2.2241 9.09751 2.175 8.97897 2.175 8.85536C2.175 8.73175 2.2241 8.6132 2.31151 8.52579C2.39891 8.43839 2.51746 8.38929 2.64107 8.38929H3.2625C3.38611 8.38929 3.50466 8.43839 3.59206 8.52579C3.67947 8.6132 3.72857 8.73175 3.72857 8.85536C3.72857 8.97897 3.67947 9.09751 3.59206 9.18492C3.50466 9.27232 3.38611 9.32143 3.2625 9.32143H2.64107ZM4.81607 9.32143C4.69246 9.32143 4.57391 9.27232 4.48651 9.18492C4.3991 9.09751 4.35 8.97897 4.35 8.85536C4.35 8.73175 4.3991 8.6132 4.48651 8.52579C4.57391 8.43839 4.69246 8.38929 4.81607 8.38929H7.92321C8.04682 8.38929 8.16537 8.43839 8.25278 8.52579C8.34018 8.6132 8.38929 8.73175 8.38929 8.85536C8.38929 8.97897 8.34018 9.09751 8.25278 9.18492C8.16537 9.27232 8.04682 9.32143 7.92321 9.32143H4.81607Z" fill="white"/>
</svg>
