<svg width="16" height="16" viewBox="0 0 16 16" fill="none" xmlns="http://www.w3.org/2000/svg">
<path d="M15.6758 7.19109L12.6318 10.2887L13.3506 14.6673C13.3856 14.8769 13.3636 15.0926 13.2871 15.2897C13.2105 15.4869 13.0825 15.6578 12.9177 15.7828C12.7528 15.9079 12.5576 15.9821 12.3543 15.9972C12.151 16.0122 11.9478 15.9674 11.7677 15.8678L7.99998 13.7987L4.23716 15.8638C4.05704 15.9626 3.85402 16.0069 3.65106 15.9915C3.44811 15.9762 3.25331 15.9018 3.08872 15.7769C2.92412 15.652 2.79628 15.4815 2.71967 15.2847C2.64305 15.0879 2.62071 14.8726 2.65518 14.6632L3.37302 10.2846L0.329025 7.19109C0.183391 7.04266 0.0804081 6.85468 0.0317078 6.64838C-0.0169926 6.44207 -0.00947036 6.22565 0.053425 6.02358C0.11632 5.8215 0.232083 5.6418 0.387639 5.50479C0.543194 5.36778 0.732345 5.27891 0.933728 5.24821L5.14227 4.61077L7.02172 0.634391C7.11088 0.443737 7.24964 0.283132 7.42212 0.170945C7.5946 0.0587574 7.79384 -0.000481833 7.99705 2.95173e-06C8.20027 -0.000481833 8.39951 0.0587574 8.57199 0.170945C8.74447 0.283132 8.88322 0.443737 8.97238 0.634391L10.8538 4.61484L15.0604 5.25229C15.2618 5.28182 15.4514 5.36957 15.6076 5.50561C15.7639 5.64166 15.8806 5.82059 15.9446 6.02222C16.0086 6.22384 16.0173 6.44013 15.9698 6.64667C15.9224 6.85321 15.8205 7.04177 15.6758 7.19109Z" fill="#CCCCCC"/>
</svg>
