<svg width="8" height="7" viewBox="0 0 8 7" fill="none" xmlns="http://www.w3.org/2000/svg">
<path d="M1.82575 3.44047C1.82575 2.27577 2.77998 1.33238 3.9635 1.31299L4.2618 0.712391C4.17396 0.707258 4.08898 0.691858 4 0.691858C2.15999 0.691858 0.597177 1.83773 0 3.4399C0.33937 4.35078 0.997576 5.10481 1.83488 5.59418L2.27007 4.71867C1.98403 4.35382 1.82769 3.90407 1.82575 3.44047ZM6.16512 1.28675L5.72993 2.16227C6.01597 2.52734 6.1723 2.97726 6.17425 3.44104C6.17425 4.6063 5.22002 5.54912 4.0365 5.56909L3.7382 6.16912C3.82604 6.17368 3.91102 6.18851 4 6.18851C5.84001 6.18851 7.40282 5.04264 8 3.4399C7.66063 2.52902 7.00242 1.77556 6.16512 1.28675ZM5.15272 0L1.9461 6.45031L2.84785 6.88094L6.05447 0.430629L5.15272 0Z" fill="#7E7E7E"/>
</svg>
