<svg width="14" height="14" viewBox="0 0 14 14" fill="none" xmlns="http://www.w3.org/2000/svg">
<g clip-path="url(#clip0)">
<path d="M12.488 11.7332C12.7499 12.3159 12.4863 13.0521 11.9397 13.349C11.627 13.5194 11.2689 13.6774 10.9113 13.7661C10.3215 13.9071 9.71849 13.9855 9.11227 14C8.14277 14 7.17035 13.4447 6.75152 12.7692C6.6436 13.0025 6.25277 13.4709 5.56735 13.6914C5.1351 13.8314 4.6136 14 3.52452 13.9989C2.5486 13.9983 1.9921 13.5555 1.69869 13.1845C1.22969 12.5942 1.16085 11.844 1.25244 11.3389L1.2571 11.3144C1.62519 9.46694 2.1286 6.1081 2.36077 4.42519L2.3631 4.40885C2.4261 3.94219 2.49085 3.47552 2.52935 3.00535C2.54802 2.76852 2.56085 2.53052 2.56319 2.2931C2.56552 2.06852 2.5451 1.84394 2.54685 1.61994C2.54919 1.40819 2.5836 1.1941 2.68277 1.00627C2.85011 0.70326 3.12415 0.473303 3.4516 0.361102C3.79402 0.246769 4.1516 0.200685 4.50802 0.159269C4.87206 0.115804 5.2369 0.0794363 5.60235 0.0501852C6.04805 0.0173466 6.49478 0.000613515 6.94169 1.85702e-05C7.70585 -0.000564768 8.47585 0.0116852 9.22894 0.167435C9.9966 0.325519 10.7724 0.628269 11.3779 1.15852C11.7927 1.52194 12.1223 1.97985 12.3696 2.48152C12.5866 2.92369 12.6747 3.3886 12.7272 3.74385C12.8204 4.38185 12.7959 5.03152 12.6549 5.66069C12.5435 6.11956 12.3555 6.55637 12.0989 6.95277C11.8108 7.40077 11.4404 7.80735 10.969 8.1941C11.256 9.02827 12.005 10.6569 12.488 11.7332ZM3.90135 1.70452C3.92002 2.01369 3.92235 2.32519 3.90894 2.63552C3.89463 2.95247 3.86934 3.26882 3.8331 3.58402C3.7981 3.89785 3.7561 4.2111 3.71352 4.52377L3.69952 4.62585C3.56535 5.6041 3.42477 6.58118 3.2766 7.55652C3.11792 8.5799 2.94952 9.60175 2.77144 10.6219C2.69035 11.0979 2.50894 11.7075 2.75744 12.1619C2.9791 12.5674 3.54727 12.6169 3.94394 12.5761C5.3871 12.4285 5.61635 12.1077 5.61635 12.1077C5.32877 11.7886 5.57902 10.3349 5.86835 8.38135H6.89444L7.96777 11.6288C7.96777 11.6288 8.28452 12.6344 9.1636 12.586C10.2906 12.5242 11.1195 12.2664 11.2391 12.1234C10.892 11.9298 9.89977 9.44885 9.3596 7.6271C9.62094 7.46727 9.87469 7.29402 10.1144 7.09977C10.4411 6.83319 10.7444 6.52577 10.976 6.16469C11.1451 5.90471 11.2693 5.6182 11.3435 5.3171C11.38 5.15542 11.4044 4.99124 11.4164 4.82594C11.4407 4.53692 11.4317 4.24607 11.3896 3.9591C11.3488 3.68377 11.2887 3.37752 11.1662 3.1296C10.9375 2.66469 10.6144 2.25927 10.1739 2.00027C9.43019 1.56277 8.57269 1.47994 7.73735 1.43444C6.83098 1.38397 5.92192 1.41364 5.02077 1.5231C4.91927 1.53477 3.89727 1.62519 3.90194 1.70394L3.90135 1.70452ZM6.66285 2.9616C6.49019 4.17785 6.35194 5.20277 6.10285 6.79819C6.77544 6.7836 8.30202 7.05135 8.63802 4.87085C8.91627 3.05669 7.6761 2.88869 6.66285 2.9616Z" fill="#2C2C2C"/>
</g>
<defs>
<clipPath id="clip0">
<rect width="14" height="14" fill="white"/>
</clipPath>
</defs>
</svg>
