<svg width="11" height="11" viewBox="0 0 11 11" fill="none" xmlns="http://www.w3.org/2000/svg">
<path d="M6.9848 2.65018C6.61112 2.32241 6.14311 2.15835 5.5808 2.15835C5.30285 2.15835 5.03877 2.20106 4.78858 2.28719C4.53839 2.37295 4.31132 2.50605 4.10739 2.68683C3.90348 2.86798 3.75541 3.07296 3.66254 3.30288C3.57 3.53277 3.51732 3.86838 3.50487 4.30968H4.32058C4.32058 3.34131 4.73165 2.85697 5.55304 2.85697C5.91784 2.85697 6.19579 2.9598 6.38726 3.16515C6.57873 3.37049 6.67445 3.60644 6.67445 3.87301C6.67445 4.13957 6.6328 4.34028 6.54953 4.47516C6.4659 4.61005 6.27904 4.82606 5.98863 5.12323C5.69823 5.42039 5.4975 5.64567 5.38645 5.79905C5.27507 5.95207 5.19178 6.13144 5.13591 6.3368C5.0804 6.54213 5.05263 6.81616 5.05263 7.15961H5.86835C5.86193 6.8653 5.88544 6.63077 5.93775 6.45638C5.99006 6.28163 6.06766 6.13146 6.16943 6.00584C6.27123 5.88022 6.47834 5.66846 6.79047 5.37131C7.10222 5.07414 7.30617 4.82573 7.40189 4.62679C7.49764 4.4275 7.54568 4.20542 7.54568 3.96022C7.54569 3.41462 7.35885 2.97795 6.9848 2.65018ZM10.9658 5.5008C10.9658 2.4822 8.5187 0.0351562 5.50001 0.0351562C2.48131 0.0351562 0.0341797 2.4822 0.0341797 5.5008C0.0341797 8.5194 2.48131 10.9665 5.50001 10.9665V10.9668C6.53638 10.9668 7.50546 10.6782 8.33115 10.1771L10.9658 10.9668L9.88287 8.76746C10.563 7.85604 10.9658 6.72576 10.9658 5.5008ZM8.45321 9.20234C7.75103 9.62834 6.38084 10.1469 5.50001 10.1469C2.93401 10.1469 0.854163 8.0667 0.854163 5.5008C0.854163 2.93525 2.93401 0.855107 5.50001 0.855107C8.066 0.855107 10.1458 2.93525 10.1458 5.50081C10.1458 6.54176 9.53016 7.77598 8.95216 8.55073L9.32621 9.60021L8.45321 9.20234ZM5.03414 8.84184H5.93313V7.90409H5.03414V8.84184Z" fill="white"/>
</svg>
