<svg width="16" height="17" viewBox="0 0 16 17" fill="none" xmlns="http://www.w3.org/2000/svg">
<path d="M8.00033 16.6411C5.86365 16.6411 3.85494 15.8022 2.34403 14.2792C0.833107 12.7562 0 10.7287 0 8.57221C0 6.41577 0.832586 4.38939 2.3435 2.86583C3.85442 1.34226 5.86277 0.503906 7.99981 0.503906C10.1369 0.503906 12.1452 1.34282 13.6559 2.86583C15.1667 4.38883 16 6.41635 16 8.5715C16 10.7266 15.1676 12.7549 13.656 14.2785C12.1444 15.802 10.1371 16.6411 8.00035 16.6411H8.00033ZM8.00033 1.66116C6.1677 1.66116 4.44532 2.38021 3.15034 3.68612C1.85535 4.99203 1.14287 6.72653 1.14287 8.57223C1.14287 10.4179 1.85551 12.1533 3.1498 13.4576C4.44408 14.762 6.16664 15.4826 7.99981 15.4826C9.83298 15.4826 11.5548 14.7637 12.8498 13.4576C14.1448 12.1516 14.8573 10.4172 14.8567 8.57152C14.8562 6.72584 14.1441 4.99095 12.8498 3.68668C11.5555 2.38241 9.83245 1.66116 8.00033 1.66116ZM12.0006 7.99335H8.57177V4.51979C8.55811 4.20006 8.29117 3.95211 7.97558 3.96597C7.67914 3.97897 7.44175 4.21947 7.4289 4.51979V7.99334H4.00025C3.68466 8.00719 3.4399 8.27761 3.45356 8.59732C3.46641 8.89761 3.7038 9.1381 4.00027 9.15112H7.42888V12.6247C7.44256 12.9444 7.70949 13.1923 8.02508 13.1785C8.32151 13.1655 8.5589 12.925 8.57175 12.6247V9.15114H12.0006C12.3162 9.16501 12.5831 8.91706 12.5968 8.59733C12.6105 8.27761 12.3657 8.00719 12.0501 7.99335C12.0336 7.99263 12.0171 7.99263 12.0006 7.99335H12.0006Z" fill="#5C5C5C"/>
</svg>
