<svg width="14" height="14" viewBox="0 0 14 14" fill="none" xmlns="http://www.w3.org/2000/svg">
<path d="M6.69319 11.1487C5.64319 11.6491 4.4415 11.9654 3.13719 11.6527C1.83289 11.34 0.908811 10.5116 1.0675 8.96931C1.22619 7.427 2.87231 6.90319 4.22569 6.90319C5.57907 6.90319 8.14681 7.78057 8.14681 7.78057C8.14681 7.78057 8.36269 7.29757 8.57269 6.74457C8.69629 6.42262 8.7862 6.08873 8.841 5.74826H3.37288V5.19996H6.02938V4.14996L2.71838 4.17327V3.48496H6.02938V1.91219H7.76769V3.48369H11.3166V4.17439L7.76768 4.2V5.1765L10.6984 5.19981C10.6984 5.19981 10.6459 5.74812 10.2737 6.7445C10.0899 7.27116 9.84853 7.77589 9.55387 8.2495L14 9.70788V2.8C14 1.25363 12.7464 0 11.2 0H2.8C1.25363 0 0 1.25363 0 2.8V11.2C0 12.7464 1.25363 14 2.8 14H11.2C12.4593 13.999 13.5631 13.1574 13.8973 11.9432L8.764 9.51181C8.764 9.51181 7.73612 10.6482 6.6885 11.1452L6.69319 11.1487Z" fill="#108EE9"/>
<path d="M3.65643 7.74841C2.02312 7.85215 1.62524 8.56503 1.62524 9.23128C1.62524 9.89741 2.02774 10.8109 3.94693 10.8109C5.86612 10.8109 7.49123 8.87653 7.49123 8.87653C7.49123 8.87653 5.28743 7.64453 3.65643 7.74841Z" fill="#108EE9"/>
</svg>
