<svg width="58" height="40" viewBox="0 0 58 40" fill="none" xmlns="http://www.w3.org/2000/svg">
<path d="M54.042 39.6333V38.8764H57.2414V35.6714H58V39.6333H54.042ZM57.2414 0.758607H57.247V0.757639H54.042V0H58V3.95706H57.2414V0.758607ZM54.4083 3.16536C54.6089 3.36527 54.7679 3.60288 54.8763 3.8645C54.9846 4.12613 55.0401 4.40661 55.0396 4.68978L55.0451 34.445C55.0438 35.0175 54.8157 35.5662 54.4105 35.9708C54.0054 36.3755 53.4565 36.603 52.8839 36.6035H4.74876C4.17617 36.6028 3.62721 36.3751 3.22225 35.9703C2.81729 35.5655 2.58938 35.0166 2.58847 34.444V4.69438C2.58899 4.1216 2.81675 3.57242 3.22178 3.16741C3.6268 2.76239 4.17598 2.53464 4.74876 2.53413H52.8839C53.4513 2.53413 54.0086 2.76369 54.4083 3.16536ZM52.8839 3.45681H4.74876C4.42071 3.45731 4.10624 3.58786 3.87429 3.81985C3.64234 4.05184 3.51183 4.36633 3.51138 4.69438V34.445C3.51202 34.7729 3.64261 35.0872 3.87455 35.319C4.10649 35.5508 4.42085 35.6812 4.74876 35.6816H52.8839C53.1941 35.6812 53.4928 35.5645 53.721 35.3545C53.9493 35.1445 54.0904 34.8565 54.1166 34.5474V4.68981C54.1159 4.36293 53.9862 4.04953 53.7558 3.81765C53.5242 3.58697 53.2108 3.45726 52.8839 3.45685V3.45681ZM18.0276 26.2421H46.5542V28.1488H18.0276V26.2421ZM23.5838 16.4022H46.5532V18.3087H23.5838V16.4022ZM23.5838 11.6479H46.5532V13.5599H23.5838V11.6479ZM23.5838 6.84836H46.5532V8.76016H23.5838V6.84836ZM18.7954 16.4022H22.4847V18.3087H18.7954V16.4022ZM18.7954 11.6479H22.4847V13.5544H18.7954V11.6479ZM18.7954 6.89813H22.4847V8.80464H18.7954V6.89813ZM14.8695 15.8439L15.6682 17.3205C15.4965 17.1933 15.2942 17.1138 15.0819 17.0899C14.8695 17.0659 14.6546 17.0985 14.4589 17.1842C14.0388 17.4677 13.7256 17.8835 13.5688 18.3655L12.9301 17.3887V17.8884H8.75436V17.3887L8.18405 18.3654C8.02736 17.8835 7.71418 17.4678 7.29423 17.1842C6.7009 16.8661 6.06196 17.4341 6.06196 17.4341L6.90611 15.8212C5.00638 13.6972 5.13178 10.4579 7.19031 8.48587C9.24861 6.51388 12.5043 6.51388 14.5626 8.48587C16.6211 10.4579 16.7465 13.6972 14.8468 15.8212L14.8695 15.8439ZM8.3665 10.9364L8.22972 10.5502L8.02432 10.891H7.70481L8.00133 11.1408V11.527L8.32083 11.3226L8.6403 11.527L8.45784 11.1863L8.75436 10.9364H8.3665ZM8.27516 15.5029H13.7286L13.1809 14.6397H8.82306L8.2752 15.5029H8.27516ZM11.9033 14.617L11.7208 14.0488H10.192L9.98663 14.617H11.9033H11.9033ZM9.2336 11.9362L9.53011 12.186V12.5722L9.84962 12.3678L10.1691 12.5722L9.98663 12.2315L10.3061 11.9816H9.89529L9.75851 11.5497L9.62149 11.9362H9.2336ZM11.2186 9.8687L10.8992 9.05064L10.5799 9.8687H9.71284L10.3745 10.4366L10.1691 11.2998L10.8992 10.8228L11.6295 11.2998L11.4241 10.4366L12.0858 9.8687H11.2186ZM12.5877 11.9816L12.4282 11.5497L12.2912 11.9362H11.9033L12.1998 12.186V12.5722L12.5193 12.3678L12.8388 12.5722L12.5877 12.2315L12.8845 11.9816H12.5877ZM13.82 10.7319L13.6832 10.3457L13.5462 10.7319H13.1583L13.4548 10.9818V11.368L13.7743 11.1636L14.0937 11.368L13.9113 10.9818L14.2078 10.7319H13.82ZM16.1457 28.1488H7.75075V26.2421H16.1457V28.1488ZM16.1457 31.8778H7.75075V29.9713H16.1457V31.8778ZM46.5532 31.8778H18.0276V29.9713H46.5532V31.8778ZM0.757639 3.95706H0V0H3.96163V0.757639H0.757639V3.95706ZM0.757639 38.8764H3.96163V39.6333H0V35.6714H0.757639V38.8764Z" fill="#02AD8F"/>
</svg>
