<svg width="12" height="12" viewBox="0 0 12 12" fill="none" xmlns="http://www.w3.org/2000/svg">
<g clip-path="url(#clip0)">
<path d="M10.0535 12.001H3.28304C2.29941 11.9997 1.50243 11.2161 1.5011 10.2471V5.42291C1.50243 4.45461 2.29941 3.6693 3.28304 3.66797H10.0535C11.0371 3.6693 11.8341 4.45428 11.8341 5.42291V10.2471C11.8341 11.2161 11.0371 11.9997 10.0535 12.001ZM3.28304 4.42128C2.72172 4.42228 2.26574 4.87026 2.26574 5.42424V10.2484C2.26707 10.8011 2.72172 11.249 3.28304 11.249H10.0535C10.6148 11.249 11.0694 10.8011 11.0708 10.2484V5.42291C11.0708 4.87026 10.6148 4.42128 10.0535 4.41994L3.28304 4.42128Z" fill="white"/>
<path d="M1.95346 8.06046C1.88152 8.06085 1.81092 8.04099 1.74973 8.00315C1.68855 7.96531 1.63925 7.91101 1.60747 7.84647L0.326845 5.22322C0.229747 5.01227 0.175969 4.78398 0.168698 4.55187C0.161426 4.31976 0.200809 4.08855 0.284513 3.87193C0.368804 3.65403 0.495285 3.45492 0.656702 3.28601C0.818118 3.1171 1.01129 2.98172 1.22515 2.88763L7.43161 0.154389C7.86503 -0.0375093 8.35658 -0.0510403 8.7999 0.116724C9.01833 0.198708 9.21847 0.322914 9.38891 0.48225C9.55934 0.641586 9.69671 0.832931 9.7932 1.04536L11.1402 3.9466C11.1766 4.03706 11.1764 4.13813 11.1396 4.22845C11.1028 4.31877 11.0324 4.39125 10.9432 4.43058C10.8537 4.47127 10.752 4.4763 10.6589 4.44465C10.5658 4.41301 10.4883 4.34706 10.4422 4.26025L9.09422 1.35535C8.98257 1.11056 8.77881 0.919742 8.52724 0.824367C8.27383 0.7282 7.99272 0.735865 7.74493 0.8457L1.5378 3.57761C1.02349 3.8046 0.792829 4.39858 1.02216 4.90623L2.29945 7.51848C2.35711 7.63581 2.34844 7.77314 2.27878 7.88313C2.20812 7.99313 2.08412 8.06046 1.95346 8.06046ZM4.7127 8.6911C4.5387 8.6911 4.38604 8.57644 4.34171 8.41178C4.3197 8.33099 4.32536 8.24515 4.3578 8.16794C4.39024 8.09074 4.44759 8.02662 4.52071 7.9858L7.84226 6.09753C7.93034 6.04733 8.03461 6.03374 8.13262 6.05967C8.23062 6.08561 8.31452 6.149 8.36624 6.23619C8.47191 6.41718 8.40957 6.64784 8.22558 6.75184L4.90236 8.64011C4.84503 8.67344 4.77903 8.69011 4.7127 8.6911ZM5.47934 9.99973C5.39526 10.0008 5.3132 9.97398 5.24601 9.92344C5.17882 9.87289 5.13029 9.80148 5.10802 9.7204C5.08621 9.6398 5.09199 9.55422 5.12442 9.47727C5.15686 9.40032 5.21409 9.33643 5.28701 9.29575L8.6089 7.40748C8.66734 7.37432 8.73337 7.35689 8.80056 7.35689C8.86775 7.35689 8.93379 7.37432 8.99222 7.40748C9.11088 7.47481 9.18422 7.59914 9.18422 7.73514C9.18422 7.87013 9.11088 7.99413 8.99222 8.06179L5.67033 9.94873C5.61267 9.98206 5.54667 9.99873 5.47934 9.99973Z" fill="white"/>
</g>
<defs>
<clipPath id="clip0">
<rect width="12" height="12" fill="white"/>
</clipPath>
</defs>
</svg>
