<svg width="93" height="30" viewBox="0 0 93 30" fill="none" xmlns="http://www.w3.org/2000/svg">
<path d="M53.625 27.0795V22.2699H56.2344C58.0082 22.2699 59.1424 21.835 59.637 20.9652C59.9269 20.4535 60.0719 19.7372 60.0719 18.8162V12.6251C60.0719 10.9878 59.4835 9.99002 58.3067 9.63186C57.8632 9.49542 57.343 9.4272 56.7461 9.4272H56.1065C54.6227 9.4272 53.7785 10.1776 53.5738 11.6785C53.5567 11.7297 53.5482 11.7723 53.5482 11.8064L53.2668 9.68303H49.9666V27.0795H53.625ZM53.625 12.7274C53.6591 12.5057 53.7785 12.3863 53.9831 12.3693H56.1321C56.3538 12.4034 56.4732 12.5228 56.4903 12.7274V18.9185C56.4562 19.1402 56.3368 19.2596 56.1321 19.2767H53.625V12.7274ZM68.2841 12.4972C68.5058 12.5313 68.6252 12.6507 68.6422 12.8553V19.0464C68.6081 19.2682 68.4887 19.3876 68.2841 19.4046H66.1351C65.9134 19.3705 65.794 19.2511 65.7769 19.0464V12.8553C65.811 12.6336 65.9304 12.5142 66.1351 12.4972H68.2841ZM62.1186 18.6371C62.1186 20.5303 62.8264 21.7071 64.242 22.1676C64.8559 22.3722 65.5979 22.4746 66.4677 22.4746H67.9515C70.1517 22.4746 71.5076 21.8094 72.0192 20.4791C72.2068 19.9674 72.3006 19.3534 72.3006 18.6371V13.2647C72.3006 11.3715 71.5928 10.1947 70.1772 9.73419C69.5803 9.52953 68.8384 9.4272 67.9515 9.4272H66.4677C64.2675 9.4272 62.9116 10.0924 62.4 11.4227C62.2124 11.9343 62.1186 12.5483 62.1186 13.2647V18.6371ZM80.5128 12.4972C80.7345 12.5313 80.8539 12.6507 80.871 12.8553V19.0464C80.8369 19.2682 80.7175 19.3876 80.5128 19.4046H78.3638C78.1421 19.3705 78.0227 19.2511 78.0057 19.0464V12.8553C78.0398 12.6336 78.1592 12.5142 78.3638 12.4972H80.5128ZM74.3473 18.6371C74.3473 20.5303 75.0551 21.7071 76.4707 22.1676C77.0847 22.3722 77.8266 22.4746 78.6964 22.4746H80.1802C82.3804 22.4746 83.7363 21.8094 84.2479 20.4791C84.4356 19.9674 84.5294 19.3534 84.5294 18.6371V13.2647C84.5294 11.3715 83.8216 10.1947 82.406 9.73419C81.809 9.52953 81.0671 9.4272 80.1802 9.4272H78.6964C76.4963 9.4272 75.1404 10.0924 74.6287 11.4227C74.4411 11.9343 74.3473 12.5483 74.3473 13.2647V18.6371ZM90.5926 22.2188V4.95015H86.9598V22.2188H90.5926Z" fill="white"/>
<path d="M42.1911 1.24101C42.0209 1.23216 41.8504 1.23216 41.6803 1.24101L41.6322 1.24101C41.427 1.24101 41.1956 1.26757 41.0122 1.29413H40.9249C40.7241 1.34282 40.5494 1.37823 40.366 1.41807L40.2351 1.44906C40.0691 1.49333 39.9032 1.54202 39.7417 1.59514L39.567 1.65268C39.4186 1.7058 39.2789 1.76777 39.1304 1.82974C39.0606 1.86073 38.9863 1.88729 38.9165 1.9227C38.8466 1.95811 38.6589 2.05992 38.5279 2.13517C38.3969 2.21043 38.3794 2.21043 38.3096 2.25469C38.2397 2.29896 38.0476 2.43175 37.921 2.52028L37.7944 2.60881L37.2311 2.00238L36.1177 3.06032L36.6722 3.67119C35.7622 4.74006 35.1955 6.06508 35.048 7.46916C35.0167 7.72023 35.0006 7.97303 35 8.2261H35.3711L36.5063 8.42087C36.8762 7.29762 37.4708 6.26385 38.2528 5.38426L42.3308 9.8595L43.4617 8.79713L39.3706 4.33959C40.2968 3.61786 41.3594 3.09658 42.4924 2.80801L42.357 1.24101H42.1867H42.1911Z" fill="#71C4B6"/>
<path d="M11.1287 18.8162H5.55153C5.32981 18.7821 5.21043 18.6627 5.19337 18.458V9.73419C5.22748 9.51247 5.34687 9.39308 5.55153 9.37603H11.1287V5.97348H5.96086C2.90795 6.00759 1.37296 7.37202 1.3559 10.0668V18.1255C1.39002 20.8373 2.925 22.2017 5.96086 22.2188H11.1287V18.8162ZM18.6245 12.4972C18.8462 12.5313 18.9656 12.6507 18.9827 12.8553V19.0464C18.9486 19.2682 18.8292 19.3876 18.6245 19.4046H16.4755C16.2538 19.3705 16.1344 19.2511 16.1174 19.0464V12.8553C16.1515 12.6336 16.2709 12.5142 16.4755 12.4972H18.6245ZM12.459 18.6371C12.459 20.5303 13.1668 21.7071 14.5824 22.1676C15.1964 22.3722 15.9383 22.4746 16.8081 22.4746H18.2919C20.4921 22.4746 21.848 21.8094 22.3596 20.4791C22.5472 19.9674 22.6411 19.3534 22.6411 18.6371V13.2647C22.6411 11.3715 21.9333 10.1947 20.5177 9.73419C19.9207 9.52953 19.1788 9.4272 18.2919 9.4272H16.8081C14.608 9.4272 13.2521 10.0924 12.7404 11.4227C12.5528 11.9343 12.459 12.5483 12.459 13.2647V18.6371ZM28.7298 22.2188V9.68303H25.097V22.2188H28.7298ZM28.7298 8.09687V5.0269H25.097V8.09687H28.7298ZM37.556 9.4272C36.0551 9.46131 35.2024 10.2117 34.9977 11.6785L34.7419 9.68303H31.4416L31.4928 22.2188H35.1256L35.0744 12.7274C35.1086 12.5057 35.2279 12.3863 35.4326 12.3693H37.556C37.7777 12.4034 37.8971 12.5228 37.9142 12.7274V22.2188H41.547V12.6251C41.547 10.9878 40.9586 9.99002 39.7817 9.63186C39.3383 9.49542 38.8181 9.4272 38.2212 9.4272H37.556Z" fill="#02AD8F"/>
</svg>
