<svg width="17" height="17" viewBox="0 0 17 17" fill="none" xmlns="http://www.w3.org/2000/svg">
<path d="M8.15625 0C3.65167 0 0 3.65167 0 8.15625C0 12.6608 3.65167 16.3125 8.15625 16.3125C12.6608 16.3125 16.3125 12.6608 16.3125 8.15625C16.3125 3.65167 12.6608 0 8.15625 0ZM7.23409 5.65178C7.15536 5.65062 7.07779 5.63514 7.00572 5.60301C6.86274 5.54192 6.74955 5.42773 6.69179 5.28359C6.63303 5.13944 6.63519 4.97864 6.69628 4.83549L6.78933 4.61927C5.24114 5.19703 4.24308 6.70976 4.32414 8.36099C4.40504 10.0122 5.54409 11.4217 7.14088 11.8465C7.42369 11.9231 7.60778 12.1981 7.569 12.4887C7.53022 12.7792 7.28287 12.9977 6.98907 12.9977C6.93797 12.9966 6.88587 12.9899 6.83594 12.9778C4.7799 12.4333 3.29945 10.6379 3.15414 8.51529C3.00882 6.39267 4.23309 4.4132 6.19609 3.59358C5.91228 3.45825 5.78578 3.12218 5.91112 2.83288C6.03646 2.54342 6.36687 2.40476 6.66083 2.51912L8.0637 3.12567C8.35866 3.25434 8.49399 3.59591 8.36865 3.89419L7.77307 5.30705C7.67769 5.51878 7.4658 5.65411 7.23409 5.65178V5.65178ZM13.1682 8.13261C13.1161 10.1089 11.8985 11.8665 10.0675 12.6084L10.2449 12.7193C10.4467 12.8158 10.5753 13.0187 10.5777 13.2416C10.5788 13.351 10.5492 13.4585 10.4924 13.552C10.4356 13.6455 10.3537 13.7212 10.2561 13.7706C10.0565 13.8714 9.81813 13.8493 9.63952 13.7152L8.34085 12.9078C8.20768 12.827 8.11247 12.696 8.07585 12.5441C8.03923 12.3922 8.06587 12.2325 8.14909 12.1005L8.94641 10.8009C9.10171 10.5192 9.45642 10.4149 9.73939 10.5702C10.021 10.7255 10.1254 11.0803 9.9701 11.363C11.3408 10.6456 12.1392 9.17062 11.9907 7.63142C11.842 6.09205 10.7752 4.79687 9.29363 4.35427C9.08523 4.30101 8.92327 4.13805 8.87217 3.92965C8.82123 3.72108 8.88765 3.50053 9.04511 3.35621C9.20258 3.21206 9.42779 3.16429 9.6307 3.2342C11.7798 3.88304 13.2281 5.88914 13.1682 8.13261V8.13261Z" fill="#9FA9C0"/>
</svg>
