<svg width="432" height="100" viewBox="0 0 432 100" fill="none" xmlns="http://www.w3.org/2000/svg">
<rect x="0.5" y="0.5" width="431" height="99" rx="1.5" stroke="#E0E0E0"/>
<path d="M189.783 79.668H189.052V72.9756H196.571V78.0547C196.603 79.0391 196.086 79.529 195.02 79.5244C194.372 79.5426 193.759 79.5518 193.181 79.5518C193.176 79.5381 193.172 79.5199 193.167 79.4971C193.103 79.21 193.044 78.9775 192.989 78.7998C193.317 78.8226 193.607 78.8363 193.857 78.8408C194.113 78.8499 194.438 78.8545 194.835 78.8545C195.222 78.859 195.487 78.7975 195.628 78.6699C195.778 78.5469 195.851 78.3236 195.847 78V77.1865H189.783V79.668ZM188.689 69.4893H192.429V68.3271H188.437V67.7119H192.429V66.5088H193.153V67.7119H197.412V68.3271H193.153V69.4893H196.975V70.0908H193.153V71.2803H197.61V71.8955H188.047V71.2803H192.429V70.0908H188.689V69.4893ZM186.741 77.877C187.429 77.4167 187.949 77.0566 188.3 76.7969C188.318 77.0521 188.354 77.3187 188.409 77.5967C187.657 78.0433 187.083 78.4215 186.687 78.7314C186.513 78.8545 186.336 79.0026 186.153 79.1758L185.695 78.6152C185.937 78.3919 186.049 78.1071 186.03 77.7607V71.9502H184.376V71.2803H186.741V77.877ZM189.783 75.3818V76.5986H195.847V75.3818H189.783ZM189.783 73.5771V74.7939H195.847V73.5771H189.783ZM187.097 69.4346C186.45 68.7191 185.818 68.0605 185.203 67.459L185.75 66.9941C186.479 67.6777 187.129 68.318 187.698 68.915L187.097 69.4346ZM203.934 66.7549H204.747V70.9043H210.421V71.6562H204.747V78.0957H211.508V78.8682H198.492V78.0957H203.934V66.7549ZM217.852 73.9121C217.943 73.6204 218.079 73.1761 218.262 72.5791C218.339 72.3193 218.398 72.1234 218.439 71.9912H216.17V71.3213H218.638C218.66 71.2347 218.697 71.1048 218.747 70.9316C218.952 70.1842 219.103 69.6191 219.198 69.2363H216.888V68.5664H219.362C219.435 68.2747 219.54 67.8509 219.677 67.2949C219.75 66.9896 219.804 66.7594 219.841 66.6045L220.641 66.7275C220.618 66.8187 220.581 66.9554 220.531 67.1377C220.367 67.762 220.244 68.2383 220.162 68.5664H225.077V69.2363H219.978C219.832 69.8151 219.64 70.5101 219.403 71.3213H225.624V71.9912H219.226C219.025 72.6839 218.829 73.3516 218.638 73.9941H224.756V74.7803L221.591 78C222.179 78.3236 222.808 78.6882 223.478 79.0938L222.951 79.75C220.946 78.4785 219.018 77.3164 217.168 76.2637L217.599 75.7031C219.016 76.5007 220.119 77.1318 220.907 77.5967L223.86 74.6572H217.852V73.9121ZM212.725 73.9805C212.592 73.6432 212.472 73.3675 212.362 73.1533C213.666 71.221 214.666 69.0381 215.363 66.6045L216.129 66.8027C215.833 67.7507 215.468 68.7396 215.035 69.7695V79.668H214.297V71.3486C213.759 72.4105 213.235 73.2878 212.725 73.9805ZM228.563 70.6924H229.329V78.0547H233.267V68.4229H226.964V67.6982H239.104V68.4229H234.039V72.5928H238.64V73.3105H234.039V78.0547H239.638V78.7861H226.349V78.0547H228.563V70.6924ZM240.547 67.3291H253.412V68.0332H247.137L246.357 70.1455H252.64V79.6953H251.915V78.8545H242.003V79.6953H241.271V70.1455H245.585L246.316 68.0332H240.547V67.3291ZM251.915 70.8154H249.365V78.1846H251.915V70.8154ZM242.003 70.8154V78.1846H244.539V70.8154H242.003ZM245.25 73.4951V75.5391H248.654V73.4951H245.25ZM245.25 70.8154V72.8457H248.654V70.8154H245.25ZM245.25 76.1816V78.1846H248.654V76.1816H245.25ZM255.258 67.2471H259.346V75.6758H255.258V67.2471ZM260.877 72.1074H266.77V75.7578H260.877V72.1074ZM260.597 67.8623V67.2334H266.906C266.883 67.9808 266.842 68.7054 266.783 69.4072C266.747 70.5055 266.191 71.0501 265.115 71.041C264.901 71.0501 264.671 71.057 264.425 71.0615C264.192 71.0661 263.91 71.0684 263.577 71.0684C263.577 70.8587 263.534 70.6172 263.447 70.3438C264.003 70.3711 264.509 70.3848 264.965 70.3848C265.667 70.4167 266.034 70.0908 266.065 69.4072C266.12 68.8376 266.15 68.3226 266.154 67.8623H262.962C263.012 69.6624 262.233 70.9453 260.624 71.7109C260.46 71.4922 260.291 71.2962 260.118 71.123C261.595 70.485 262.303 69.3981 262.244 67.8623H260.597ZM261.574 72.7363V75.1289H266.065V72.7363H261.574ZM255.962 71.6152V75.0332H258.648V71.6152H255.962ZM255.962 67.8896V70.9863H258.648V67.8896H255.962ZM265.184 76.7148L265.799 76.3457C266.291 77.1022 266.824 77.9749 267.398 78.9639L266.715 79.3467C266.195 78.417 265.685 77.5397 265.184 76.7148ZM256.03 76.5713L256.728 76.8652C256.331 77.722 255.875 78.6221 255.36 79.5654L254.656 79.2305C255.107 78.4694 255.565 77.583 256.03 76.5713ZM258.409 77.0498L259.079 76.7695C259.494 77.5853 259.868 78.3555 260.2 79.0801L259.476 79.374C259.157 78.6038 258.801 77.8291 258.409 77.0498ZM261.827 76.9336L262.497 76.6396C262.925 77.4417 263.313 78.2028 263.659 78.9229L262.948 79.2305C262.556 78.3691 262.183 77.6035 261.827 76.9336Z" fill="#838383"/>
<path d="M241.068 51.7072V50.9543H244.272V47.7685H245.028V51.7072H241.068ZM244.272 13.0537H241.068V12.3008H245.028V16.2365H244.272V13.0537ZM241.448 15.4348C241.651 15.6352 241.812 15.874 241.922 16.1373C242.031 16.4005 242.087 16.683 242.087 16.9682V46.5468C242.086 47.7431 241.111 48.7132 239.907 48.7142H191.752C190.549 48.7125 189.574 47.7429 189.573 46.5468V16.9682C189.574 15.7723 190.549 14.8035 191.752 14.8021H239.908C240.488 14.8021 241.035 15.0264 241.448 15.4348ZM239.909 15.761H191.752V15.7617C191.082 15.7625 190.538 16.3026 190.538 16.9692V46.5478C190.538 47.2132 191.083 47.7563 191.752 47.7563H239.907C240.577 47.7563 241.123 47.2142 241.123 46.5478V16.9682C241.123 16.6459 240.996 16.342 240.767 16.1137C240.538 15.8889 240.23 15.7624 239.909 15.761ZM222.115 40.6787C222.155 38.7868 222.505 35.558 224.4 33.9153L227.008 33.939L229.45 37.9439L229.911 34.9491L229.578 34.4061L229.603 33.8481C230.086 33.8162 230.571 33.8168 231.054 33.85L231.081 34.4081L230.749 34.9508L231.212 37.9698L233.109 33.9199L235.994 33.8222C237.485 35.2233 238.441 38.5249 238.207 40.6787H222.115V40.6787ZM234.247 29.5683C234.048 30.274 233.816 30.9281 233.483 31.4765C233.103 32.1094 232.6 32.5964 231.889 32.8584C231.571 32.9726 230.76 33.0272 229.979 33.0137C229.227 33.0042 228.47 32.9295 228.169 32.7912C227.522 32.4967 227.068 31.9991 226.725 31.3807C226.43 30.8521 226.221 30.2366 226.036 29.5864C225.734 29.4293 225.507 29.1616 225.354 28.7963C225.187 28.3992 225.111 27.8775 225.121 27.259L225.124 27.0479L225.3 26.9309C225.344 26.9012 225.389 26.8731 225.435 26.8467C225.236 24.4166 225.312 23.5181 226.22 22.491C227.99 21.0505 232.049 21.1015 233.842 22.4074C235.064 23.5544 235.149 24.8394 234.773 26.8226C234.833 26.8567 234.892 26.8929 234.949 26.9309L235.125 27.0489L235.128 27.259C235.138 27.8649 235.065 28.3782 234.905 28.7742C234.757 29.1357 234.54 29.4053 234.247 29.5682V29.5683ZM234.225 27.4623C234.158 27.4384 234.087 27.4276 234.016 27.4307L233.656 27.4536L233.589 27.1016C233.515 26.7064 233.39 26.3227 233.216 25.9604C232.068 26.184 230.361 26.3796 229.011 25.624C228.491 25.3334 227.732 25.9289 227.109 25.8675C226.911 26.2572 226.77 26.6726 226.688 27.1016L226.618 27.4669L226.249 27.4316C226.177 27.4262 226.104 27.435 226.035 27.4575C226.001 27.4689 225.967 27.482 225.935 27.4969C225.944 27.9014 226 28.236 226.107 28.4875C226.199 28.708 226.328 28.8509 226.496 28.9036L226.712 28.9708L226.771 29.1865C226.953 29.8511 227.154 30.4812 227.44 30.9921C227.704 31.466 228.043 31.8446 228.508 32.0577C228.706 32.1476 229.333 32.1977 229.988 32.2074C230.685 32.217 231.378 32.1815 231.608 32.0968C232.124 31.908 232.497 31.5407 232.785 31.0613C233.094 30.5463 233.315 29.8923 233.509 29.1749L233.565 28.9689L233.77 28.8978C233.932 28.8412 234.058 28.6935 234.15 28.471C234.25 28.2237 234.305 27.8937 234.316 27.4979C234.287 27.4837 234.256 27.4718 234.225 27.4623ZM199.802 29.8884H210.921V31.7862H199.802V29.8884V29.8884ZM199.802 25.1644H210.921V27.0624H199.802V25.1644ZM199.802 20.4407H210.921V22.3385H199.802V20.4407ZM194.752 29.8884H198.444V31.7862H194.752V29.8884V29.8884ZM194.752 25.1644H198.444V27.0624H194.752V25.1644ZM194.752 20.4407H198.444V22.3385H194.752V20.4407ZM204.555 44.1435H194.752V42.2448H204.555V44.1435ZM222.423 44.1435H205.701V42.2448H222.423V44.1435ZM187.758 16.2365H187V12.3008H190.961V13.0537H187.758V16.2366V16.2365ZM187.758 50.9543H190.961V51.7072H187V47.7685H187.758V50.9543Z" fill="#02AD8F"/>
<path d="M171 66C167.15 66 164 69.125 164 73C164 76.875 167.125 80 171 80C174.875 80 178 76.875 178 73C178 69.15 174.85 66 171 66ZM167.65 71.15L170.675 68.125C170.875 67.925 171.175 67.925 171.375 68.125L174.35 71.1C174.45 71.2 174.5 71.325 174.5 71.45C174.5 71.575 174.45 71.7 174.35 71.8C174.15 72 173.85 72 173.65 71.8L171.5 69.7V74.5C171.5 74.775 171.275 75 171 75C170.725 75 170.5 74.775 170.5 74.5V69.725L168.35 71.875C168.15 72.075 167.85 72.075 167.65 71.875C167.45 71.675 167.45 71.35 167.65 71.15ZM174 77H168C166.9 77 166 76.1 166 75V74.5C166 74.225 166.225 74 166.5 74C166.775 74 167 74.225 167 74.5V75C167 75.55 167.45 76 168 76H174C174.55 76 175 75.55 175 75V74.5C175 74.225 175.225 74 175.5 74C175.775 74 176 74.225 176 74.5V75C176 76.1 175.1 77 174 77Z" fill="#454545"/>
</svg>
